{"glyphs":{"0":{"ha":642,"x_min":58,"x_max":583,"o":"m 407 721 q 388 786 407 764 q 321 808 369 808 q 253 787 272 808 q 235 721 235 765 l 235 233 q 253 167 235 190 q 321 144 272 144 q 388 167 369 144 q 407 233 407 189 l 407 721 m 58 728 q 123 903 58 839 q 321 968 188 968 q 519 903 454 968 q 583 728 583 839 l 583 226 q 519 51 583 115 q 321 -14 454 -14 q 123 51 188 -14 q 58 226 58 115 l 58 728 z "},"1":{"ha":428,"x_min":19,"x_max":356,"o":"m 356 954 l 356 0 l 178 0 l 178 746 l 19 629 l 19 824 l 196 954 l 356 954 z "},"2":{"ha":597,"x_min":51,"x_max":544,"o":"m 258 961 q 544 738 544 961 l 544 657 q 439 444 543 519 l 319 349 q 247 277 263 303 q 232 200 232 251 l 232 157 l 536 157 l 536 0 l 51 0 l 51 219 q 83 353 51 300 q 176 450 115 406 l 307 557 q 353 609 342 582 q 365 685 365 636 l 365 718 q 342 777 365 757 q 237 797 319 797 q 69 763 154 797 l 69 932 q 258 961 157 961 z "},"3":{"ha":574,"x_min":35,"x_max":515,"o":"m 222 963 q 440 903 368 963 q 511 738 511 844 l 511 642 q 415 486 511 514 q 515 342 515 468 l 515 217 q 444 51 515 110 q 238 -8 372 -8 q 35 21 103 -8 l 35 188 q 228 153 119 153 q 338 235 338 153 l 338 318 q 317 378 338 360 q 250 397 297 397 l 144 397 l 144 561 l 247 561 q 315 583 294 561 q 335 647 335 604 l 335 719 q 228 800 335 800 q 56 776 121 800 l 56 943 q 222 963 121 963 z "},"4":{"ha":619,"x_min":14,"x_max":613,"o":"m 613 321 l 613 167 l 521 167 l 521 0 l 354 0 l 354 167 l 14 167 l 14 329 l 289 954 l 521 954 l 521 321 l 613 321 m 361 321 l 361 774 l 167 321 l 361 321 z "},"5":{"ha":604,"x_min":63,"x_max":551,"o":"m 69 954 l 522 954 l 522 789 l 244 789 l 244 589 q 331 592 274 592 q 494 538 436 592 q 551 381 551 483 l 551 215 q 481 51 551 110 q 283 -8 411 -8 q 63 24 154 -8 l 63 189 q 258 153 174 153 q 374 233 374 153 l 374 356 q 353 417 374 399 q 297 435 332 435 q 69 421 261 435 l 69 954 z "},"6":{"ha":632,"x_min":58,"x_max":583,"o":"m 407 388 q 324 467 407 467 q 235 450 264 467 l 235 229 q 253 164 235 186 q 321 142 272 142 q 388 164 369 142 q 407 229 407 186 l 407 388 m 58 713 q 128 892 58 824 q 349 961 197 961 q 540 933 467 961 l 540 765 q 349 797 463 797 q 235 693 235 797 l 235 601 q 358 618 281 618 q 525 562 467 618 q 583 404 583 506 l 583 226 q 519 51 583 115 q 321 -14 454 -14 q 123 51 188 -14 q 58 226 58 115 l 58 713 z "},"7":{"ha":513,"x_min":7,"x_max":489,"o":"m 7 954 l 489 954 l 489 813 l 376 471 q 324 142 324 306 l 324 0 l 144 0 l 144 156 q 200 497 144 338 l 292 790 l 7 790 l 7 954 z "},"8":{"ha":651,"x_min":58,"x_max":593,"o":"m 593 733 l 593 638 q 519 475 593 524 q 593 314 593 426 l 593 221 q 526 49 593 111 q 325 -14 460 -14 q 124 49 190 -14 q 58 221 58 111 l 58 314 q 132 475 58 426 q 60 638 60 525 l 60 733 q 125 906 60 843 q 325 968 190 968 q 526 906 460 968 q 593 733 593 843 m 233 731 l 233 632 q 326 544 233 544 q 418 632 418 544 l 418 731 q 326 815 418 815 q 233 731 233 815 m 419 224 l 419 318 q 326 407 419 407 q 232 318 232 407 l 232 224 q 326 139 232 139 q 419 224 419 139 z "},"9":{"ha":632,"x_min":49,"x_max":574,"o":"m 397 724 q 378 790 397 767 q 311 813 360 813 q 244 790 263 813 q 225 724 225 768 l 225 558 q 307 475 225 475 q 397 493 365 475 l 397 724 m 49 728 q 113 903 49 839 q 311 968 178 968 q 509 903 444 968 q 574 728 574 839 l 574 221 q 501 53 574 114 q 289 -7 428 -7 q 82 22 150 -7 l 82 189 q 282 154 167 154 q 397 239 397 154 l 397 343 q 256 322 353 322 q 103 379 158 322 q 49 539 49 436 l 49 728 z "},"\r":{"ha":0,"x_min":0,"x_max":0,"o":""}," ":{"ha":260,"x_min":0,"x_max":0,"o":""},"!":{"ha":425,"x_min":114,"x_max":314,"o":"m 214 -12 q 164 -12 214 -12 q 114 83 114 -12 q 214 179 114 179 q 314 83 314 179 q 214 -12 314 -12 m 118 954 l 307 954 l 283 289 l 142 289 l 118 954 z "},"\"":{"ha":624,"x_min":115,"x_max":501,"o":"m 115 1067 l 269 1067 l 269 710 l 115 710 l 115 1067 m 347 1067 l 501 1067 l 501 710 l 347 710 l 347 1067 z "},"#":{"ha":833,"x_min":51,"x_max":776,"o":"m 776 561 l 657 561 l 633 386 l 732 386 l 732 249 l 613 249 l 578 0 l 422 0 l 458 249 l 308 249 l 274 0 l 118 0 l 154 249 l 51 249 l 51 386 l 174 386 l 199 561 l 97 561 l 97 699 l 218 699 l 254 947 l 408 947 l 374 699 l 522 699 l 558 947 l 713 947 l 678 699 l 776 699 l 776 561 m 478 386 l 503 561 l 353 561 l 329 386 l 478 386 z "},"$":{"ha":589,"x_min":31,"x_max":558,"o":"m 558 300 l 558 217 q 365 4 558 43 l 365 -82 l 199 -82 l 199 -6 q 42 24 93 3 l 42 194 q 247 157 133 157 q 381 239 381 157 l 381 271 q 367 325 381 306 q 314 365 353 344 l 161 447 q 31 654 31 522 l 31 739 q 210 951 31 913 l 210 1033 l 375 1033 l 375 958 q 508 933 456 953 l 508 764 q 344 797 429 797 q 235 777 260 797 q 211 718 211 757 l 211 685 q 226 622 211 643 q 286 576 242 601 l 444 486 q 558 300 558 425 z "},"%":{"ha":939,"x_min":49,"x_max":890,"o":"m 703 -10 q 610 -10 703 -10 q 517 217 517 -10 q 703 444 517 444 q 890 217 890 444 q 703 -10 890 -10 m 640 217 q 640 161 640 217 q 703 104 640 104 q 765 217 765 104 q 703 331 765 331 q 640 217 640 331 m 235 510 q 142 510 235 510 q 49 737 49 510 q 235 964 49 964 q 422 737 422 964 q 235 510 422 510 m 234 624 q 266 624 234 624 q 297 737 297 624 q 234 850 297 850 q 171 737 171 850 q 234 624 171 624 m 624 954 l 743 954 l 317 0 l 196 0 l 624 954 z "},"&":{"ha":681,"x_min":74,"x_max":668,"o":"m 668 569 l 668 418 l 601 418 l 601 231 q 538 55 601 119 q 340 -10 474 -10 q 140 55 206 -10 q 74 231 74 119 l 74 343 q 174 499 74 468 q 76 656 76 533 l 76 738 q 151 903 76 843 q 375 963 225 963 q 551 940 482 963 l 551 775 q 397 800 486 800 q 280 780 307 800 q 253 718 253 760 l 253 658 q 272 591 253 613 q 336 569 290 569 l 432 569 l 432 658 l 601 658 l 601 569 l 668 569 m 432 235 l 432 418 l 338 418 q 250 332 250 418 l 250 235 q 341 146 250 146 q 432 235 432 146 z "},"'":{"ha":396,"x_min":115,"x_max":279,"o":"m 115 1067 l 279 1067 l 279 710 l 115 710 l 115 1067 z "},"(":{"ha":465,"x_min":90,"x_max":389,"o":"m 285 836 q 264 745 285 836 q 243 463 243 654 q 285 89 243 271 q 389 -229 326 -93 l 236 -229 q 132 85 174 -99 q 90 463 90 269 q 132 840 90 657 q 236 1156 174 1024 l 389 1156 q 285 836 326 1018 z "},")":{"ha":467,"x_min":75,"x_max":375,"o":"m 333 839 q 354 747 333 839 q 375 463 375 656 q 333 86 375 269 q 228 -229 290 -97 l 75 -229 q 179 89 138 -93 q 221 463 221 271 q 179 836 221 654 q 75 1156 138 1018 l 228 1156 q 333 839 290 1022 z "},"*":{"ha":747,"x_min":50,"x_max":697,"o":"m 292 1014 l 292 1143 l 454 1143 l 454 1014 q 444 926 454 968 q 525 963 476 947 l 647 1004 l 697 849 l 575 808 q 488 792 531 794 q 547 726 521 764 l 624 624 l 492 528 l 415 631 q 374 707 389 665 q 331 631 360 669 l 256 528 l 124 624 l 199 728 q 258 792 226 764 q 172 810 219 794 l 50 849 l 100 1003 l 222 964 q 301 928 269 949 q 292 1014 292 967 z "},"+":{"ha":678,"x_min":63,"x_max":614,"o":"m 614 535 l 614 382 l 419 382 l 419 181 l 256 181 l 256 382 l 63 382 l 63 535 l 256 535 l 256 735 l 419 735 l 419 535 l 614 535 z "},",":{"ha":275,"x_min":17,"x_max":244,"o":"m 168 178 q 244 108 244 178 q 200 -33 244 56 q 113 -182 156 -121 l 17 -182 l 79 178 l 168 178 z "},"-":{"ha":400,"x_min":57,"x_max":351,"o":"m 57 535 l 351 535 l 351 382 l 57 382 l 57 535 z "},".":{"ha":303,"x_min":50,"x_max":250,"o":"m 150 -12 q 100 -12 150 -12 q 50 83 50 -12 q 150 179 50 179 q 250 83 250 179 q 150 -12 250 -12 z "},"/":{"ha":604,"x_min":50,"x_max":567,"o":"m 410 1156 l 567 1156 l 206 -229 l 50 -229 l 410 1156 z "},":":{"ha":335,"x_min":50,"x_max":250,"o":"m 150 -12 q 100 -12 150 -12 q 50 83 50 -12 q 150 179 50 179 q 250 83 250 179 q 150 -12 250 -12 m 50 569 q 150 667 50 667 q 250 569 250 667 q 150 475 250 475 q 50 569 50 475 z "},";":{"ha":340,"x_min":17,"x_max":250,"o":"m 50 569 q 150 667 50 667 q 250 569 250 667 q 150 475 250 475 q 50 569 50 475 m 168 178 q 244 108 244 178 q 200 -33 244 56 q 113 -182 156 -121 l 17 -182 l 79 178 l 168 178 z "},"<":{"ha":690,"x_min":50,"x_max":614,"o":"m 614 742 l 614 583 l 222 458 l 614 333 l 614 175 l 50 379 l 50 538 l 614 742 z "},"=":{"ha":668,"x_min":49,"x_max":613,"o":"m 49 397 l 613 397 l 613 246 l 49 246 l 49 397 m 49 671 l 613 671 l 613 518 l 49 518 l 49 671 z "},">":{"ha":685,"x_min":63,"x_max":628,"o":"m 63 742 l 628 538 l 628 379 l 63 175 l 63 333 l 456 458 l 63 583 l 63 742 z "},"?":{"ha":571,"x_min":40,"x_max":508,"o":"m 215 -12 q 165 -12 215 -12 q 115 83 115 -12 q 215 179 115 179 q 315 83 315 179 q 215 -12 315 -12 m 224 968 q 508 746 508 968 l 508 622 q 460 458 508 514 q 296 403 411 403 l 286 289 l 140 289 l 132 535 l 213 535 q 308 556 281 535 q 336 626 336 576 l 336 728 q 314 788 336 769 q 203 807 292 807 q 40 775 115 807 l 40 943 q 224 968 124 968 z "},"@":{"ha":1250,"x_min":88,"x_max":1174,"o":"m 758 -182 l 632 -182 q 154 43 269 -182 q 88 392 88 174 q 113 626 88 526 q 199 806 139 725 q 633 967 319 967 q 1068 808 951 967 q 1150 631 1126 729 q 1174 397 1174 533 q 1106 105 1174 192 q 906 18 1038 18 q 721 100 774 18 q 585 71 671 71 q 426 228 426 71 l 426 261 q 457 367 426 328 q 551 431 488 407 l 688 478 l 688 558 q 674 601 688 588 q 601 615 661 615 q 453 589 540 615 l 453 707 q 621 731 531 731 q 822 565 822 731 l 822 244 q 844 171 822 193 q 920 149 865 149 q 1001 201 975 149 q 1026 370 1026 254 q 1020 544 1026 486 q 991 660 1014 601 q 926 753 968 719 q 811 808 885 788 q 633 829 738 829 q 456 807 529 829 q 340 750 382 785 q 275 656 299 715 q 244 537 251 596 q 238 392 238 478 q 244 246 238 306 q 275 127 251 186 q 342 33 299 68 q 633 -44 436 -44 l 758 -44 l 758 -182 m 563 229 q 574 194 563 204 q 617 183 586 183 q 688 203 649 183 l 688 358 l 615 335 q 574 310 585 324 q 563 265 563 296 l 563 229 z "},"A":{"ha":658,"x_min":11,"x_max":647,"o":"m 478 0 l 433 233 l 225 233 l 182 0 l 11 0 l 207 954 l 454 954 l 647 0 l 478 0 m 251 383 l 404 383 l 326 794 l 251 383 z "},"B":{"ha":675,"x_min":72,"x_max":617,"o":"m 608 736 l 608 649 q 508 482 608 515 q 617 313 617 451 l 617 218 q 383 0 617 0 l 72 0 l 72 954 l 375 954 q 608 736 608 954 m 349 804 l 249 804 l 249 558 l 349 558 q 433 639 433 558 l 433 725 q 349 804 433 804 m 442 229 l 442 322 q 357 403 442 403 l 249 403 l 249 149 l 357 149 q 442 229 442 149 z "},"C":{"ha":565,"x_min":58,"x_max":525,"o":"m 58 738 q 131 902 58 843 q 350 961 204 961 q 521 940 446 961 l 521 778 q 367 801 446 801 q 263 781 289 801 q 236 721 236 761 l 236 232 q 347 153 236 153 q 525 174 458 153 l 525 14 q 349 -7 450 -7 q 58 215 58 -7 l 58 738 z "},"D":{"ha":674,"x_min":72,"x_max":615,"o":"m 439 735 q 360 808 439 808 l 249 808 l 249 153 l 360 153 q 439 235 439 153 l 439 735 m 72 954 l 383 954 q 555 899 494 954 q 615 742 615 844 l 615 222 q 393 0 615 0 l 72 0 l 72 954 z "},"E":{"ha":575,"x_min":72,"x_max":536,"o":"m 72 954 l 536 954 l 536 800 l 249 800 l 249 560 l 497 560 l 497 406 l 249 406 l 249 153 l 536 153 l 536 0 l 72 0 l 72 954 z "},"F":{"ha":547,"x_min":72,"x_max":524,"o":"m 72 954 l 524 954 l 524 800 l 250 800 l 250 529 l 506 529 l 506 372 l 250 372 l 250 0 l 72 0 l 72 954 z "},"G":{"ha":642,"x_min":58,"x_max":588,"o":"m 58 732 q 136 899 58 838 q 363 961 214 961 q 551 935 469 961 l 551 768 q 365 799 465 799 q 236 713 236 799 l 236 233 q 343 151 236 151 q 415 168 389 151 l 415 500 l 588 500 l 588 50 q 344 -7 485 -7 q 131 50 204 -7 q 58 215 58 107 l 58 732 z "},"H":{"ha":724,"x_min":72,"x_max":651,"o":"m 474 954 l 651 954 l 651 0 l 474 0 l 474 390 l 250 390 l 250 0 l 72 0 l 72 954 l 250 954 l 250 547 l 474 547 l 474 954 z "},"I":{"ha":322,"x_min":72,"x_max":250,"o":"m 72 954 l 250 954 l 250 0 l 72 0 l 72 954 z "},"J":{"ha":328,"x_min":-21,"x_max":256,"o":"m 78 954 l 256 954 l 256 285 q 246 100 256 172 q 208 -64 236 28 l 165 -207 l -21 -207 l 21 -62 q 78 283 78 135 l 78 954 z "},"K":{"ha":654,"x_min":72,"x_max":642,"o":"m 72 954 l 249 954 l 249 0 l 72 0 l 72 954 m 438 954 l 626 954 l 444 489 l 642 0 l 446 0 l 260 486 l 438 954 z "},"L":{"ha":522,"x_min":72,"x_max":515,"o":"m 72 954 l 250 954 l 250 149 l 515 149 l 515 0 l 72 0 l 72 954 z "},"M":{"ha":886,"x_min":72,"x_max":814,"o":"m 814 954 l 814 0 l 643 0 l 643 381 q 665 663 643 521 l 515 246 l 369 246 l 219 663 q 242 381 242 533 l 242 0 l 72 0 l 72 954 l 258 954 l 442 435 l 626 954 l 814 954 z "},"N":{"ha":726,"x_min":72,"x_max":654,"o":"m 479 954 l 654 954 l 654 0 l 479 0 q 245 609 271 531 q 218 690 219 688 q 223 656 218 688 q 233 586 228 625 q 246 318 246 478 l 246 0 l 72 0 l 72 954 l 251 954 q 479 356 453 440 q 507 269 506 272 q 500 319 507 272 q 479 646 479 458 l 479 954 z "},"O":{"ha":667,"x_min":58,"x_max":608,"o":"m 432 719 q 333 807 432 807 q 235 719 235 807 l 235 235 q 333 147 235 147 q 432 235 432 147 l 432 719 m 58 728 q 128 903 58 838 q 332 968 197 968 q 538 903 467 968 q 608 728 608 838 l 608 226 q 538 51 608 117 q 332 -14 467 -14 q 128 51 197 -14 q 58 226 58 117 l 58 728 z "},"P":{"ha":640,"x_min":72,"x_max":597,"o":"m 421 722 q 340 800 421 800 l 250 800 l 250 443 l 340 443 q 421 522 421 443 l 421 722 m 72 954 l 361 954 q 535 899 474 954 q 597 742 597 844 l 597 503 q 535 345 597 400 q 361 290 474 290 l 250 290 l 250 0 l 72 0 l 72 954 z "},"Q":{"ha":667,"x_min":58,"x_max":679,"o":"m 332 -14 q 128 51 197 -14 q 58 226 58 117 l 58 728 q 128 903 58 838 q 332 968 197 968 q 538 903 467 968 q 608 728 608 838 l 608 226 q 521 39 608 101 l 679 -126 l 469 -126 l 363 -12 q 332 -14 353 -14 m 235 719 l 235 235 q 333 147 235 147 q 432 235 432 147 l 432 719 q 333 807 432 807 q 235 719 235 807 z "},"R":{"ha":660,"x_min":72,"x_max":632,"o":"m 249 356 l 249 0 l 72 0 l 72 954 l 361 954 q 535 899 474 954 q 597 742 597 844 l 597 576 q 482 371 597 414 l 632 0 l 439 0 l 307 356 l 249 356 m 249 803 l 249 497 l 343 497 q 403 517 385 497 q 421 579 421 536 l 421 728 q 402 785 421 768 q 343 803 383 803 l 249 803 z "},"S":{"ha":589,"x_min":31,"x_max":558,"o":"m 31 739 q 101 903 31 844 q 304 961 172 961 q 508 933 436 961 l 508 764 q 344 797 429 797 q 235 777 260 797 q 211 718 211 757 l 211 685 q 226 622 211 643 q 286 576 242 601 l 444 486 q 558 300 558 425 l 558 217 q 481 51 558 110 q 263 -7 403 -7 q 42 24 122 -7 l 42 194 q 247 157 133 157 q 381 239 381 157 l 381 271 q 367 325 381 306 q 314 365 353 344 l 161 447 q 31 654 31 522 l 31 739 z "},"T":{"ha":547,"x_min":8,"x_max":539,"o":"m 539 954 l 539 800 l 363 800 l 363 0 l 185 0 l 185 800 l 8 800 l 8 954 l 539 954 z "},"U":{"ha":675,"x_min":65,"x_max":611,"o":"m 435 954 l 611 954 l 611 226 q 542 51 611 117 q 338 -14 472 -14 q 134 51 203 -14 q 65 226 65 117 l 65 954 l 242 954 l 242 235 q 338 147 242 147 q 435 235 435 147 l 435 954 z "},"V":{"ha":647,"x_min":10,"x_max":638,"o":"m 454 954 l 638 954 l 447 0 l 201 0 l 10 954 l 190 954 l 269 531 q 305 308 283 456 q 326 156 326 160 q 348 309 328 161 q 381 529 368 457 l 454 954 z "},"W":{"ha":831,"x_min":14,"x_max":817,"o":"m 663 954 l 817 954 l 681 0 l 515 0 l 451 406 l 418 685 q 386 406 406 532 l 321 0 l 146 0 l 14 954 l 169 954 q 242 449 236 517 q 254 307 249 381 q 340 954 275 489 l 494 954 l 546 568 l 576 315 q 603 568 588 456 l 663 954 z "},"X":{"ha":619,"x_min":10,"x_max":610,"o":"m 418 954 l 610 954 l 403 475 l 610 0 l 417 0 l 313 289 l 201 0 l 10 0 l 215 475 l 10 954 l 201 954 l 313 663 l 418 954 z "},"Y":{"ha":640,"x_min":1,"x_max":639,"o":"m 410 0 l 231 0 l 231 303 l 1 954 l 183 954 l 243 776 q 322 490 294 617 q 403 779 350 611 l 461 954 l 639 954 l 410 303 l 410 0 z "},"Z":{"ha":574,"x_min":31,"x_max":540,"o":"m 38 954 l 538 954 l 538 810 l 215 150 l 540 150 l 540 0 l 31 0 l 31 150 l 347 804 l 38 804 l 38 954 z "},"[":{"ha":488,"x_min":119,"x_max":432,"o":"m 264 -94 l 432 -94 l 432 -235 l 119 -235 l 119 1174 l 432 1174 l 432 1036 l 264 1036 l 264 -94 z "},"\\":{"ha":638,"x_min":51,"x_max":590,"o":"m 51 1174 l 214 1174 l 590 -235 l 426 -235 l 51 1174 z "},"]":{"ha":488,"x_min":56,"x_max":367,"o":"m 56 1174 l 367 1174 l 367 -235 l 56 -235 l 56 -94 l 224 -94 l 224 1036 l 56 1036 l 56 1174 z "},"^":{"ha":563,"x_min":1,"x_max":558,"o":"m 558 547 l 383 547 l 279 879 l 175 547 l 1 547 l 179 994 l 382 994 l 558 547 z "},"_":{"ha":749,"x_min":11,"x_max":739,"o":"m 11 -4 l 739 -4 l 738 -146 l 11 -146 l 11 -4 z "},"`":{"ha":486,"x_min":146,"x_max":340,"o":"m 146 1026 l 281 1026 l 340 869 l 244 869 l 146 1026 z "},"a":{"ha":603,"x_min":32,"x_max":538,"o":"m 206 233 l 206 194 q 272 129 206 129 q 367 156 328 129 l 367 350 l 275 326 q 219 295 232 314 q 206 233 206 276 m 74 792 q 284 818 150 818 q 478 760 418 818 q 538 583 538 701 l 538 0 l 371 0 l 371 58 q 222 -3 321 -3 q 77 45 122 -3 q 32 194 32 93 l 32 242 q 72 378 32 329 q 204 451 113 426 l 368 494 l 368 583 q 344 644 367 626 q 235 663 321 663 q 74 633 150 663 l 74 792 z "},"b":{"ha":636,"x_min":72,"x_max":579,"o":"m 399 597 q 340 651 399 651 q 250 631 292 651 l 250 163 l 322 163 q 399 231 399 163 l 399 597 m 72 1026 l 249 1026 l 249 790 q 399 815 318 815 q 530 770 481 815 q 579 638 579 725 l 579 204 q 522 51 579 101 q 368 0 464 0 l 72 0 l 72 1026 z "},"c":{"ha":519,"x_min":58,"x_max":486,"o":"m 58 589 q 319 818 58 818 q 485 797 415 818 l 485 635 q 348 656 408 656 q 262 638 288 656 q 236 575 236 619 l 236 236 q 261 174 236 192 q 351 156 286 156 q 486 178 417 156 l 486 14 q 319 -7 414 -7 q 58 222 58 -7 l 58 589 z "},"d":{"ha":636,"x_min":58,"x_max":564,"o":"m 386 653 l 321 653 q 236 568 236 653 l 236 215 q 295 156 236 156 q 386 182 354 156 l 386 653 m 385 1026 l 564 1026 l 564 0 l 390 0 l 390 54 q 243 -6 335 -6 q 105 44 151 -6 q 58 186 58 94 l 58 574 q 121 748 58 685 q 304 811 183 811 l 385 811 l 385 1026 z "},"e":{"ha":601,"x_min":58,"x_max":556,"o":"m 58 224 l 58 603 q 121 766 58 707 q 310 825 183 825 q 556 603 556 825 l 556 333 l 229 333 l 229 238 q 257 168 229 189 q 361 147 285 147 q 535 174 438 147 l 535 17 q 339 -8 438 -8 q 58 224 58 -8 m 229 471 l 392 471 l 392 601 q 310 676 392 676 q 229 601 229 676 l 229 471 z "},"f":{"ha":401,"x_min":18,"x_max":401,"o":"m 97 832 q 329 1053 97 1053 q 401 1047 351 1053 l 401 908 q 345 911 376 911 q 295 892 314 911 q 276 833 276 874 l 276 811 l 399 811 l 399 671 l 276 671 l 276 0 l 97 0 l 97 671 l 18 671 l 18 811 l 97 811 l 97 832 z "},"g":{"ha":629,"x_min":31,"x_max":617,"o":"m 617 736 l 568 736 q 528 731 544 736 q 560 611 560 685 l 560 494 q 497 338 560 394 q 311 279 435 281 q 263 236 263 279 q 277 205 263 214 q 328 196 292 196 l 406 196 q 560 154 510 196 q 611 25 611 113 l 611 -4 q 542 -155 611 -101 q 329 -208 472 -208 l 276 -208 q 31 -151 110 -208 l 31 11 q 272 -58 124 -58 l 308 -58 q 415 -44 385 -58 q 446 -1 446 -31 l 446 8 q 432 41 446 31 q 382 51 418 51 l 297 51 q 106 174 106 51 l 106 196 q 182 294 106 279 q 40 494 40 339 l 40 611 q 105 769 40 713 q 300 825 169 825 q 451 796 393 825 q 594 896 483 896 l 617 896 l 617 736 m 383 496 l 383 610 q 300 683 383 683 q 217 610 217 683 l 217 496 q 300 422 217 422 q 383 496 383 422 z "},"h":{"ha":639,"x_min":72,"x_max":574,"o":"m 72 1026 l 249 1026 l 249 792 q 392 815 315 815 q 521 772 468 815 q 574 638 574 729 l 574 0 l 393 0 l 393 597 q 338 651 393 651 q 250 631 289 651 l 250 0 l 72 0 l 72 1026 z "},"i":{"ha":322,"x_min":61,"x_max":261,"o":"m 61 949 q 161 1046 61 1046 q 261 949 261 1046 q 161 854 261 854 q 61 949 61 854 m 72 793 l 250 793 l 250 0 l 72 0 l 72 793 z "},"j":{"ha":322,"x_min":-29,"x_max":261,"o":"m 61 949 q 161 1046 61 1046 q 261 949 261 1046 q 161 854 261 854 q 61 949 61 854 m 72 793 l 250 793 l 250 28 q 191 -146 250 -81 q 18 -211 132 -211 q -29 -207 -12 -211 l -29 -44 q 4 -47 -7 -47 q 72 28 72 -47 l 72 793 z "},"k":{"ha":590,"x_min":72,"x_max":578,"o":"m 72 1026 l 244 1026 l 244 0 l 72 0 l 72 1026 m 382 811 l 560 811 l 425 425 l 578 0 l 392 0 l 251 433 l 382 811 z "},"l":{"ha":322,"x_min":72,"x_max":250,"o":"m 72 1026 l 250 1026 l 250 0 l 72 0 l 72 1026 z "},"m":{"ha":963,"x_min":72,"x_max":897,"o":"m 529 764 q 710 815 621 815 q 849 770 800 815 q 897 638 897 725 l 897 0 l 717 0 l 717 597 q 663 651 717 651 q 569 625 613 651 q 574 599 574 614 l 574 0 l 393 0 l 393 597 q 339 651 393 651 q 250 628 292 651 l 250 0 l 72 0 l 72 811 l 240 811 l 240 775 q 399 815 317 815 q 529 764 482 815 z "},"n":{"ha":639,"x_min":72,"x_max":574,"o":"m 240 775 q 397 815 317 815 q 525 770 476 815 q 574 638 574 725 l 574 0 l 393 0 l 393 597 q 339 651 393 651 q 250 628 292 651 l 250 0 l 72 0 l 72 811 l 240 811 l 240 775 z "},"o":{"ha":622,"x_min":58,"x_max":564,"o":"m 389 599 q 310 674 389 674 q 232 599 232 674 l 232 213 q 310 138 232 138 q 389 213 389 138 l 389 599 m 58 604 q 122 766 58 707 q 311 825 185 825 q 501 766 438 825 q 564 604 564 707 l 564 207 q 501 45 564 104 q 311 -14 438 -14 q 122 45 185 -14 q 58 207 58 104 l 58 604 z "},"p":{"ha":636,"x_min":72,"x_max":579,"o":"m 399 597 q 340 651 399 651 q 250 628 292 651 l 250 163 l 324 163 q 399 231 399 163 l 399 597 m 240 775 q 401 815 321 815 q 531 770 482 815 q 579 638 579 725 l 579 206 q 522 51 579 103 q 368 0 464 0 l 250 0 l 250 -207 l 72 -207 l 72 811 l 240 811 l 240 775 z "},"q":{"ha":636,"x_min":58,"x_max":564,"o":"m 386 653 l 321 653 q 236 565 236 653 l 236 222 q 301 158 236 158 q 386 182 350 158 l 386 653 m 306 811 l 564 811 l 564 -207 l 386 -207 l 386 24 q 254 -1 340 -1 q 58 204 58 -1 l 58 572 q 121 747 58 683 q 306 811 183 811 z "},"r":{"ha":432,"x_min":72,"x_max":425,"o":"m 397 815 l 425 815 l 425 650 l 389 650 q 250 613 314 650 l 250 0 l 72 0 l 72 811 l 240 811 l 240 754 q 294 789 279 779 q 397 815 339 815 z "},"s":{"ha":528,"x_min":32,"x_max":497,"o":"m 33 603 q 97 765 33 711 q 304 818 160 818 q 469 796 397 818 l 469 639 q 325 661 399 661 q 228 644 251 661 q 206 593 206 628 l 206 574 q 218 534 206 549 q 268 496 231 519 l 383 426 q 497 249 497 356 l 497 213 q 208 -7 497 -7 q 32 13 110 -7 l 32 172 q 181 151 100 151 q 292 168 263 151 q 321 219 321 185 l 321 236 q 306 278 321 263 q 239 326 290 294 l 138 386 q 33 564 33 450 l 33 603 z "},"t":{"ha":432,"x_min":7,"x_max":411,"o":"m 328 149 q 411 168 372 149 l 411 10 q 293 -11 349 -11 q 133 42 182 -11 q 85 194 85 94 l 85 661 l 7 661 l 7 811 l 92 811 l 146 953 l 263 953 l 263 811 l 401 811 l 401 661 l 263 661 l 263 211 q 328 149 263 149 z "},"u":{"ha":643,"x_min":65,"x_max":571,"o":"m 393 811 l 571 811 l 571 0 l 403 0 l 403 38 q 244 -1 329 -1 q 113 47 160 -1 q 65 186 65 96 l 65 811 l 244 811 l 244 218 q 306 158 244 158 q 393 183 353 158 l 393 811 z "},"v":{"ha":588,"x_min":11,"x_max":575,"o":"m 400 811 l 575 811 l 403 0 l 189 0 l 11 811 l 190 811 l 246 526 q 297 138 285 319 q 347 524 308 310 l 400 811 z "},"w":{"ha":856,"x_min":11,"x_max":844,"o":"m 664 811 l 844 811 l 714 0 l 507 0 q 461 342 476 231 q 440 503 446 453 q 431 572 433 554 q 353 0 421 476 l 149 0 l 11 811 l 196 811 l 260 221 l 346 811 l 513 811 l 603 219 l 664 811 z "},"x":{"ha":549,"x_min":8,"x_max":540,"o":"m 349 811 l 540 811 l 364 408 l 540 0 l 349 0 l 275 242 l 200 0 l 8 0 l 181 408 l 10 811 l 200 811 l 275 579 l 349 811 z "},"y":{"ha":599,"x_min":17,"x_max":581,"o":"m 410 811 l 581 811 l 381 -207 l 208 -207 l 249 0 l 183 0 l 17 811 l 192 811 l 250 518 q 301 138 289 314 q 353 514 315 304 l 410 811 z "},"z":{"ha":488,"x_min":28,"x_max":460,"o":"m 33 811 l 457 811 l 457 700 l 221 149 l 460 149 l 460 0 l 28 0 l 28 113 l 267 661 l 33 661 l 33 811 z "},"{":{"ha":547,"x_min":76,"x_max":457,"o":"m 335 939 l 335 671 q 308 527 335 578 q 208 464 281 476 q 308 404 281 451 q 335 265 335 357 l 335 -14 q 407 -79 335 -79 l 457 -79 l 457 -231 l 394 -231 q 238 -170 293 -231 q 182 -7 182 -110 l 182 300 q 83 388 182 388 l 76 388 l 76 539 l 83 539 q 182 625 182 539 l 182 931 q 238 1094 182 1033 q 394 1156 293 1156 l 457 1156 l 457 1004 l 407 1004 q 335 939 335 1004 z "},"|":{"ha":304,"x_min":90,"x_max":211,"o":"m 90 1192 l 211 1192 l 211 -249 l 90 -249 l 90 1192 z "},"}":{"ha":544,"x_min":85,"x_max":464,"o":"m 458 539 l 464 539 l 464 388 l 458 388 q 360 300 360 388 l 360 -7 q 304 -170 360 -110 q 147 -231 249 -231 l 85 -231 l 85 -79 l 135 -79 q 206 -14 206 -79 l 206 265 q 233 404 206 357 q 332 464 260 451 q 233 527 260 476 q 206 671 206 578 l 206 939 q 135 1004 206 1004 l 85 1004 l 85 1156 l 147 1156 q 304 1094 249 1156 q 360 931 360 1033 l 360 625 q 458 539 360 539 z "},"~":{"ha":789,"x_min":35,"x_max":751,"o":"m 751 524 q 711 401 751 446 q 610 353 671 356 q 479 372 550 351 l 304 436 q 220 442 254 458 q 196 371 186 426 l 40 371 q 35 442 35 404 q 75 564 35 519 q 306 593 146 643 l 482 529 q 565 523 532 507 q 589 594 599 539 l 744 594 q 751 524 751 564 z "}," ":{"ha":260,"x_min":0,"x_max":0,"o":""},"¡":{"ha":425,"x_min":114,"x_max":314,"o":"m 307 -143 l 118 -143 l 142 522 l 283 522 l 307 -143 m 214 632 q 164 632 214 632 q 114 728 114 632 q 214 824 114 824 q 314 728 314 824 q 214 632 314 632 z "},"¢":{"ha":535,"x_min":64,"x_max":492,"o":"m 396 -97 l 232 -97 l 232 1 q 64 222 64 39 l 64 589 q 238 810 64 775 l 238 910 l 401 910 l 401 815 q 490 797 451 810 l 490 635 q 353 656 414 656 q 267 638 293 656 q 242 575 242 619 l 242 236 q 267 174 242 192 q 357 156 292 156 q 492 178 422 156 l 492 14 q 396 -4 443 -1 l 396 -97 z "},"£":{"ha":697,"x_min":72,"x_max":625,"o":"m 625 154 l 625 0 l 72 0 l 72 151 q 115 169 99 160 q 148 207 132 178 q 164 282 164 236 l 164 411 l 78 411 l 78 561 l 164 561 l 164 697 q 238 893 164 826 q 450 960 311 960 q 611 939 546 960 l 611 775 q 469 797 542 797 q 368 769 396 797 q 340 685 340 742 l 340 561 l 544 561 l 544 411 l 340 411 l 340 307 q 324 211 340 243 q 276 154 308 179 l 625 154 z "},"¤":{"ha":639,"x_min":18,"x_max":628,"o":"m 585 550 l 585 404 q 560 285 585 336 l 626 219 l 524 118 l 453 189 q 326 167 403 167 q 190 189 249 167 l 119 118 l 18 219 l 85 285 q 60 404 60 336 l 60 550 q 85 669 60 617 l 19 733 l 121 836 l 192 765 q 324 786 246 786 q 454 764 401 786 l 525 836 l 628 733 l 561 668 q 585 550 585 619 m 231 544 l 231 410 q 322 321 231 321 q 414 410 414 321 l 414 544 q 322 632 414 632 q 231 544 231 632 z "},"¥":{"ha":744,"x_min":56,"x_max":694,"o":"m 683 606 l 683 468 l 525 468 l 489 372 l 683 372 l 683 235 l 464 235 l 464 0 l 288 0 l 288 235 l 60 235 l 60 372 l 261 372 l 226 468 l 60 468 l 60 606 l 178 606 l 56 947 l 236 947 l 333 656 l 378 511 l 422 656 l 519 947 l 694 947 l 572 606 l 683 606 z "},"¦":{"ha":306,"x_min":90,"x_max":211,"o":"m 90 289 l 211 289 l 211 -249 l 90 -249 l 90 289 m 90 1192 l 211 1192 l 211 654 l 90 654 l 90 1192 z "},"§":{"ha":546,"x_min":44,"x_max":518,"o":"m 222 383 l 222 351 q 235 312 222 326 q 289 272 249 297 l 404 203 q 518 25 518 133 l 518 13 q 229 -208 518 -208 q 53 -189 122 -208 l 53 -29 q 203 -50 121 -50 q 313 -35 285 -50 q 342 9 342 -19 q 326 54 342 38 q 260 103 311 71 l 157 164 q 54 340 54 226 l 54 383 l 222 383 m 44 746 q 108 906 44 853 q 314 960 171 960 q 479 939 413 960 l 479 782 q 339 803 417 803 q 238 788 261 803 q 215 742 215 772 q 227 698 215 713 q 278 663 239 683 l 393 594 q 508 418 508 531 l 508 375 l 336 375 l 336 406 q 319 447 336 431 q 147 556 301 464 q 44 733 44 618 l 44 746 z "},"¨":{"ha":486,"x_min":60,"x_max":428,"o":"m 355 879 q 318 879 355 879 q 282 948 282 879 q 355 1017 282 1017 q 428 948 428 1017 q 355 879 428 879 m 204 948 q 204 914 204 948 q 132 879 204 879 q 60 948 60 879 q 132 1017 60 1017 q 204 948 204 1017 z "},"©":{"ha":975,"x_min":53,"x_max":921,"o":"m 743 222 q 781 324 772 272 q 790 444 790 376 q 789 543 790 511 q 781 615 788 575 q 762 678 774 654 q 728 728 750 703 q 674 767 706 754 q 501 799 599 799 q 347 781 404 799 q 257 738 289 764 q 208 664 225 711 q 188 574 192 617 q 183 461 183 531 q 188 349 183 392 q 209 258 192 306 q 258 183 226 210 q 488 124 333 124 q 743 222 686 124 m 314 544 q 501 711 314 711 q 607 697 572 711 l 607 588 q 503 599 546 599 q 449 585 461 599 q 438 542 438 571 l 438 383 q 449 340 438 354 q 507 326 461 326 q 608 336 553 326 l 608 228 q 501 214 539 214 q 314 381 314 214 l 314 544 m 136 131 q 72 274 90 196 q 53 460 53 353 q 72 647 53 568 q 139 792 92 726 q 488 924 232 924 q 794 839 692 924 q 911 614 888 763 q 921 451 921 547 q 901 276 921 356 q 836 133 882 197 q 488 0 740 0 q 136 131 232 0 z "},"ª":{"ha":464,"x_min":49,"x_max":422,"o":"m 163 589 l 163 556 q 177 509 163 524 q 235 494 192 494 q 307 518 279 494 l 307 683 l 229 661 q 163 589 163 642 m 231 1033 q 422 881 422 1033 l 422 396 l 307 396 l 307 447 q 193 401 268 401 q 49 554 49 401 l 49 600 q 87 697 49 663 q 207 757 125 732 l 307 785 l 307 879 q 230 929 307 929 q 75 908 153 929 l 75 1013 q 231 1033 139 1033 z "},"«":{"ha":818,"x_min":83,"x_max":732,"o":"m 251 701 l 429 701 l 260 447 l 429 193 l 251 193 l 83 447 l 251 701 m 554 701 l 732 701 l 563 447 l 732 193 l 554 193 l 386 447 l 554 701 z "},"¬":{"ha":708,"x_min":71,"x_max":636,"o":"m 71 547 l 636 547 l 636 238 l 457 238 l 457 390 l 71 390 l 71 547 z "},"­":{"ha":400,"x_min":57,"x_max":351,"o":"m 57 535 l 351 535 l 351 382 l 57 382 l 57 535 z "},"®":{"ha":803,"x_min":122,"x_max":744,"o":"m 122 729 q 122 810 122 729 q 190 976 122 892 q 434 1061 257 1061 q 678 978 611 1061 q 744 731 744 894 q 678 483 744 568 q 434 399 611 399 q 190 483 257 399 q 122 729 122 567 m 241 547 q 252 528 241 547 q 310 494 263 510 q 426 478 357 478 q 538 490 496 478 q 605 522 581 503 q 642 575 629 540 q 661 708 661 631 q 658 818 661 785 q 643 887 656 851 q 606 942 631 922 q 433 983 551 983 q 308 967 356 983 q 240 913 261 951 q 213 837 218 875 q 207 730 207 799 q 213 622 207 661 q 241 547 219 583 m 317 924 l 429 924 q 567 803 567 924 q 519 699 567 731 l 582 542 l 493 542 l 446 678 l 399 678 l 399 542 l 317 542 l 317 924 m 399 746 l 421 746 q 472 757 458 746 q 486 802 486 768 q 473 846 486 836 q 429 856 460 856 l 399 856 l 399 746 z "},"¯":{"ha":486,"x_min":67,"x_max":419,"o":"m 67 996 l 419 996 l 419 901 l 67 901 l 67 996 z "},"°":{"ha":583,"x_min":63,"x_max":522,"o":"m 376 926 q 292 1031 376 1031 q 226 1004 244 1031 q 208 926 208 978 q 226 848 208 874 q 292 822 244 822 q 358 849 339 822 q 376 926 376 875 m 118 753 q 90 785 118 753 q 63 926 63 817 q 118 1100 63 1036 q 292 1164 174 1164 q 466 1100 410 1164 q 522 926 522 1036 q 466 753 522 817 q 292 689 410 689 q 118 753 174 689 z "},"±":{"ha":667,"x_min":63,"x_max":615,"o":"m 63 17 l 63 168 l 614 168 l 615 17 l 63 17 m 256 235 l 256 382 l 63 382 l 63 535 l 256 535 l 256 682 l 419 682 l 419 535 l 614 535 l 614 382 l 419 382 l 419 235 l 256 235 z "},"²":{"ha":414,"x_min":46,"x_max":378,"o":"m 210 1033 q 378 883 378 1033 l 378 826 q 311 697 378 743 l 217 628 q 170 588 179 601 q 161 542 161 574 l 161 507 l 376 507 l 376 401 l 46 401 l 46 549 q 64 633 46 603 q 125 694 82 664 l 228 767 q 258 799 251 783 q 264 844 264 814 l 264 881 q 251 917 264 906 q 186 929 239 929 q 60 913 133 929 l 60 1018 q 210 1033 114 1033 z "},"³":{"ha":408,"x_min":38,"x_max":357,"o":"m 189 1033 q 357 885 357 1033 l 357 819 q 308 718 357 746 q 357 615 357 690 l 357 544 q 188 394 357 394 q 38 411 97 394 l 38 517 q 163 499 110 499 q 230 510 217 499 q 243 549 243 522 l 243 615 q 233 651 243 639 q 190 664 222 664 l 124 664 l 124 769 l 190 769 q 233 783 222 769 q 243 819 243 796 l 243 881 q 230 917 243 906 q 163 929 217 929 q 42 913 108 929 l 42 1018 q 189 1033 88 1033 z "},"´":{"ha":486,"x_min":146,"x_max":340,"o":"m 206 1026 l 340 1026 l 242 869 l 146 869 l 206 1026 z "},"µ":{"ha":642,"x_min":65,"x_max":569,"o":"m 403 38 q 244 6 319 -8 l 244 -207 l 65 -207 l 65 811 l 244 811 l 244 169 q 303 160 264 160 q 393 185 343 160 l 393 811 l 569 811 l 569 0 l 403 0 l 403 38 z "},"¶":{"ha":619,"x_min":82,"x_max":536,"o":"m 319 954 l 536 954 l 536 0 l 357 0 l 357 532 l 319 532 q 144 587 207 532 q 82 743 82 642 q 144 899 82 844 q 319 954 207 954 z "},"·":{"ha":369,"x_min":93,"x_max":275,"o":"m 184 389 q 139 389 184 389 q 93 480 93 389 q 184 571 93 571 q 275 480 275 571 q 184 389 275 389 z "},"¸":{"ha":486,"x_min":139,"x_max":346,"o":"m 261 -54 q 319 -80 293 -57 q 346 -151 346 -103 q 308 -231 346 -200 q 223 -261 271 -261 q 139 -253 175 -261 l 139 -172 q 190 -179 157 -179 q 242 -142 242 -179 q 189 -104 242 -104 l 172 -104 l 197 8 l 275 8 l 261 -54 z "},"¹":{"ha":300,"x_min":17,"x_max":244,"o":"m 244 1025 l 244 400 l 131 400 l 131 900 l 17 817 l 17 944 l 128 1025 l 244 1025 z "},"º":{"ha":451,"x_min":60,"x_max":421,"o":"m 306 882 q 240 929 306 929 q 175 882 175 929 l 175 550 q 240 501 175 501 q 306 550 306 501 l 306 882 m 60 878 q 240 1036 60 1036 q 421 878 421 1036 l 421 553 q 240 394 421 394 q 60 553 60 394 l 60 878 z "},"»":{"ha":815,"x_min":71,"x_max":718,"o":"m 71 701 l 247 701 l 415 447 l 247 193 l 71 193 l 240 447 l 71 701 m 372 701 l 550 701 l 718 447 l 550 193 l 372 193 l 542 447 l 372 701 z "},"¼":{"ha":1135,"x_min":56,"x_max":1063,"o":"m 729 954 l 844 954 l 313 0 l 197 0 l 729 954 m 888 217 l 888 528 l 763 217 l 888 217 m 1000 625 l 1000 217 l 1063 217 l 1063 114 l 1000 114 l 1000 0 l 888 0 l 888 114 l 657 114 l 657 221 l 824 625 l 1000 625 m 283 954 l 283 329 l 169 329 l 169 829 l 56 746 l 56 874 l 165 954 l 283 954 z "},"½":{"ha":1143,"x_min":56,"x_max":1051,"o":"m 729 954 l 844 954 l 313 0 l 199 0 l 729 954 m 283 954 l 283 329 l 169 329 l 169 829 l 56 746 l 56 874 l 167 954 l 283 954 m 883 632 q 1051 482 1051 632 l 1051 425 q 985 296 1051 342 l 890 226 q 844 186 853 200 q 835 140 835 172 l 835 106 l 1050 106 l 1050 0 l 719 0 l 719 147 q 738 232 719 201 q 799 293 756 263 l 901 365 q 931 397 925 382 q 938 443 938 413 l 938 479 q 925 516 938 504 q 860 528 913 528 q 733 511 807 528 l 733 617 q 883 632 788 632 z "},"¾":{"ha":1172,"x_min":56,"x_max":1100,"o":"m 206 963 q 375 814 375 963 l 375 747 q 326 646 375 674 q 375 543 375 618 l 375 474 q 206 324 375 324 q 56 339 111 324 l 56 444 q 183 428 131 428 q 248 440 235 428 q 261 476 261 451 l 261 543 q 251 580 261 568 q 208 592 240 592 l 142 592 l 142 697 l 208 697 q 251 710 240 697 q 261 747 261 724 l 261 808 q 248 847 261 835 q 185 858 235 858 q 60 842 136 858 l 60 947 q 206 963 117 963 m 774 954 l 889 954 l 357 0 l 242 0 l 774 954 m 925 217 l 925 528 l 800 217 l 925 217 m 1039 625 l 1039 217 l 1100 217 l 1100 114 l 1039 114 l 1039 0 l 925 0 l 925 114 l 694 114 l 694 221 l 861 625 l 1039 625 z "},"¿":{"ha":571,"x_min":39,"x_max":507,"o":"m 332 825 q 382 825 332 825 q 432 729 432 825 q 332 633 432 633 q 232 729 232 633 q 332 825 232 825 m 324 -156 q 39 67 39 -156 l 39 190 q 88 354 39 299 q 251 410 136 410 l 261 524 l 407 524 l 415 278 l 335 278 q 239 257 267 278 q 211 186 211 236 l 211 85 q 233 24 211 43 q 344 6 256 6 q 507 38 432 6 l 507 -131 q 324 -156 424 -156 z "},"À":{"ha":658,"x_min":11,"x_max":647,"o":"m 478 0 l 433 233 l 225 233 l 182 0 l 11 0 l 207 954 l 454 954 l 647 0 l 478 0 m 251 383 l 404 383 l 326 794 l 251 383 m 374 1008 l 278 1008 l 179 1165 l 314 1165 l 374 1008 z "},"Á":{"ha":658,"x_min":11,"x_max":647,"o":"m 478 0 l 433 233 l 225 233 l 182 0 l 11 0 l 207 954 l 454 954 l 647 0 l 478 0 m 251 383 l 404 383 l 326 794 l 251 383 m 468 1165 l 369 1008 l 274 1008 l 333 1165 l 468 1165 z "},"Â":{"ha":658,"x_min":11,"x_max":647,"o":"m 478 0 l 433 233 l 225 233 l 182 0 l 11 0 l 207 954 l 454 954 l 647 0 l 478 0 m 251 383 l 404 383 l 326 794 l 251 383 m 335 1086 l 279 1008 l 190 1008 l 269 1165 l 399 1165 l 478 1008 l 389 1008 l 335 1086 z "},"Ã":{"ha":658,"x_min":11,"x_max":647,"o":"m 478 0 l 433 233 l 225 233 l 182 0 l 11 0 l 207 954 l 454 954 l 647 0 l 478 0 m 251 383 l 404 383 l 326 794 l 251 383 m 228 1021 l 228 1014 l 131 1014 l 131 1021 q 159 1120 131 1083 q 236 1157 188 1157 q 331 1130 285 1157 q 390 1103 378 1103 q 421 1151 421 1103 l 421 1160 l 518 1160 l 518 1149 q 489 1051 518 1086 q 413 1015 460 1015 q 319 1042 367 1015 q 258 1069 272 1069 q 228 1021 228 1069 z "},"Ä":{"ha":658,"x_min":11,"x_max":647,"o":"m 478 0 l 433 233 l 225 233 l 182 0 l 11 0 l 207 954 l 454 954 l 647 0 l 478 0 m 251 383 l 404 383 l 326 794 l 251 383 m 288 1087 q 288 1052 288 1087 q 215 1018 288 1018 q 143 1087 143 1018 q 215 1156 143 1156 q 288 1087 288 1156 m 511 1087 q 511 1052 511 1087 q 438 1018 511 1018 q 365 1087 365 1018 q 438 1156 365 1156 q 511 1087 511 1156 z "},"Å":{"ha":658,"x_min":11,"x_max":647,"o":"m 478 0 l 433 233 l 225 233 l 182 0 l 11 0 l 207 954 l 454 954 l 647 0 l 478 0 m 251 383 l 404 383 l 326 794 l 251 383 m 436 1087 q 436 1064 436 1087 q 408 1010 436 1040 q 327 979 379 979 q 246 1010 275 979 q 217 1087 217 1040 q 246 1163 217 1133 q 327 1193 275 1193 q 408 1163 379 1193 q 436 1087 436 1133 m 356 1117 q 350 1123 356 1117 q 326 1129 344 1129 q 297 1117 308 1129 q 285 1088 285 1106 q 326 1043 285 1043 q 368 1088 368 1043 q 356 1117 368 1106 z "},"Æ":{"ha":981,"x_min":3,"x_max":946,"o":"m 946 800 l 658 800 l 658 560 l 907 560 l 907 406 l 658 406 l 658 153 l 946 153 l 946 0 l 493 0 l 493 233 l 265 233 l 176 0 l 3 0 l 388 954 l 946 954 l 946 800 m 493 383 l 493 833 l 322 383 l 493 383 z "},"Ç":{"ha":565,"x_min":58,"x_max":525,"o":"m 344 -54 q 403 -80 376 -57 q 429 -151 429 -103 q 392 -231 429 -200 q 306 -261 354 -261 q 222 -253 258 -261 l 222 -172 q 274 -179 240 -179 q 325 -142 325 -179 q 272 -104 325 -104 l 256 -104 l 278 -3 q 58 215 58 24 l 58 738 q 131 902 58 843 q 350 961 204 961 q 521 940 446 961 l 521 778 q 367 801 446 801 q 263 781 289 801 q 236 721 236 761 l 236 232 q 347 153 236 153 q 525 174 458 153 l 525 14 q 356 -7 453 -7 l 344 -54 z "},"È":{"ha":575,"x_min":72,"x_max":536,"o":"m 160 1165 l 294 1165 l 354 1008 l 258 1008 l 160 1165 m 72 954 l 536 954 l 536 800 l 249 800 l 249 560 l 497 560 l 497 406 l 249 406 l 249 153 l 536 153 l 536 0 l 72 0 l 72 954 z "},"É":{"ha":575,"x_min":72,"x_max":536,"o":"m 72 954 l 536 954 l 536 800 l 249 800 l 249 560 l 497 560 l 497 406 l 249 406 l 249 153 l 536 153 l 536 0 l 72 0 l 72 954 m 311 1165 l 446 1165 l 347 1008 l 251 1008 l 311 1165 z "},"Ê":{"ha":575,"x_min":72,"x_max":536,"o":"m 536 800 l 249 800 l 249 560 l 497 560 l 497 406 l 249 406 l 249 153 l 536 153 l 536 0 l 72 0 l 72 954 l 536 954 l 536 800 m 296 1086 l 240 1008 l 151 1008 l 231 1165 l 360 1165 l 439 1008 l 350 1008 l 296 1086 z "},"Ë":{"ha":575,"x_min":72,"x_max":536,"o":"m 72 954 l 536 954 l 536 800 l 249 800 l 249 560 l 497 560 l 497 406 l 249 406 l 249 153 l 536 153 l 536 0 l 72 0 l 72 954 m 417 1018 q 381 1018 417 1018 q 344 1087 344 1018 q 417 1156 344 1156 q 490 1087 490 1156 q 417 1018 490 1018 m 267 1087 q 267 1052 267 1087 q 194 1018 267 1018 q 122 1087 122 1018 q 194 1156 122 1156 q 267 1087 267 1156 z "},"Ì":{"ha":575,"x_min":72,"x_max":536,"o":"m 157 1165 l 292 1165 l 351 1008 l 256 1008 l 157 1165 m 72 954 l 536 954 l 536 800 l 249 800 l 249 560 l 497 560 l 497 406 l 249 406 l 249 153 l 536 153 l 536 0 l 72 0 l 72 954 z "},"Í":{"ha":575,"x_min":72,"x_max":536,"o":"m 72 954 l 536 954 l 536 800 l 249 800 l 249 560 l 497 560 l 497 406 l 249 406 l 249 153 l 536 153 l 536 0 l 72 0 l 72 954 m 313 1165 l 447 1165 l 349 1008 l 253 1008 l 313 1165 z "},"Î":{"ha":322,"x_min":19,"x_max":307,"o":"m 72 0 l 72 954 l 250 954 l 250 0 l 72 0 m 164 1086 l 108 1008 l 19 1008 l 99 1165 l 228 1165 l 307 1008 l 218 1008 l 164 1086 z "},"Ï":{"ha":322,"x_min":-24,"x_max":344,"o":"m 272 1018 q 235 1018 272 1018 q 199 1087 199 1018 q 272 1156 199 1156 q 344 1087 344 1156 q 272 1018 344 1018 m 121 1087 q 121 1052 121 1087 q 49 1018 121 1018 q -24 1087 -24 1018 q 49 1156 -24 1156 q 121 1087 121 1156 m 72 954 l 250 954 l 250 0 l 72 0 l 72 954 z "},"Ð":{"ha":681,"x_min":-10,"x_max":626,"o":"m 83 954 l 394 954 q 566 899 506 954 q 626 742 626 844 l 626 222 q 404 0 626 0 l 83 0 l 83 396 l -10 396 l -10 543 l 83 543 l 83 954 m 450 235 l 450 735 q 371 808 450 808 l 260 808 l 260 543 l 358 543 l 358 396 l 260 396 l 260 153 l 371 153 q 450 235 450 153 z "},"Ñ":{"ha":726,"x_min":72,"x_max":654,"o":"m 468 1160 l 565 1160 l 565 1149 q 536 1051 565 1086 q 460 1015 507 1015 q 367 1042 414 1015 q 306 1069 319 1069 q 275 1021 275 1069 l 275 1014 l 178 1014 l 178 1021 q 206 1120 178 1083 q 283 1157 235 1157 q 378 1130 332 1157 q 438 1103 425 1103 q 468 1151 468 1103 l 468 1160 m 479 954 l 654 954 l 654 0 l 479 0 q 245 609 271 531 q 218 690 219 688 q 223 656 218 688 q 233 586 228 625 q 246 318 246 478 l 246 0 l 72 0 l 72 954 l 251 954 q 479 356 453 440 q 507 269 506 272 q 500 319 507 272 q 479 646 479 458 l 479 954 z "},"Ò":{"ha":667,"x_min":58,"x_max":608,"o":"m 182 1165 l 317 1165 l 376 1008 l 281 1008 l 182 1165 m 432 719 q 333 807 432 807 q 235 719 235 807 l 235 235 q 333 147 235 147 q 432 235 432 147 l 432 719 m 58 728 q 128 903 58 838 q 332 968 197 968 q 538 903 467 968 q 608 728 608 838 l 608 226 q 538 51 608 117 q 332 -14 467 -14 q 128 51 197 -14 q 58 226 58 117 l 58 728 z "},"Ó":{"ha":667,"x_min":58,"x_max":608,"o":"m 432 719 q 333 807 432 807 q 235 719 235 807 l 235 235 q 333 147 235 147 q 432 235 432 147 l 432 719 m 58 728 q 128 903 58 838 q 332 968 197 968 q 538 903 467 968 q 608 728 608 838 l 608 226 q 538 51 608 117 q 332 -14 467 -14 q 128 51 197 -14 q 58 226 58 117 l 58 728 m 353 1165 l 488 1165 l 389 1008 l 293 1008 l 353 1165 z "},"Ô":{"ha":667,"x_min":58,"x_max":608,"o":"m 58 226 l 58 728 q 128 903 58 838 q 332 968 197 968 q 538 903 467 968 q 608 728 608 838 l 608 226 q 538 51 608 117 q 332 -14 467 -14 q 128 51 197 -14 q 58 226 58 117 m 432 235 l 432 719 q 333 807 432 807 q 235 719 235 807 l 235 235 q 333 147 235 147 q 432 235 432 147 m 335 1086 l 279 1008 l 190 1008 l 269 1165 l 399 1165 l 478 1008 l 389 1008 l 335 1086 z "},"Õ":{"ha":667,"x_min":58,"x_max":608,"o":"m 426 1160 l 524 1160 l 524 1149 q 494 1051 524 1086 q 419 1015 465 1015 q 325 1042 372 1015 q 264 1069 278 1069 q 233 1021 233 1069 l 233 1014 l 136 1014 l 136 1021 q 165 1120 136 1083 q 242 1157 193 1157 q 337 1130 290 1157 q 396 1103 383 1103 q 426 1151 426 1103 l 426 1160 m 432 719 q 333 807 432 807 q 235 719 235 807 l 235 235 q 333 147 235 147 q 432 235 432 147 l 432 719 m 58 728 q 128 903 58 838 q 332 968 197 968 q 538 903 467 968 q 608 728 608 838 l 608 226 q 538 51 608 117 q 332 -14 467 -14 q 128 51 197 -14 q 58 226 58 117 l 58 728 z "},"Ö":{"ha":667,"x_min":58,"x_max":608,"o":"m 432 719 q 333 807 432 807 q 235 719 235 807 l 235 235 q 333 147 235 147 q 432 235 432 147 l 432 719 m 58 728 q 128 903 58 838 q 332 968 197 968 q 538 903 467 968 q 608 728 608 838 l 608 226 q 538 51 608 117 q 332 -14 467 -14 q 128 51 197 -14 q 58 226 58 117 l 58 728 m 444 1018 q 407 1018 444 1018 q 371 1087 371 1018 q 444 1156 371 1156 q 517 1087 517 1156 q 444 1018 517 1018 m 293 1087 q 293 1052 293 1087 q 221 1018 293 1018 q 149 1087 149 1018 q 221 1156 149 1156 q 293 1087 293 1156 z "},"×":{"ha":638,"x_min":54,"x_max":581,"o":"m 581 304 l 474 197 l 318 354 l 161 197 l 54 304 l 211 461 l 56 615 l 163 722 l 318 568 l 472 722 l 579 615 l 425 461 l 581 304 z "},"Ø":{"ha":667,"x_min":53,"x_max":614,"o":"m 608 728 l 608 226 q 538 51 608 117 q 332 -14 467 -14 q 172 21 238 -14 l 163 0 l 53 0 l 96 90 q 58 226 58 147 l 58 728 q 128 903 58 838 q 332 968 197 968 q 493 933 428 968 l 503 954 l 614 954 l 571 864 q 608 728 608 808 m 235 719 l 235 386 l 417 772 q 332 807 393 807 q 235 719 235 807 m 432 235 l 432 569 l 249 182 q 332 147 271 147 q 432 235 432 147 z "},"Ù":{"ha":675,"x_min":65,"x_max":611,"o":"m 193 1165 l 328 1165 l 388 1008 l 292 1008 l 193 1165 m 435 954 l 611 954 l 611 226 q 542 51 611 117 q 338 -14 472 -14 q 134 51 203 -14 q 65 226 65 117 l 65 954 l 242 954 l 242 235 q 338 147 242 147 q 435 235 435 147 l 435 954 z "},"Ú":{"ha":675,"x_min":65,"x_max":611,"o":"m 435 954 l 611 954 l 611 226 q 542 51 611 117 q 338 -14 472 -14 q 134 51 203 -14 q 65 226 65 117 l 65 954 l 242 954 l 242 235 q 338 147 242 147 q 435 235 435 147 l 435 954 m 349 1165 l 483 1165 l 385 1008 l 289 1008 l 349 1165 z "},"Û":{"ha":675,"x_min":65,"x_max":611,"o":"m 435 954 l 611 954 l 611 226 q 542 51 611 117 q 338 -14 472 -14 q 134 51 203 -14 q 65 226 65 117 l 65 954 l 242 954 l 242 235 q 338 147 242 147 q 435 235 435 147 l 435 954 m 338 1086 l 282 1008 l 193 1008 l 272 1165 l 401 1165 l 481 1008 l 392 1008 l 338 1086 z "},"Ü":{"ha":675,"x_min":65,"x_max":611,"o":"m 435 954 l 611 954 l 611 226 q 542 51 611 117 q 338 -14 472 -14 q 134 51 203 -14 q 65 226 65 117 l 65 954 l 242 954 l 242 235 q 338 147 242 147 q 435 235 435 147 l 435 954 m 448 1018 q 411 1018 448 1018 q 375 1087 375 1018 q 448 1156 375 1156 q 521 1087 521 1156 q 448 1018 521 1018 m 297 1087 q 297 1052 297 1087 q 225 1018 297 1018 q 153 1087 153 1018 q 225 1156 153 1156 q 297 1087 297 1156 z "},"Ý":{"ha":640,"x_min":1,"x_max":639,"o":"m 329 1167 l 464 1167 l 365 1010 l 269 1010 l 329 1167 m 410 0 l 231 0 l 231 303 l 1 954 l 183 954 l 243 776 q 322 490 294 617 q 403 779 350 611 l 461 954 l 639 954 l 410 303 l 410 0 z "},"Þ":{"ha":619,"x_min":86,"x_max":599,"o":"m 256 804 l 361 804 q 536 749 474 804 q 599 590 599 693 l 599 364 q 536 206 599 261 q 361 151 474 151 l 256 151 l 256 0 l 86 0 l 86 954 l 256 954 l 256 804 m 429 381 l 429 574 q 347 653 429 653 l 256 653 l 256 303 l 347 303 q 429 381 429 303 z "},"ß":{"ha":778,"x_min":72,"x_max":751,"o":"m 72 736 q 144 936 72 867 q 349 1006 217 1006 q 557 942 482 1006 q 632 767 632 879 q 571 590 632 688 q 550 536 550 557 l 550 521 q 573 474 550 497 q 649 414 596 451 q 751 249 751 342 l 751 206 q 482 -4 751 -4 q 326 14 404 -4 l 326 172 q 459 150 385 150 q 558 167 533 150 q 582 219 582 183 l 582 235 q 559 284 582 261 q 485 343 536 307 q 371 503 371 421 l 371 528 q 414 646 371 574 q 457 758 457 718 q 354 850 457 850 q 267 819 294 850 q 239 722 239 789 l 239 0 l 72 0 l 72 736 z "},"à":{"ha":603,"x_min":32,"x_max":538,"o":"m 147 1026 l 282 1026 l 342 869 l 246 869 l 147 1026 m 206 233 l 206 194 q 272 129 206 129 q 367 156 328 129 l 367 350 l 275 326 q 219 295 232 314 q 206 233 206 276 m 74 792 q 284 818 150 818 q 478 760 418 818 q 538 583 538 701 l 538 0 l 371 0 l 371 58 q 222 -3 321 -3 q 77 45 122 -3 q 32 194 32 93 l 32 242 q 72 378 32 329 q 204 451 113 426 l 368 494 l 368 583 q 344 644 367 626 q 235 663 321 663 q 74 633 150 663 l 74 792 z "},"á":{"ha":603,"x_min":32,"x_max":538,"o":"m 297 1026 l 432 1026 l 333 869 l 238 869 l 297 1026 m 206 233 l 206 194 q 272 129 206 129 q 367 156 328 129 l 367 350 l 275 326 q 219 295 232 314 q 206 233 206 276 m 74 792 q 284 818 150 818 q 478 760 418 818 q 538 583 538 701 l 538 0 l 371 0 l 371 58 q 222 -3 321 -3 q 77 45 122 -3 q 32 194 32 93 l 32 242 q 72 378 32 329 q 204 451 113 426 l 368 494 l 368 583 q 344 644 367 626 q 235 663 321 663 q 74 633 150 663 l 74 792 z "},"â":{"ha":603,"x_min":32,"x_max":538,"o":"m 74 792 q 284 818 150 818 q 478 760 418 818 q 538 583 538 701 l 538 0 l 371 0 l 371 58 q 222 -3 321 -3 q 77 45 122 -3 q 32 194 32 93 l 32 242 q 72 378 32 329 q 204 451 113 426 l 368 494 l 368 583 q 344 644 367 626 q 235 663 321 663 q 74 633 150 663 l 74 792 m 206 233 l 206 194 q 272 129 206 129 q 367 156 328 129 l 367 350 l 275 326 q 219 295 232 314 q 206 233 206 276 m 299 947 l 243 869 l 154 869 l 233 1026 l 363 1026 l 442 869 l 353 869 l 299 947 z "},"ã":{"ha":603,"x_min":32,"x_max":538,"o":"m 390 1021 l 488 1021 l 488 1010 q 458 912 488 947 q 383 876 429 876 q 289 903 336 876 q 228 931 242 931 q 197 882 197 931 l 197 875 l 100 875 l 100 882 q 128 981 100 944 q 206 1018 157 1018 q 301 991 254 1018 q 360 964 347 964 q 390 1013 390 964 l 390 1021 m 206 233 l 206 194 q 272 129 206 129 q 367 156 328 129 l 367 350 l 275 326 q 219 295 232 314 q 206 233 206 276 m 74 792 q 284 818 150 818 q 478 760 418 818 q 538 583 538 701 l 538 0 l 371 0 l 371 58 q 222 -3 321 -3 q 77 45 122 -3 q 32 194 32 93 l 32 242 q 72 378 32 329 q 204 451 113 426 l 368 494 l 368 583 q 344 644 367 626 q 235 663 321 663 q 74 633 150 663 l 74 792 z "},"ä":{"ha":603,"x_min":32,"x_max":538,"o":"m 403 879 q 367 879 403 879 q 331 948 331 879 q 403 1017 331 1017 q 476 948 476 1017 q 403 879 476 879 m 253 948 q 253 914 253 948 q 181 879 253 879 q 108 948 108 879 q 181 1017 108 1017 q 253 948 253 1017 m 206 233 l 206 194 q 272 129 206 129 q 367 156 328 129 l 367 350 l 275 326 q 219 295 232 314 q 206 233 206 276 m 74 792 q 284 818 150 818 q 478 760 418 818 q 538 583 538 701 l 538 0 l 371 0 l 371 58 q 222 -3 321 -3 q 77 45 122 -3 q 32 194 32 93 l 32 242 q 72 378 32 329 q 204 451 113 426 l 368 494 l 368 583 q 344 644 367 626 q 235 663 321 663 q 74 633 150 663 l 74 792 z "},"å":{"ha":603,"x_min":32,"x_max":538,"o":"m 332 949 q 320 978 332 967 q 290 990 308 990 q 260 978 272 990 q 249 949 249 967 q 290 904 249 904 q 332 949 332 904 m 291 840 q 265 840 291 840 q 210 871 239 840 q 181 948 181 901 q 210 1024 181 994 q 291 1054 239 1054 q 372 1024 343 1054 q 400 948 400 994 q 372 871 400 901 q 291 840 343 840 m 206 233 l 206 194 q 272 129 206 129 q 367 156 328 129 l 367 350 l 275 326 q 219 295 232 314 q 206 233 206 276 m 74 792 q 284 818 150 818 q 478 760 418 818 q 538 583 538 701 l 538 0 l 371 0 l 371 58 q 222 -3 321 -3 q 77 45 122 -3 q 32 194 32 93 l 32 242 q 72 378 32 329 q 204 451 113 426 l 368 494 l 368 583 q 344 644 367 626 q 235 663 321 663 q 74 633 150 663 l 74 792 z "},"æ":{"ha":907,"x_min":38,"x_max":864,"o":"m 699 601 q 617 676 699 676 q 535 601 535 676 l 535 471 l 699 471 l 699 601 m 206 233 l 206 194 q 272 129 206 129 q 369 156 329 129 l 369 353 l 275 326 q 219 296 232 315 q 206 233 206 276 m 618 825 q 864 603 864 825 l 864 333 l 535 333 l 535 238 q 565 167 535 188 q 671 147 596 147 q 843 174 746 147 l 843 17 q 631 -8 743 -8 q 449 42 518 -8 q 243 -6 378 -6 q 38 193 38 -6 l 38 242 q 76 377 38 329 q 204 453 115 425 l 367 503 l 365 593 q 342 644 365 626 q 237 663 319 663 q 74 632 154 663 l 74 789 q 268 818 150 818 q 446 775 386 818 q 618 825 513 825 z "},"ç":{"ha":519,"x_min":58,"x_max":486,"o":"m 318 -54 q 376 -80 350 -57 q 403 -151 403 -103 q 365 -231 403 -200 q 280 -261 328 -261 q 196 -253 232 -261 l 196 -172 q 247 -179 214 -179 q 299 -142 299 -179 q 246 -104 299 -104 l 229 -104 l 251 -3 q 58 222 58 26 l 58 589 q 319 818 58 818 q 485 797 415 818 l 485 635 q 348 656 408 656 q 262 638 288 656 q 236 575 236 619 l 236 236 q 261 174 236 192 q 351 156 286 156 q 486 178 417 156 l 486 14 q 329 -7 417 -7 l 318 -54 z "},"è":{"ha":601,"x_min":58,"x_max":556,"o":"m 58 224 l 58 603 q 121 766 58 707 q 310 825 183 825 q 556 603 556 825 l 556 333 l 229 333 l 229 238 q 257 168 229 189 q 361 147 285 147 q 535 174 438 147 l 535 17 q 339 -8 438 -8 q 58 224 58 -8 m 229 471 l 392 471 l 392 601 q 310 676 392 676 q 229 601 229 676 l 229 471 m 360 869 l 264 869 l 165 1026 l 300 1026 l 360 869 z "},"é":{"ha":601,"x_min":58,"x_max":556,"o":"m 58 224 l 58 603 q 121 766 58 707 q 310 825 183 825 q 556 603 556 825 l 556 333 l 229 333 l 229 238 q 257 168 229 189 q 361 147 285 147 q 535 174 438 147 l 535 17 q 339 -8 438 -8 q 58 224 58 -8 m 229 471 l 392 471 l 392 601 q 310 676 392 676 q 229 601 229 676 l 229 471 m 454 1026 l 356 869 l 260 869 l 319 1026 l 454 1026 z "},"ê":{"ha":601,"x_min":58,"x_max":556,"o":"m 58 224 l 58 603 q 121 766 58 707 q 310 825 183 825 q 556 603 556 825 l 556 333 l 229 333 l 229 238 q 257 168 229 189 q 361 147 285 147 q 535 174 438 147 l 535 17 q 339 -8 438 -8 q 58 224 58 -8 m 229 471 l 392 471 l 392 601 q 310 676 392 676 q 229 601 229 676 l 229 471 m 315 947 l 260 869 l 171 869 l 250 1026 l 379 1026 l 458 869 l 369 869 l 315 947 z "},"ë":{"ha":601,"x_min":58,"x_max":556,"o":"m 58 224 l 58 603 q 121 766 58 707 q 310 825 183 825 q 556 603 556 825 l 556 333 l 229 333 l 229 238 q 257 168 229 189 q 361 147 285 147 q 535 174 438 147 l 535 17 q 339 -8 438 -8 q 58 224 58 -8 m 229 471 l 392 471 l 392 601 q 310 676 392 676 q 229 601 229 676 l 229 471 m 272 948 q 272 914 272 948 q 200 879 272 879 q 128 948 128 879 q 200 1017 128 1017 q 272 948 272 1017 m 496 948 q 496 914 496 948 q 423 879 496 879 q 350 948 350 879 q 423 1017 350 1017 q 496 948 496 1017 z "},"ì":{"ha":322,"x_min":7,"x_max":250,"o":"m 7 1026 l 142 1026 l 201 869 l 106 869 l 7 1026 m 72 793 l 250 793 l 250 0 l 72 0 l 72 793 z "},"í":{"ha":322,"x_min":72,"x_max":304,"o":"m 169 1026 l 304 1026 l 206 869 l 110 869 l 169 1026 m 72 793 l 250 793 l 250 0 l 72 0 l 72 793 z "},"î":{"ha":322,"x_min":18,"x_max":306,"o":"m 72 0 l 72 793 l 250 793 l 250 0 l 72 0 m 163 947 l 107 869 l 18 869 l 97 1026 l 226 1026 l 306 869 l 217 869 l 163 947 z "},"ï":{"ha":322,"x_min":-22,"x_max":346,"o":"m 273 879 q 236 879 273 879 q 200 948 200 879 q 273 1017 200 1017 q 346 948 346 1017 q 273 879 346 879 m 122 948 q 122 914 122 948 q 50 879 122 879 q -22 948 -22 879 q 50 1017 -22 1017 q 122 948 122 1017 m 72 793 l 250 793 l 250 0 l 72 0 l 72 793 z "},"ð":{"ha":629,"x_min":65,"x_max":568,"o":"m 568 429 l 568 217 q 504 51 568 111 q 316 -8 440 -8 q 128 51 192 -8 q 65 215 65 110 l 65 432 q 265 638 65 638 q 376 588 335 638 q 300 761 354 672 l 151 696 l 151 789 l 253 833 q 156 954 224 876 l 358 954 q 401 900 379 932 l 540 961 l 540 867 l 450 826 q 568 429 568 632 m 399 219 l 399 483 q 326 503 379 503 q 253 485 272 503 q 235 426 235 468 l 235 222 q 317 144 235 144 q 399 219 399 144 z "},"ñ":{"ha":639,"x_min":72,"x_max":574,"o":"m 417 1021 l 514 1021 l 514 1010 q 485 912 514 947 q 409 876 456 876 q 315 903 363 876 q 254 931 268 931 q 224 882 224 931 l 224 875 l 126 875 l 126 882 q 155 981 126 944 q 232 1018 183 1018 q 327 991 281 1018 q 386 964 374 964 q 417 1013 417 964 l 417 1021 m 240 775 q 397 815 317 815 q 525 770 476 815 q 574 638 574 725 l 574 0 l 393 0 l 393 597 q 339 651 393 651 q 250 628 292 651 l 250 0 l 72 0 l 72 811 l 240 811 l 240 775 z "},"ò":{"ha":622,"x_min":58,"x_max":564,"o":"m 174 1026 l 308 1026 l 368 869 l 272 869 l 174 1026 m 389 599 q 310 674 389 674 q 232 599 232 674 l 232 213 q 310 138 232 138 q 389 213 389 138 l 389 599 m 58 604 q 122 766 58 707 q 311 825 185 825 q 501 766 438 825 q 564 604 564 707 l 564 207 q 501 45 564 104 q 311 -14 438 -14 q 122 45 185 -14 q 58 207 58 104 l 58 604 z "},"ó":{"ha":622,"x_min":58,"x_max":564,"o":"m 389 599 q 310 674 389 674 q 232 599 232 674 l 232 213 q 310 138 232 138 q 389 213 389 138 l 389 599 m 58 604 q 122 766 58 707 q 311 825 185 825 q 501 766 438 825 q 564 604 564 707 l 564 207 q 501 45 564 104 q 311 -14 438 -14 q 122 45 185 -14 q 58 207 58 104 l 58 604 m 328 1026 l 463 1026 l 364 869 l 268 869 l 328 1026 z "},"ô":{"ha":622,"x_min":58,"x_max":564,"o":"m 58 207 l 58 604 q 122 766 58 707 q 311 825 185 825 q 501 766 438 825 q 564 604 564 707 l 564 207 q 501 45 564 104 q 311 -14 438 -14 q 122 45 185 -14 q 58 207 58 104 m 389 213 l 389 599 q 310 674 389 674 q 232 599 232 674 l 232 213 q 310 138 232 138 q 389 213 389 138 m 315 947 l 260 869 l 171 869 l 250 1026 l 379 1026 l 458 869 l 369 869 l 315 947 z "},"õ":{"ha":622,"x_min":58,"x_max":564,"o":"m 410 1021 l 507 1021 l 507 1010 q 478 912 507 947 q 402 876 449 876 q 308 903 356 876 q 247 931 261 931 q 217 882 217 931 l 217 875 l 119 875 l 119 882 q 148 981 119 944 q 225 1018 176 1018 q 320 991 274 1018 q 379 964 367 964 q 410 1013 410 964 l 410 1021 m 389 599 q 310 674 389 674 q 232 599 232 674 l 232 213 q 310 138 232 138 q 389 213 389 138 l 389 599 m 58 604 q 122 766 58 707 q 311 825 185 825 q 501 766 438 825 q 564 604 564 707 l 564 207 q 501 45 564 104 q 311 -14 438 -14 q 122 45 185 -14 q 58 207 58 104 l 58 604 z "},"ö":{"ha":622,"x_min":58,"x_max":564,"o":"m 389 599 q 310 674 389 674 q 232 599 232 674 l 232 213 q 310 138 232 138 q 389 213 389 138 l 389 599 m 58 604 q 122 766 58 707 q 311 825 185 825 q 501 766 438 825 q 564 604 564 707 l 564 207 q 501 45 564 104 q 311 -14 438 -14 q 122 45 185 -14 q 58 207 58 104 l 58 604 m 428 879 q 392 879 428 879 q 356 948 356 879 q 428 1017 356 1017 q 501 948 501 1017 q 428 879 501 879 m 278 948 q 278 914 278 948 q 206 879 278 879 q 133 948 133 879 q 206 1017 133 1017 q 278 948 278 1017 z "},"÷":{"ha":667,"x_min":57,"x_max":608,"o":"m 333 604 q 287 604 333 604 q 242 695 242 604 q 333 786 242 786 q 424 695 424 786 q 333 604 424 604 m 333 128 q 287 128 333 128 q 242 219 242 128 q 333 310 242 310 q 424 219 424 310 q 333 128 424 128 m 57 532 l 608 532 l 608 381 l 57 381 l 57 532 z "},"ø":{"ha":622,"x_min":40,"x_max":585,"o":"m 564 604 l 564 207 q 501 45 564 104 q 319 -14 438 -14 q 140 31 201 -14 l 122 0 l 40 0 l 89 85 q 58 207 58 133 l 58 604 q 122 766 58 707 q 303 825 185 825 q 485 779 421 825 l 503 811 l 585 811 l 535 724 q 564 604 564 674 m 232 599 l 232 336 l 389 610 q 311 674 382 674 q 232 599 232 674 m 389 213 l 389 468 l 233 194 q 311 138 243 138 q 389 213 389 138 z "},"ù":{"ha":643,"x_min":65,"x_max":571,"o":"m 163 1026 l 297 1026 l 357 869 l 261 869 l 163 1026 m 393 811 l 571 811 l 571 0 l 403 0 l 403 38 q 244 -1 329 -1 q 113 47 160 -1 q 65 186 65 96 l 65 811 l 244 811 l 244 218 q 306 158 244 158 q 393 183 353 158 l 393 811 z "},"ú":{"ha":643,"x_min":65,"x_max":571,"o":"m 393 811 l 571 811 l 571 0 l 403 0 l 403 38 q 244 -1 329 -1 q 113 47 160 -1 q 65 186 65 96 l 65 811 l 244 811 l 244 218 q 306 158 244 158 q 393 183 353 158 l 393 811 m 332 1026 l 467 1026 l 368 869 l 272 869 l 332 1026 z "},"û":{"ha":643,"x_min":65,"x_max":571,"o":"m 393 811 l 571 811 l 571 0 l 403 0 l 403 38 q 244 -1 329 -1 q 113 47 160 -1 q 65 186 65 96 l 65 811 l 244 811 l 244 218 q 306 158 244 158 q 393 183 353 158 l 393 811 m 322 947 l 267 869 l 178 869 l 257 1026 l 386 1026 l 465 869 l 376 869 l 322 947 z "},"ü":{"ha":643,"x_min":65,"x_max":571,"o":"m 393 811 l 571 811 l 571 0 l 403 0 l 403 38 q 244 -1 329 -1 q 113 47 160 -1 q 65 186 65 96 l 65 811 l 244 811 l 244 218 q 306 158 244 158 q 393 183 353 158 l 393 811 m 431 879 q 395 879 431 879 q 358 948 358 879 q 431 1017 358 1017 q 504 948 504 1017 q 431 879 504 879 m 281 948 q 281 914 281 948 q 208 879 281 879 q 136 948 136 879 q 208 1017 136 1017 q 281 948 281 1017 z "},"ý":{"ha":599,"x_min":17,"x_max":581,"o":"m 303 1026 l 438 1026 l 339 869 l 243 869 l 303 1026 m 410 811 l 581 811 l 381 -207 l 208 -207 l 249 0 l 183 0 l 17 811 l 192 811 l 250 518 q 301 138 289 314 q 353 514 315 304 l 410 811 z "},"þ":{"ha":640,"x_min":72,"x_max":579,"o":"m 399 600 q 340 653 399 653 q 250 631 294 653 l 250 158 l 324 158 q 399 226 399 158 l 399 600 m 72 1026 l 249 1026 l 249 779 q 401 815 321 815 q 531 770 482 815 q 579 638 579 725 l 579 206 q 522 51 579 103 q 368 0 464 0 l 250 0 l 250 -225 l 72 -225 l 72 1026 z "},"ÿ":{"ha":599,"x_min":17,"x_max":581,"o":"m 410 811 l 581 811 l 381 -207 l 208 -207 l 249 0 l 183 0 l 17 811 l 192 811 l 250 518 q 301 138 289 314 q 353 514 315 304 l 410 811 m 410 879 q 374 879 410 879 q 338 948 338 879 q 410 1017 338 1017 q 483 948 483 1017 q 410 879 483 879 m 260 948 q 260 914 260 948 q 188 879 260 879 q 115 948 115 879 q 188 1017 115 1017 q 260 948 260 1017 z "},"Ā":{"ha":658,"x_min":11,"x_max":647,"o":"m 478 0 l 433 233 l 225 233 l 182 0 l 11 0 l 207 954 l 454 954 l 647 0 l 478 0 m 251 383 l 404 383 l 326 794 l 251 383 m 503 1135 l 503 1040 l 150 1040 l 150 1135 l 503 1135 z "},"ā":{"ha":603,"x_min":32,"x_max":538,"o":"m 126 996 l 479 996 l 479 901 l 126 901 l 126 996 m 206 233 l 206 194 q 272 129 206 129 q 367 156 328 129 l 367 350 l 275 326 q 219 295 232 314 q 206 233 206 276 m 74 792 q 284 818 150 818 q 478 760 418 818 q 538 583 538 701 l 538 0 l 371 0 l 371 58 q 222 -3 321 -3 q 77 45 122 -3 q 32 194 32 93 l 32 242 q 72 378 32 329 q 204 451 113 426 l 368 494 l 368 583 q 344 644 367 626 q 235 663 321 663 q 74 633 150 663 l 74 792 z "},"Ă":{"ha":658,"x_min":11,"x_max":647,"o":"m 478 0 l 433 233 l 225 233 l 182 0 l 11 0 l 207 954 l 454 954 l 647 0 l 478 0 m 251 383 l 404 383 l 326 794 l 251 383 m 393 1165 l 489 1165 q 443 1052 489 1096 q 326 1008 397 1008 q 209 1052 254 1008 q 164 1165 164 1096 l 260 1165 q 277 1114 260 1133 q 326 1094 294 1094 q 376 1114 358 1094 q 393 1165 393 1133 z "},"ă":{"ha":603,"x_min":32,"x_max":538,"o":"m 361 1026 l 457 1026 q 411 913 457 957 q 294 869 365 869 q 177 913 222 869 q 132 1026 132 957 l 228 1026 q 245 975 228 994 q 294 956 263 956 q 344 975 326 956 q 361 1026 361 994 m 206 233 l 206 194 q 272 129 206 129 q 367 156 328 129 l 367 350 l 275 326 q 219 295 232 314 q 206 233 206 276 m 74 792 q 284 818 150 818 q 478 760 418 818 q 538 583 538 701 l 538 0 l 371 0 l 371 58 q 222 -3 321 -3 q 77 45 122 -3 q 32 194 32 93 l 32 242 q 72 378 32 329 q 204 451 113 426 l 368 494 l 368 583 q 344 644 367 626 q 235 663 321 663 q 74 633 150 663 l 74 792 z "},"Ą":{"ha":658,"x_min":11,"x_max":647,"o":"m 589 -131 q 632 -181 589 -181 l 647 -181 l 647 -268 l 618 -268 q 524 -240 557 -268 q 492 -162 492 -212 q 581 0 492 -74 l 478 0 l 433 233 l 225 233 l 182 0 l 11 0 l 207 954 l 454 954 l 647 0 q 589 -131 589 -56 m 251 383 l 404 383 l 326 794 l 251 383 z "},"ą":{"ha":603,"x_min":32,"x_max":538,"o":"m 74 792 q 284 818 150 818 q 478 760 418 818 q 538 583 538 701 l 538 0 l 535 0 q 476 -131 476 -56 q 519 -181 476 -181 l 535 -181 l 535 -268 l 506 -268 q 412 -240 444 -268 q 379 -162 379 -212 q 468 0 379 -74 l 371 0 l 371 58 q 222 -3 321 -3 q 77 45 122 -3 q 32 194 32 93 l 32 242 q 72 378 32 329 q 204 451 113 426 l 368 494 l 368 583 q 344 644 367 626 q 235 663 321 663 q 74 633 150 663 l 74 792 m 206 233 l 206 194 q 272 129 206 129 q 367 156 328 129 l 367 350 l 275 326 q 219 295 232 314 q 206 233 206 276 z "},"Ć":{"ha":565,"x_min":58,"x_max":525,"o":"m 58 738 q 131 902 58 843 q 350 961 204 961 q 521 940 446 961 l 521 778 q 367 801 446 801 q 263 781 289 801 q 236 721 236 761 l 236 232 q 347 153 236 153 q 525 174 458 153 l 525 14 q 349 -7 450 -7 q 58 215 58 -7 l 58 738 m 346 1165 l 481 1165 l 382 1008 l 286 1008 l 346 1165 z "},"ć":{"ha":519,"x_min":58,"x_max":486,"o":"m 58 589 q 319 818 58 818 q 485 797 415 818 l 485 635 q 348 656 408 656 q 262 638 288 656 q 236 575 236 619 l 236 236 q 261 174 236 192 q 351 156 286 156 q 486 178 417 156 l 486 14 q 319 -7 414 -7 q 58 222 58 -7 l 58 589 m 326 1026 l 461 1026 l 363 869 l 267 869 l 326 1026 z "},"Č":{"ha":565,"x_min":58,"x_max":525,"o":"m 236 721 l 236 232 q 347 153 236 153 q 525 174 458 153 l 525 14 q 349 -7 450 -7 q 58 215 58 -7 l 58 738 q 131 902 58 843 q 350 961 204 961 q 521 940 446 961 l 521 778 q 367 801 446 801 q 263 781 289 801 q 236 721 236 761 m 267 1008 l 188 1165 l 276 1165 l 332 1088 l 386 1165 l 475 1165 l 396 1008 l 267 1008 z "},"č":{"ha":519,"x_min":58,"x_max":486,"o":"m 236 575 l 236 236 q 261 174 236 192 q 351 156 286 156 q 486 178 417 156 l 486 14 q 319 -7 414 -7 q 58 222 58 -7 l 58 589 q 319 818 58 818 q 485 797 415 818 l 485 635 q 348 656 408 656 q 262 638 288 656 q 236 575 236 619 m 250 869 l 171 1026 l 260 1026 l 315 949 l 369 1026 l 458 1026 l 379 869 l 250 869 z "},"Ď":{"ha":674,"x_min":72,"x_max":615,"o":"m 72 954 l 383 954 q 555 899 494 954 q 615 742 615 844 l 615 222 q 393 0 615 0 l 72 0 l 72 954 m 439 235 l 439 735 q 360 808 439 808 l 249 808 l 249 153 l 360 153 q 439 235 439 153 m 257 1008 l 178 1165 l 267 1165 l 322 1088 l 376 1165 l 465 1165 l 386 1008 l 257 1008 z "},"ď":{"ha":665,"x_min":58,"x_max":754,"o":"m 710 1026 q 754 979 754 1026 q 679 824 754 932 l 617 824 l 653 1026 l 710 1026 m 386 653 l 321 653 q 236 568 236 653 l 236 215 q 295 156 236 156 q 386 182 354 156 l 386 653 m 385 1026 l 564 1026 l 564 0 l 390 0 l 390 54 q 243 -6 335 -6 q 105 44 151 -6 q 58 186 58 94 l 58 574 q 121 748 58 685 q 304 811 183 811 l 385 811 l 385 1026 z "},"Đ":{"ha":681,"x_min":-4,"x_max":626,"o":"m 83 954 l 394 954 q 566 899 506 954 q 626 742 626 844 l 626 222 q 404 0 626 0 l 83 0 l 83 397 l -4 397 l -4 544 l 83 544 l 83 954 m 450 235 l 450 735 q 371 808 450 808 l 260 808 l 260 544 l 356 544 l 356 397 l 260 397 l 260 153 l 371 153 q 450 235 450 153 z "},"đ":{"ha":639,"x_min":61,"x_max":622,"o":"m 622 961 l 622 879 l 567 879 l 567 0 l 393 0 l 393 54 q 246 -6 338 -6 q 108 44 154 -6 q 61 186 61 94 l 61 574 q 124 748 61 685 q 307 811 186 811 l 388 811 l 388 879 l 213 879 l 213 961 l 388 961 l 388 1026 l 567 1026 l 567 961 l 622 961 m 389 653 l 324 653 q 239 568 239 653 l 239 215 q 298 156 239 156 q 389 182 357 156 l 389 653 z "},"Ē":{"ha":575,"x_min":72,"x_max":536,"o":"m 124 1135 l 476 1135 l 476 1040 l 124 1040 l 124 1135 m 72 954 l 536 954 l 536 800 l 249 800 l 249 560 l 497 560 l 497 406 l 249 406 l 249 153 l 536 153 l 536 0 l 72 0 l 72 954 z "},"ē":{"ha":601,"x_min":58,"x_max":556,"o":"m 58 224 l 58 603 q 121 766 58 707 q 310 825 183 825 q 556 603 556 825 l 556 333 l 229 333 l 229 238 q 257 168 229 189 q 361 147 285 147 q 535 174 438 147 l 535 17 q 339 -8 438 -8 q 58 224 58 -8 m 229 471 l 392 471 l 392 601 q 310 676 392 676 q 229 601 229 676 l 229 471 m 485 996 l 485 901 l 132 901 l 132 996 l 485 996 z "},"Ė":{"ha":575,"x_min":72,"x_max":536,"o":"m 306 1028 q 270 1028 306 1028 q 233 1097 233 1028 q 306 1165 233 1165 q 379 1097 379 1165 q 306 1028 379 1028 m 72 954 l 536 954 l 536 800 l 249 800 l 249 560 l 497 560 l 497 406 l 249 406 l 249 153 l 536 153 l 536 0 l 72 0 l 72 954 z "},"ė":{"ha":601,"x_min":58,"x_max":556,"o":"m 58 224 l 58 603 q 121 766 58 707 q 310 825 183 825 q 556 603 556 825 l 556 333 l 229 333 l 229 238 q 257 168 229 189 q 361 147 285 147 q 535 174 438 147 l 535 17 q 339 -8 438 -8 q 58 224 58 -8 m 229 471 l 392 471 l 392 601 q 310 676 392 676 q 229 601 229 676 l 229 471 m 385 958 q 385 923 385 958 q 312 889 385 889 q 239 958 239 889 q 312 1026 239 1026 q 385 958 385 1026 z "},"Ę":{"ha":575,"x_min":72,"x_max":536,"o":"m 536 800 l 249 800 l 249 560 l 497 560 l 497 406 l 249 406 l 249 153 l 536 153 l 536 0 l 535 0 q 476 -131 476 -56 q 519 -181 476 -181 l 535 -181 l 535 -268 l 506 -268 q 412 -240 444 -268 q 379 -162 379 -212 q 468 0 379 -74 l 72 0 l 72 954 l 536 954 l 536 800 z "},"ę":{"ha":601,"x_min":58,"x_max":556,"o":"m 58 224 l 58 603 q 121 766 58 707 q 310 825 183 825 q 556 603 556 825 l 556 333 l 229 333 l 229 238 q 257 168 229 189 q 361 147 285 147 q 535 174 438 147 l 535 17 l 529 15 q 475 -111 475 -39 q 518 -161 475 -161 l 533 -161 l 533 -249 l 504 -249 q 410 -221 443 -249 q 378 -143 378 -193 q 443 -3 378 -71 q 339 -8 388 -8 q 58 224 58 -8 m 229 471 l 392 471 l 392 601 q 310 676 392 676 q 229 601 229 676 l 229 471 z "},"Ě":{"ha":575,"x_min":72,"x_max":536,"o":"m 536 800 l 249 800 l 249 560 l 497 560 l 497 406 l 249 406 l 249 153 l 536 153 l 536 0 l 72 0 l 72 954 l 536 954 l 536 800 m 235 1008 l 156 1165 l 244 1165 l 300 1088 l 354 1165 l 443 1165 l 364 1008 l 235 1008 z "},"ě":{"ha":601,"x_min":58,"x_max":556,"o":"m 58 224 l 58 603 q 121 766 58 707 q 310 825 183 825 q 556 603 556 825 l 556 333 l 229 333 l 229 238 q 257 168 229 189 q 361 147 285 147 q 535 174 438 147 l 535 17 q 339 -8 438 -8 q 58 224 58 -8 m 229 471 l 392 471 l 392 601 q 310 676 392 676 q 229 601 229 676 l 229 471 m 247 869 l 168 1026 l 257 1026 l 313 949 l 367 1026 l 456 1026 l 376 869 l 247 869 z "},"Ğ":{"ha":642,"x_min":58,"x_max":588,"o":"m 407 1165 l 503 1165 q 457 1052 503 1096 q 340 1008 411 1008 q 223 1052 268 1008 q 178 1165 178 1096 l 274 1165 q 291 1114 274 1133 q 340 1094 308 1094 q 390 1114 372 1094 q 407 1165 407 1133 m 58 732 q 136 899 58 838 q 363 961 214 961 q 551 935 469 961 l 551 768 q 365 799 465 799 q 236 713 236 799 l 236 233 q 343 151 236 151 q 415 168 389 151 l 415 500 l 588 500 l 588 50 q 344 -7 485 -7 q 131 50 204 -7 q 58 215 58 107 l 58 732 z "},"ğ":{"ha":629,"x_min":31,"x_max":617,"o":"m 617 736 l 568 736 q 528 731 544 736 q 560 611 560 685 l 560 494 q 497 338 560 394 q 311 279 435 281 q 263 236 263 279 q 277 205 263 214 q 328 196 292 196 l 406 196 q 560 154 510 196 q 611 25 611 113 l 611 -4 q 542 -155 611 -101 q 329 -208 472 -208 l 276 -208 q 31 -151 110 -208 l 31 11 q 272 -58 124 -58 l 308 -58 q 415 -44 385 -58 q 446 -1 446 -31 l 446 8 q 432 41 446 31 q 382 51 418 51 l 297 51 q 106 174 106 51 l 106 196 q 182 294 106 279 q 40 494 40 339 l 40 611 q 105 769 40 713 q 300 825 169 825 q 451 796 393 825 q 594 896 483 896 l 617 896 l 617 736 m 383 496 l 383 610 q 300 683 383 683 q 217 610 217 683 l 217 496 q 300 422 217 422 q 383 496 383 422 m 363 1026 l 458 1026 q 413 913 458 957 q 295 869 367 869 q 178 913 224 869 q 133 1026 133 957 l 229 1026 q 247 975 229 994 q 296 956 264 956 q 345 975 328 956 q 363 1026 363 994 z "},"Ģ":{"ha":642,"x_min":58,"x_max":588,"o":"m 365 -85 q 410 -126 410 -85 q 335 -286 410 -183 l 274 -286 l 308 -85 l 365 -85 m 58 732 q 136 899 58 838 q 363 961 214 961 q 551 935 469 961 l 551 768 q 365 799 465 799 q 236 713 236 799 l 236 233 q 343 151 236 151 q 415 168 389 151 l 415 500 l 588 500 l 588 50 q 344 -7 485 -7 q 131 50 204 -7 q 58 215 58 107 l 58 732 z "},"ģ":{"ha":629,"x_min":31,"x_max":617,"o":"m 617 736 l 568 736 q 528 731 544 736 q 560 611 560 685 l 560 494 q 497 338 560 394 q 311 279 435 281 q 263 236 263 279 q 277 205 263 214 q 328 196 292 196 l 406 196 q 560 154 510 196 q 611 25 611 113 l 611 -4 q 542 -155 611 -101 q 329 -208 472 -208 l 276 -208 q 31 -151 110 -208 l 31 11 q 272 -58 124 -58 l 308 -58 q 415 -44 385 -58 q 446 -1 446 -31 l 446 8 q 432 41 446 31 q 382 51 418 51 l 297 51 q 106 174 106 51 l 106 196 q 182 294 106 279 q 40 494 40 339 l 40 611 q 105 769 40 713 q 300 825 169 825 q 451 796 393 825 q 594 896 483 896 l 617 896 l 617 736 m 383 496 l 383 610 q 300 683 383 683 q 217 610 217 683 l 217 496 q 300 422 217 422 q 383 496 383 422 m 289 869 q 243 913 243 869 q 269 992 243 943 q 319 1072 294 1040 l 381 1072 l 344 869 l 289 869 z "},"Ī":{"ha":322,"x_min":-11,"x_max":342,"o":"m -11 1135 l 342 1135 l 342 1040 l -11 1040 l -11 1135 m 72 954 l 250 954 l 250 0 l 72 0 l 72 954 z "},"ī":{"ha":322,"x_min":-15,"x_max":338,"o":"m -15 996 l 338 996 l 338 901 l -15 901 l -15 996 m 72 793 l 250 793 l 250 0 l 72 0 l 72 793 z "},"Į":{"ha":322,"x_min":72,"x_max":250,"o":"m 250 954 l 250 0 q 192 -131 192 -56 q 235 -181 192 -181 l 250 -181 l 250 -268 l 221 -268 q 127 -240 160 -268 q 94 -162 94 -212 q 183 0 94 -74 l 72 0 l 72 954 l 250 954 z "},"į":{"ha":322,"x_min":61,"x_max":261,"o":"m 72 0 l 72 793 l 250 793 l 250 0 l 249 0 q 190 -131 190 -56 q 233 -181 190 -181 l 249 -181 l 249 -268 l 219 -268 q 126 -240 158 -268 q 93 -162 93 -212 q 182 0 93 -74 l 72 0 m 261 949 q 161 854 261 854 q 61 949 61 854 q 161 1046 61 1046 q 261 949 261 1046 z "},"İ":{"ha":322,"x_min":72,"x_max":250,"o":"m 159 1028 q 123 1028 159 1028 q 86 1097 86 1028 q 159 1165 86 1165 q 232 1097 232 1165 q 159 1028 232 1028 m 72 954 l 250 954 l 250 0 l 72 0 l 72 954 z "},"ı":{"ha":322,"x_min":72,"x_max":250,"o":"m 72 793 l 250 793 l 250 0 l 72 0 l 72 793 z "},"Ķ":{"ha":654,"x_min":72,"x_max":642,"o":"m 358 -85 q 404 -126 404 -85 q 378 -206 404 -157 q 328 -286 353 -254 l 267 -286 l 303 -85 l 358 -85 m 72 954 l 249 954 l 249 0 l 72 0 l 72 954 m 438 954 l 626 954 l 444 489 l 642 0 l 446 0 l 260 486 l 438 954 z "},"ķ":{"ha":590,"x_min":72,"x_max":578,"o":"m 314 -85 q 358 -126 358 -85 q 283 -286 358 -183 l 221 -286 l 257 -85 l 314 -85 m 72 1026 l 244 1026 l 244 0 l 72 0 l 72 1026 m 382 811 l 560 811 l 425 425 l 578 0 l 392 0 l 251 433 l 382 811 z "},"Ĺ":{"ha":522,"x_min":72,"x_max":515,"o":"m 72 954 l 250 954 l 250 149 l 515 149 l 515 0 l 72 0 l 72 954 m 168 1165 l 303 1165 l 204 1008 l 108 1008 l 168 1165 z "},"ĺ":{"ha":322,"x_min":72,"x_max":306,"o":"m 72 1026 l 250 1026 l 250 0 l 72 0 l 72 1026 m 171 1235 l 306 1235 l 207 1078 l 111 1078 l 171 1235 z "},"Ļ":{"ha":522,"x_min":72,"x_max":515,"o":"m 293 -85 q 339 -126 339 -85 q 313 -206 339 -157 q 263 -286 288 -254 l 201 -286 l 238 -85 l 293 -85 m 72 954 l 250 954 l 250 149 l 515 149 l 515 0 l 72 0 l 72 954 z "},"ļ":{"ha":322,"x_min":72,"x_max":250,"o":"m 169 -85 q 215 -126 215 -85 q 190 -206 215 -157 q 139 -286 164 -254 l 78 -286 l 113 -85 l 169 -85 m 72 1026 l 250 1026 l 250 0 l 72 0 l 72 1026 z "},"Ľ":{"ha":522,"x_min":13,"x_max":515,"o":"m 250 149 l 515 149 l 515 0 l 72 0 l 72 954 l 250 954 l 250 149 m 92 1008 l 13 1165 l 101 1165 l 157 1088 l 211 1165 l 300 1165 l 221 1008 l 92 1008 z "},"ľ":{"ha":322,"x_min":72,"x_max":439,"o":"m 393 1026 q 439 985 439 1026 q 363 824 439 926 l 301 824 l 338 1026 l 393 1026 m 72 1026 l 250 1026 l 250 0 l 72 0 l 72 1026 z "},"Ł":{"ha":525,"x_min":7,"x_max":526,"o":"m 261 149 l 526 149 l 526 0 l 83 0 l 83 372 l 7 339 l 7 460 l 83 493 l 83 954 l 261 954 l 261 571 l 385 625 l 385 503 l 261 449 l 261 149 z "},"ł":{"ha":326,"x_min":7,"x_max":318,"o":"m 253 0 l 75 0 l 75 560 l 7 529 l 7 651 l 75 681 l 75 1026 l 253 1026 l 253 758 l 318 788 l 318 667 l 253 638 l 253 0 z "},"Ń":{"ha":726,"x_min":72,"x_max":654,"o":"m 479 954 l 654 954 l 654 0 l 479 0 q 245 609 271 531 q 218 690 219 688 q 223 656 218 688 q 233 586 228 625 q 246 318 246 478 l 246 0 l 72 0 l 72 954 l 251 954 q 479 356 453 440 q 507 269 506 272 q 500 319 507 272 q 479 646 479 458 l 479 954 m 360 1165 l 494 1165 l 396 1008 l 300 1008 l 360 1165 z "},"ń":{"ha":639,"x_min":72,"x_max":574,"o":"m 240 775 q 397 815 317 815 q 525 770 476 815 q 574 638 574 725 l 574 0 l 393 0 l 393 597 q 339 651 393 651 q 250 628 292 651 l 250 0 l 72 0 l 72 811 l 240 811 l 240 775 m 317 1026 l 451 1026 l 353 869 l 257 869 l 317 1026 z "},"Ņ":{"ha":726,"x_min":72,"x_max":654,"o":"m 364 -85 q 408 -126 408 -85 q 333 -286 408 -183 l 272 -286 l 307 -85 l 364 -85 m 479 954 l 654 954 l 654 0 l 479 0 q 245 609 271 531 q 218 690 219 688 q 223 656 218 688 q 233 586 228 625 q 246 318 246 478 l 246 0 l 72 0 l 72 954 l 251 954 q 479 356 453 440 q 507 269 506 272 q 500 319 507 272 q 479 646 479 458 l 479 954 z "},"ņ":{"ha":639,"x_min":72,"x_max":574,"o":"m 328 -85 q 374 -126 374 -85 q 348 -206 374 -157 q 297 -286 322 -254 l 236 -286 l 272 -85 l 328 -85 m 240 775 q 397 815 317 815 q 525 770 476 815 q 574 638 574 725 l 574 0 l 393 0 l 393 597 q 339 651 393 651 q 250 628 292 651 l 250 0 l 72 0 l 72 811 l 240 811 l 240 775 z "},"Ň":{"ha":726,"x_min":72,"x_max":654,"o":"m 479 954 l 654 954 l 654 0 l 479 0 q 245 609 271 531 q 218 690 219 688 q 223 656 218 688 q 233 586 228 625 q 246 318 246 478 l 246 0 l 72 0 l 72 954 l 251 954 q 479 356 453 440 q 507 269 506 272 q 500 319 507 272 q 479 646 479 458 l 479 954 m 290 1008 l 211 1165 l 300 1165 l 356 1088 l 410 1165 l 499 1165 l 419 1008 l 290 1008 z "},"ň":{"ha":639,"x_min":72,"x_max":574,"o":"m 240 811 l 240 775 q 397 815 317 815 q 525 770 476 815 q 574 638 574 725 l 574 0 l 393 0 l 393 597 q 339 651 393 651 q 250 628 292 651 l 250 0 l 72 0 l 72 811 l 240 811 m 247 869 l 168 1026 l 257 1026 l 313 949 l 367 1026 l 456 1026 l 376 869 l 247 869 z "},"Ō":{"ha":667,"x_min":58,"x_max":608,"o":"m 432 719 q 333 807 432 807 q 235 719 235 807 l 235 235 q 333 147 235 147 q 432 235 432 147 l 432 719 m 58 728 q 128 903 58 838 q 332 968 197 968 q 538 903 467 968 q 608 728 608 838 l 608 226 q 538 51 608 117 q 332 -14 467 -14 q 128 51 197 -14 q 58 226 58 117 l 58 728 m 158 1135 l 511 1135 l 511 1040 l 158 1040 l 158 1135 z "},"ō":{"ha":622,"x_min":58,"x_max":564,"o":"m 389 599 q 310 674 389 674 q 232 599 232 674 l 232 213 q 310 138 232 138 q 389 213 389 138 l 389 599 m 58 604 q 122 766 58 707 q 311 825 185 825 q 501 766 438 825 q 564 604 564 707 l 564 207 q 501 45 564 104 q 311 -14 438 -14 q 122 45 185 -14 q 58 207 58 104 l 58 604 m 133 996 l 486 996 l 486 901 l 133 901 l 133 996 z "},"Ő":{"ha":667,"x_min":58,"x_max":608,"o":"m 432 719 q 333 807 432 807 q 235 719 235 807 l 235 235 q 333 147 235 147 q 432 235 432 147 l 432 719 m 58 728 q 128 903 58 838 q 332 968 197 968 q 538 903 467 968 q 608 728 608 838 l 608 226 q 538 51 608 117 q 332 -14 467 -14 q 128 51 197 -14 q 58 226 58 117 l 58 728 m 271 1165 l 394 1165 l 292 1008 l 207 1008 l 271 1165 m 424 1165 l 547 1165 l 444 1008 l 360 1008 l 424 1165 z "},"ő":{"ha":622,"x_min":58,"x_max":564,"o":"m 389 599 q 310 674 389 674 q 232 599 232 674 l 232 213 q 310 138 232 138 q 389 213 389 138 l 389 599 m 58 604 q 122 766 58 707 q 311 825 185 825 q 501 766 438 825 q 564 604 564 707 l 564 207 q 501 45 564 104 q 311 -14 438 -14 q 122 45 185 -14 q 58 207 58 104 l 58 604 m 257 1026 l 381 1026 l 278 869 l 193 869 l 257 1026 m 410 1026 l 533 1026 l 431 869 l 346 869 l 410 1026 z "},"Œ":{"ha":972,"x_min":86,"x_max":933,"o":"m 933 800 l 646 800 l 646 560 l 894 560 l 894 406 l 646 406 l 646 153 l 933 153 l 933 0 l 308 0 q 86 222 86 0 l 86 742 q 147 899 86 844 q 318 954 207 954 l 933 954 l 933 800 m 342 153 l 469 153 l 469 808 l 342 808 q 263 735 263 808 l 263 235 q 342 153 263 153 z "},"œ":{"ha":956,"x_min":61,"x_max":893,"o":"m 61 207 l 61 604 q 124 766 61 707 q 302 825 188 825 q 481 783 417 825 q 647 825 544 825 q 893 603 893 825 l 893 333 l 567 333 l 567 238 q 594 168 567 189 q 699 147 622 147 q 872 174 775 147 l 872 17 q 666 -8 775 -8 q 489 32 557 -8 q 306 -14 424 -14 q 124 45 188 -14 q 61 207 61 104 m 393 213 l 393 599 q 315 674 393 674 q 236 599 236 674 l 236 213 q 315 138 236 138 q 393 213 393 138 m 567 471 l 729 471 l 729 601 q 648 676 729 676 q 567 601 567 676 l 567 471 z "},"Ŕ":{"ha":660,"x_min":72,"x_max":632,"o":"m 249 356 l 249 0 l 72 0 l 72 954 l 361 954 q 535 899 474 954 q 597 742 597 844 l 597 576 q 482 371 597 414 l 632 0 l 439 0 l 307 356 l 249 356 m 249 803 l 249 497 l 343 497 q 403 517 385 497 q 421 579 421 536 l 421 728 q 402 785 421 768 q 343 803 383 803 l 249 803 m 458 1165 l 360 1008 l 264 1008 l 324 1165 l 458 1165 z "},"ŕ":{"ha":432,"x_min":72,"x_max":425,"o":"m 397 815 l 425 815 l 425 650 l 389 650 q 250 613 314 650 l 250 0 l 72 0 l 72 811 l 240 811 l 240 754 q 294 789 279 779 q 397 815 339 815 m 276 1026 l 411 1026 l 313 869 l 217 869 l 276 1026 z "},"Ŗ":{"ha":660,"x_min":72,"x_max":632,"o":"m 249 356 l 249 0 l 72 0 l 72 954 l 361 954 q 535 899 474 954 q 597 742 597 844 l 597 576 q 482 371 597 414 l 632 0 l 439 0 l 307 356 l 249 356 m 249 803 l 249 497 l 343 497 q 403 517 385 497 q 421 579 421 536 l 421 728 q 402 785 421 768 q 343 803 383 803 l 249 803 m 349 -85 q 393 -126 393 -85 q 318 -286 393 -183 l 257 -286 l 292 -85 l 349 -85 z "},"ŗ":{"ha":432,"x_min":72,"x_max":425,"o":"m 169 -85 q 215 -126 215 -85 q 190 -206 215 -157 q 139 -286 164 -254 l 78 -286 l 113 -85 l 169 -85 m 397 815 l 425 815 l 425 650 l 389 650 q 250 613 314 650 l 250 0 l 72 0 l 72 811 l 240 811 l 240 754 q 294 789 279 779 q 397 815 339 815 z "},"Ř":{"ha":660,"x_min":72,"x_max":632,"o":"m 249 356 l 249 0 l 72 0 l 72 954 l 361 954 q 535 899 474 954 q 597 742 597 844 l 597 576 q 482 371 597 414 l 632 0 l 439 0 l 307 356 l 249 356 m 249 803 l 249 497 l 343 497 q 403 517 385 497 q 421 579 421 536 l 421 728 q 402 785 421 768 q 343 803 383 803 l 249 803 m 247 1008 l 168 1165 l 257 1165 l 313 1088 l 367 1165 l 456 1165 l 376 1008 l 247 1008 z "},"ř":{"ha":432,"x_min":72,"x_max":425,"o":"m 397 815 l 425 815 l 425 650 l 389 650 q 250 613 314 650 l 250 0 l 72 0 l 72 811 l 240 811 l 240 754 q 294 789 279 779 q 397 815 339 815 m 186 869 l 107 1026 l 196 1026 l 251 949 l 306 1026 l 394 1026 l 315 869 l 186 869 z "},"Ś":{"ha":589,"x_min":31,"x_max":558,"o":"m 31 739 q 101 903 31 844 q 304 961 172 961 q 508 933 436 961 l 508 764 q 344 797 429 797 q 235 777 260 797 q 211 718 211 757 l 211 685 q 226 622 211 643 q 286 576 242 601 l 444 486 q 558 300 558 425 l 558 217 q 481 51 558 110 q 263 -7 403 -7 q 42 24 122 -7 l 42 194 q 247 157 133 157 q 381 239 381 157 l 381 271 q 367 325 381 306 q 314 365 353 344 l 161 447 q 31 654 31 522 l 31 739 m 308 1165 l 443 1165 l 344 1008 l 249 1008 l 308 1165 z "},"ś":{"ha":528,"x_min":32,"x_max":497,"o":"m 33 603 q 97 765 33 711 q 304 818 160 818 q 469 796 397 818 l 469 639 q 325 661 399 661 q 228 644 251 661 q 206 593 206 628 l 206 574 q 218 534 206 549 q 268 496 231 519 l 383 426 q 497 249 497 356 l 497 213 q 208 -7 497 -7 q 32 13 110 -7 l 32 172 q 181 151 100 151 q 292 168 263 151 q 321 219 321 185 l 321 236 q 306 278 321 263 q 239 326 290 294 l 138 386 q 33 564 33 450 l 33 603 m 292 1026 l 426 1026 l 328 869 l 232 869 l 292 1026 z "},"Ş":{"ha":589,"x_min":31,"x_max":558,"o":"m 290 -85 q 336 -126 336 -85 q 310 -206 336 -157 q 260 -286 285 -254 l 199 -286 l 233 -85 l 290 -85 m 31 739 q 101 903 31 844 q 304 961 172 961 q 508 933 436 961 l 508 764 q 344 797 429 797 q 235 777 260 797 q 211 718 211 757 l 211 685 q 226 622 211 643 q 286 576 242 601 l 444 486 q 558 300 558 425 l 558 217 q 481 51 558 110 q 263 -7 403 -7 q 42 24 122 -7 l 42 194 q 247 157 133 157 q 381 239 381 157 l 381 271 q 367 325 381 306 q 314 365 353 344 l 161 447 q 31 654 31 522 l 31 739 z "},"ş":{"ha":528,"x_min":32,"x_max":497,"o":"m 267 -85 q 313 -126 313 -85 q 287 -206 313 -157 q 236 -286 261 -254 l 175 -286 l 210 -85 l 267 -85 m 33 603 q 97 765 33 711 q 304 818 160 818 q 469 796 397 818 l 469 639 q 325 661 399 661 q 228 644 251 661 q 206 593 206 628 l 206 574 q 218 534 206 549 q 268 496 231 519 l 383 426 q 497 249 497 356 l 497 213 q 208 -7 497 -7 q 32 13 110 -7 l 32 172 q 181 151 100 151 q 292 168 263 151 q 321 219 321 185 l 321 236 q 306 278 321 263 q 239 326 290 294 l 138 386 q 33 564 33 450 l 33 603 z "},"Š":{"ha":589,"x_min":31,"x_max":558,"o":"m 558 300 l 558 217 q 481 51 558 110 q 263 -7 403 -7 q 42 24 122 -7 l 42 194 q 247 157 133 157 q 381 239 381 157 l 381 271 q 367 325 381 306 q 314 365 353 344 l 161 447 q 31 654 31 522 l 31 739 q 101 903 31 844 q 304 961 172 961 q 508 933 436 961 l 508 764 q 344 797 429 797 q 235 777 260 797 q 211 718 211 757 l 211 685 q 226 622 211 643 q 286 576 242 601 l 444 486 q 558 300 558 425 m 226 1008 l 147 1165 l 236 1165 l 292 1088 l 346 1165 l 435 1165 l 356 1008 l 226 1008 z "},"š":{"ha":528,"x_min":32,"x_max":497,"o":"m 497 249 l 497 213 q 208 -7 497 -7 q 32 13 110 -7 l 32 172 q 181 151 100 151 q 292 168 263 151 q 321 219 321 185 l 321 236 q 306 278 321 263 q 239 326 290 294 l 138 386 q 33 564 33 450 l 33 603 q 97 765 33 711 q 304 818 160 818 q 469 796 397 818 l 469 639 q 325 661 399 661 q 228 644 251 661 q 206 593 206 628 l 206 574 q 218 534 206 549 q 268 496 231 519 l 383 426 q 497 249 497 356 m 217 869 l 138 1026 l 226 1026 l 282 949 l 336 1026 l 425 1026 l 346 869 l 217 869 z "},"Ţ":{"ha":547,"x_min":8,"x_max":539,"o":"m 539 954 l 539 800 l 363 800 l 363 0 l 185 0 l 185 800 l 8 800 l 8 954 l 539 954 m 285 -85 q 329 -126 329 -85 q 254 -286 329 -183 l 192 -286 l 228 -85 l 285 -85 z "},"ţ":{"ha":432,"x_min":7,"x_max":411,"o":"m 267 -85 q 313 -126 313 -85 q 287 -206 313 -157 q 236 -286 261 -254 l 175 -286 l 210 -85 l 267 -85 m 328 149 q 411 168 372 149 l 411 10 q 293 -11 349 -11 q 133 42 182 -11 q 85 194 85 94 l 85 661 l 7 661 l 7 811 l 92 811 l 146 953 l 263 953 l 263 811 l 401 811 l 401 661 l 263 661 l 263 211 q 328 149 263 149 z "},"Ť":{"ha":547,"x_min":8,"x_max":539,"o":"m 539 954 l 539 800 l 363 800 l 363 0 l 185 0 l 185 800 l 8 800 l 8 954 l 539 954 m 207 1008 l 128 1165 l 217 1165 l 272 1088 l 326 1165 l 415 1165 l 336 1008 l 207 1008 z "},"ť":{"ha":432,"x_min":7,"x_max":521,"o":"m 328 149 q 411 168 372 149 l 411 10 q 293 -11 349 -11 q 133 42 182 -11 q 85 194 85 94 l 85 661 l 7 661 l 7 811 l 92 811 l 146 953 l 263 953 l 263 811 l 401 811 l 401 661 l 263 661 l 263 211 q 328 149 263 149 m 464 1147 q 521 1096 521 1147 q 488 990 521 1056 q 422 878 454 924 l 350 878 l 397 1147 l 464 1147 z "},"Ū":{"ha":675,"x_min":65,"x_max":611,"o":"m 161 1135 l 514 1135 l 514 1040 l 161 1040 l 161 1135 m 435 954 l 611 954 l 611 226 q 542 51 611 117 q 338 -14 472 -14 q 134 51 203 -14 q 65 226 65 117 l 65 954 l 242 954 l 242 235 q 338 147 242 147 q 435 235 435 147 l 435 954 z "},"ū":{"ha":643,"x_min":65,"x_max":571,"o":"m 142 996 l 494 996 l 494 901 l 142 901 l 142 996 m 393 811 l 571 811 l 571 0 l 403 0 l 403 38 q 244 -1 329 -1 q 113 47 160 -1 q 65 186 65 96 l 65 811 l 244 811 l 244 218 q 306 158 244 158 q 393 183 353 158 l 393 811 z "},"Ů":{"ha":675,"x_min":65,"x_max":611,"o":"m 435 954 l 611 954 l 611 226 q 542 51 611 117 q 338 -14 472 -14 q 134 51 203 -14 q 65 226 65 117 l 65 954 l 242 954 l 242 235 q 338 147 242 147 q 435 235 435 147 l 435 954 m 381 1088 q 369 1117 381 1106 q 339 1129 357 1129 q 309 1117 321 1129 q 297 1088 297 1106 q 339 1043 297 1043 q 381 1088 381 1043 m 340 979 q 314 979 340 979 q 258 1010 288 979 q 229 1087 229 1040 q 258 1163 229 1133 q 340 1193 288 1193 q 420 1163 392 1193 q 449 1087 449 1133 q 420 1010 449 1040 q 340 979 392 979 z "},"ů":{"ha":643,"x_min":65,"x_max":571,"o":"m 393 811 l 571 811 l 571 0 l 403 0 l 403 38 q 244 -1 329 -1 q 113 47 160 -1 q 65 186 65 96 l 65 811 l 244 811 l 244 218 q 306 158 244 158 q 393 183 353 158 l 393 811 m 356 949 q 344 978 356 967 q 314 990 332 990 q 284 978 296 990 q 272 949 272 967 q 314 904 272 904 q 356 949 356 904 m 315 840 q 289 840 315 840 q 233 871 263 840 q 204 948 204 901 q 233 1024 204 994 q 315 1054 263 1054 q 395 1024 367 1054 q 424 948 424 994 q 395 871 424 901 q 315 840 367 840 z "},"Ű":{"ha":675,"x_min":65,"x_max":611,"o":"m 269 1165 l 393 1165 l 290 1008 l 206 1008 l 269 1165 m 422 1165 l 546 1165 l 443 1008 l 358 1008 l 422 1165 m 435 954 l 611 954 l 611 226 q 542 51 611 117 q 338 -14 472 -14 q 134 51 203 -14 q 65 226 65 117 l 65 954 l 242 954 l 242 235 q 338 147 242 147 q 435 235 435 147 l 435 954 z "},"ű":{"ha":643,"x_min":65,"x_max":571,"o":"m 256 1026 l 379 1026 l 276 869 l 192 869 l 256 1026 m 408 1026 l 532 1026 l 429 869 l 344 869 l 408 1026 m 393 811 l 571 811 l 571 0 l 403 0 l 403 38 q 244 -1 329 -1 q 113 47 160 -1 q 65 186 65 96 l 65 811 l 244 811 l 244 218 q 306 158 244 158 q 393 183 353 158 l 393 811 z "},"Ų":{"ha":675,"x_min":65,"x_max":611,"o":"m 435 954 l 611 954 l 611 226 q 471 8 611 64 q 418 -117 418 -47 q 461 -167 418 -167 l 476 -167 l 476 -254 l 447 -254 q 353 -226 386 -254 q 321 -149 321 -199 q 382 -11 321 -76 q 338 -14 354 -14 q 134 51 203 -14 q 65 226 65 117 l 65 954 l 242 954 l 242 235 q 338 147 242 147 q 435 235 435 147 l 435 954 z "},"ų":{"ha":643,"x_min":65,"x_max":571,"o":"m 393 811 l 571 811 l 571 0 l 569 0 q 511 -131 511 -56 q 554 -181 511 -181 l 569 -181 l 569 -268 l 540 -268 q 447 -240 479 -268 q 414 -162 414 -212 q 503 0 414 -74 l 403 0 l 403 38 q 244 -1 329 -1 q 113 47 160 -1 q 65 186 65 96 l 65 811 l 244 811 l 244 218 q 306 158 244 158 q 393 183 353 158 l 393 811 z "},"Ÿ":{"ha":640,"x_min":1,"x_max":639,"o":"m 410 0 l 231 0 l 231 303 l 1 954 l 183 954 l 243 776 q 322 490 294 617 q 403 779 350 611 l 461 954 l 639 954 l 410 303 l 410 0 m 433 1018 q 396 1018 433 1018 q 360 1087 360 1018 q 433 1156 360 1156 q 506 1087 506 1156 q 433 1018 506 1018 m 282 1087 q 282 1052 282 1087 q 210 1018 282 1018 q 138 1087 138 1018 q 210 1156 138 1156 q 282 1087 282 1156 z "},"Ź":{"ha":574,"x_min":31,"x_max":540,"o":"m 38 954 l 538 954 l 538 810 l 215 150 l 540 150 l 540 0 l 31 0 l 31 150 l 347 804 l 38 804 l 38 954 m 294 1165 l 429 1165 l 331 1008 l 235 1008 l 294 1165 z "},"ź":{"ha":488,"x_min":28,"x_max":460,"o":"m 33 811 l 457 811 l 457 700 l 221 149 l 460 149 l 460 0 l 28 0 l 28 113 l 267 661 l 33 661 l 33 811 m 258 1026 l 393 1026 l 294 869 l 199 869 l 258 1026 z "},"Ż":{"ha":574,"x_min":31,"x_max":540,"o":"m 288 1028 q 252 1028 288 1028 q 215 1097 215 1028 q 288 1165 215 1165 q 361 1097 361 1165 q 288 1028 361 1028 m 38 954 l 538 954 l 538 810 l 215 150 l 540 150 l 540 0 l 31 0 l 31 150 l 347 804 l 38 804 l 38 954 z "},"ż":{"ha":488,"x_min":28,"x_max":460,"o":"m 245 889 q 209 889 245 889 q 172 958 172 889 q 245 1026 172 1026 q 318 958 318 1026 q 245 889 318 889 m 33 811 l 457 811 l 457 700 l 221 149 l 460 149 l 460 0 l 28 0 l 28 113 l 267 661 l 33 661 l 33 811 z "},"Ž":{"ha":574,"x_min":31,"x_max":540,"o":"m 540 150 l 540 0 l 31 0 l 31 150 l 347 804 l 38 804 l 38 954 l 538 954 l 538 810 l 215 150 l 540 150 m 218 1008 l 139 1165 l 228 1165 l 283 1088 l 338 1165 l 426 1165 l 347 1008 l 218 1008 z "},"ž":{"ha":488,"x_min":28,"x_max":460,"o":"m 460 149 l 460 0 l 28 0 l 28 113 l 267 661 l 33 661 l 33 811 l 457 811 l 457 700 l 221 149 l 460 149 m 183 869 l 104 1026 l 193 1026 l 249 949 l 303 1026 l 392 1026 l 313 869 l 183 869 z "},"ƒ":{"ha":511,"x_min":15,"x_max":515,"o":"m 449 1028 q 515 1022 471 1028 l 515 883 q 464 886 493 886 q 396 808 408 886 l 383 719 l 471 719 l 471 578 l 364 578 l 313 215 q 246 50 297 106 q 81 -6 194 -6 q 15 0 60 -6 l 15 139 q 65 136 38 136 q 133 214 124 136 l 186 578 l 76 578 l 76 719 l 206 719 l 218 806 q 284 972 233 917 q 449 1028 335 1028 z "},"Ș":{"ha":589,"x_min":31,"x_max":558,"o":"m 300 -85 q 346 -126 346 -85 q 320 -206 346 -157 q 269 -286 294 -254 l 208 -286 l 244 -85 l 300 -85 m 31 739 q 101 903 31 844 q 304 961 172 961 q 508 933 436 961 l 508 764 q 344 797 429 797 q 235 777 260 797 q 211 718 211 757 l 211 685 q 226 622 211 643 q 286 576 242 601 l 444 486 q 558 300 558 425 l 558 217 q 481 51 558 110 q 263 -7 403 -7 q 42 24 122 -7 l 42 194 q 247 157 133 157 q 381 239 381 157 l 381 271 q 367 325 381 306 q 314 365 353 344 l 161 447 q 31 654 31 522 l 31 739 z "},"ș":{"ha":528,"x_min":32,"x_max":497,"o":"m 281 -85 q 325 -126 325 -85 q 299 -206 325 -157 q 250 -286 274 -256 l 189 -286 l 224 -85 l 281 -85 m 33 603 q 97 765 33 711 q 304 818 160 818 q 469 796 397 818 l 469 639 q 325 661 399 661 q 228 644 251 661 q 206 593 206 628 l 206 574 q 218 534 206 549 q 268 496 231 519 l 383 426 q 497 249 497 356 l 497 213 q 208 -7 497 -7 q 32 13 110 -7 l 32 172 q 181 151 100 151 q 292 168 263 151 q 321 219 321 185 l 321 236 q 306 278 321 263 q 239 326 290 294 l 138 386 q 33 564 33 450 l 33 603 z "},"Ț":{"ha":547,"x_min":8,"x_max":539,"o":"m 539 954 l 539 800 l 363 800 l 363 0 l 185 0 l 185 800 l 8 800 l 8 954 l 539 954 m 283 -85 q 328 -126 328 -85 q 302 -206 328 -157 q 251 -286 276 -254 l 190 -286 l 226 -85 l 283 -85 z "},"ț":{"ha":432,"x_min":7,"x_max":411,"o":"m 268 -85 q 313 -126 313 -85 q 238 -286 313 -183 l 176 -286 l 211 -85 l 268 -85 m 328 149 q 411 168 372 149 l 411 10 q 293 -11 349 -11 q 133 42 182 -11 q 85 194 85 94 l 85 661 l 7 661 l 7 811 l 92 811 l 146 953 l 263 953 l 263 811 l 401 811 l 401 661 l 263 661 l 263 211 q 328 149 263 149 z "},"ˆ":{"ha":486,"x_min":99,"x_max":386,"o":"m 386 869 l 297 869 l 243 947 l 188 869 l 99 869 l 178 1026 l 307 1026 l 386 869 z "},"ˇ":{"ha":486,"x_min":99,"x_max":386,"o":"m 297 1026 l 386 1026 l 307 869 l 178 869 l 99 1026 l 188 1026 l 243 949 l 297 1026 z "},"ˉ":{"ha":486,"x_min":67,"x_max":419,"o":"m 67 996 l 419 996 l 419 901 l 67 901 l 67 996 z "},"˘":{"ha":486,"x_min":81,"x_max":406,"o":"m 310 1026 l 406 1026 q 360 913 406 957 q 242 869 314 869 q 126 913 171 869 q 81 1026 81 957 l 176 1026 q 194 975 176 994 q 243 956 211 956 q 292 975 275 956 q 310 1026 310 994 z "},"˙":{"ha":486,"x_min":169,"x_max":315,"o":"m 242 889 q 206 889 242 889 q 169 958 169 889 q 242 1026 169 1026 q 315 958 315 1026 q 242 889 315 889 z "},"˚":{"ha":486,"x_min":133,"x_max":353,"o":"m 285 949 q 273 978 285 967 q 243 990 261 990 q 213 978 225 990 q 201 949 201 967 q 243 904 201 904 q 285 949 285 904 m 244 840 q 218 840 244 840 q 163 871 192 840 q 133 948 133 901 q 163 1024 133 994 q 244 1054 192 1054 q 324 1024 296 1054 q 353 948 353 994 q 324 871 353 901 q 244 840 296 840 z "},"˛":{"ha":486,"x_min":167,"x_max":322,"o":"m 264 -131 q 307 -181 264 -181 l 322 -181 l 322 -268 l 293 -268 q 199 -240 232 -268 q 167 -162 167 -212 q 256 0 167 -74 l 322 0 q 264 -131 264 -56 z "},"˜":{"ha":486,"x_min":49,"x_max":436,"o":"m 339 1021 l 436 1021 l 436 1010 q 407 912 436 947 q 331 876 378 876 q 238 903 285 876 q 176 931 190 931 q 146 882 146 931 l 146 875 l 49 875 l 49 882 q 77 981 49 944 q 154 1018 106 1018 q 249 991 203 1018 q 308 964 296 964 q 339 1013 339 964 l 339 1021 z "},"˝":{"ha":486,"x_min":72,"x_max":413,"o":"m 136 1026 l 260 1026 l 157 869 l 72 869 l 136 1026 m 289 1026 l 413 1026 l 310 869 l 225 869 l 289 1026 z "},"π":{"ha":639,"x_min":72,"x_max":660,"o":"m 72 811 l 660 811 l 660 661 l 574 661 l 574 0 l 393 0 l 393 661 l 250 661 l 250 0 l 72 0 l 72 811 z "},"ँ":{"ha":0,"x_min":-424,"x_max":119,"o":"m -43 1231 l 119 1231 l 119 1225 q -152 1011 119 1011 q -424 1225 -424 1011 l -424 1231 l -261 1231 q -236 1172 -261 1189 q -153 1154 -211 1154 q -69 1172 -94 1154 q -43 1231 -43 1189 m -152 1233 q -195 1233 -152 1233 q -237 1319 -237 1233 q -152 1404 -237 1404 q -67 1319 -67 1404 q -152 1233 -67 1233 z "},"ं":{"ha":0,"x_min":-243,"x_max":-62,"o":"m -62 1101 q -62 1055 -62 1101 q -153 1010 -62 1010 q -243 1101 -243 1010 q -153 1192 -243 1192 q -62 1101 -62 1192 z "},"ः":{"ha":326,"x_min":65,"x_max":247,"o":"m 158 0 q 65 91 65 0 q 156 182 65 182 q 247 91 247 182 q 158 0 247 0 m 156 476 q 111 476 156 476 q 65 567 65 476 q 156 658 65 658 q 247 567 247 658 q 156 476 247 476 z "},"अ":{"ha":826,"x_min":56,"x_max":875,"o":"m 592 924 l 875 924 l 875 786 l 756 786 l 756 0 l 592 0 l 592 296 l 475 296 l 475 272 q 204 50 472 50 q 56 68 114 50 l 56 218 q 194 199 126 199 q 287 219 261 199 q 314 279 313 239 l 314 349 q 294 408 314 389 q 228 428 275 428 l 146 428 l 146 579 l 228 579 q 294 598 275 579 q 314 656 314 617 l 314 701 q 289 761 314 742 q 201 781 264 781 q 74 763 138 781 l 74 913 q 204 931 128 931 q 475 707 475 931 l 475 656 q 411 504 475 540 q 461 438 446 483 l 592 438 l 592 924 z "},"आ":{"ha":1140,"x_min":65,"x_max":1190,"o":"m 1190 924 l 1190 786 l 1071 786 l 1071 0 l 907 0 l 907 786 l 765 786 l 765 0 l 601 0 l 601 296 l 485 296 l 485 272 q 214 50 482 50 q 65 68 124 50 l 65 218 q 203 199 136 199 q 297 219 271 199 q 324 279 322 239 l 324 349 q 304 408 324 389 q 238 428 285 428 l 156 428 l 156 579 l 238 579 q 304 598 285 579 q 324 656 324 617 l 324 701 q 298 761 324 742 q 210 781 272 781 q 83 763 147 781 l 83 913 q 214 931 138 931 q 485 707 485 931 l 485 656 q 421 504 485 540 q 471 438 456 483 l 601 438 l 601 924 l 1190 924 z "},"इ":{"ha":574,"x_min":-49,"x_max":622,"o":"m 215 235 l 215 161 q 293 151 249 151 q 356 167 338 151 q 375 217 375 183 l 375 247 q 303 311 375 311 l 268 311 q 42 499 42 311 l 42 511 q 97 656 42 611 q 268 700 153 700 l 338 700 l 338 786 l -49 786 l -49 924 l 622 924 l 622 786 l 501 786 l 501 558 l 268 558 q 220 546 233 558 q 207 506 207 533 l 207 501 q 221 463 207 475 q 268 450 235 450 l 303 450 q 481 402 424 450 q 539 253 539 354 l 539 211 q 488 56 539 107 q 315 4 436 4 q 215 15 282 4 l 215 -107 l 54 -107 l 54 235 l 215 235 z "},"ई":{"ha":574,"x_min":-49,"x_max":622,"o":"m 485 1249 q 583 1242 524 1249 l 583 1096 q 539 1100 571 1100 q 463 1036 463 1100 q 496 924 463 988 l 622 924 l 622 786 l 501 786 l 501 558 l 268 558 q 220 546 233 558 q 207 506 207 533 l 207 501 q 221 463 207 475 q 268 450 235 450 l 303 450 q 481 402 424 450 q 539 253 539 354 l 539 211 q 488 56 539 107 q 315 4 436 4 q 215 15 282 4 l 215 -107 l 54 -107 l 54 235 l 215 235 l 215 161 q 293 151 249 151 q 356 167 338 151 q 375 217 375 183 l 375 247 q 303 311 375 311 l 268 311 q 42 499 42 311 l 42 511 q 97 656 42 611 q 268 700 153 700 l 338 700 l 338 786 l -49 786 l -49 924 l 336 924 q 297 1071 297 1007 q 351 1208 297 1168 q 485 1249 404 1249 z "},"उ":{"ha":561,"x_min":-49,"x_max":608,"o":"m 329 711 q 314 786 329 761 l -49 786 l -49 924 l 608 924 l 608 786 l 478 786 q 493 713 493 761 l 493 601 q 432 461 493 493 q 493 318 493 425 l 493 219 q 221 -7 493 -7 q 58 13 163 -7 l 58 164 q 218 143 142 143 q 329 222 329 143 l 329 307 q 249 388 329 386 l 164 388 l 164 538 l 258 538 q 315 556 300 539 q 329 607 329 574 l 329 711 z "},"ऊ":{"ha":819,"x_min":-49,"x_max":869,"o":"m 329 711 q 314 786 329 761 l -49 786 l -49 924 l 869 924 l 869 786 l 478 786 q 493 713 493 761 l 493 601 q 481 517 493 553 q 576 529 531 529 q 789 331 789 529 l 789 211 q 738 52 789 107 q 589 -3 688 -3 l 553 0 l 553 151 l 564 151 q 613 167 600 153 q 625 217 625 182 l 625 300 q 608 358 625 339 q 549 378 590 378 l 488 378 q 493 318 493 354 l 493 219 q 221 -7 493 -7 q 58 13 163 -7 l 58 164 q 218 143 142 143 q 329 222 329 143 l 329 307 q 249 388 329 386 l 164 388 l 164 538 l 258 538 q 315 556 300 539 q 329 607 329 574 l 329 711 z "},"ऋ":{"ha":1014,"x_min":-49,"x_max":1063,"o":"m 1063 786 l 593 786 l 593 606 q 713 594 657 594 q 804 671 804 594 l 804 688 l 964 688 l 964 253 l 900 253 q 819 167 819 253 q 921 82 819 82 q 999 90 963 82 l 999 -47 q 901 -54 957 -54 q 724 -2 789 -54 q 660 150 660 50 q 813 357 660 343 l 813 467 q 714 443 776 443 q 593 454 651 443 l 593 0 l 439 0 l 439 64 q 451 275 439 207 l 447 275 q 350 135 418 213 l 244 19 l 42 19 l 40 25 l 429 439 l 429 522 q 324 538 393 538 q 227 515 254 538 q 200 443 200 492 l 200 357 l 42 357 l 42 454 q 300 689 42 689 q 429 674 375 689 l 429 786 l -49 786 l -49 924 l 1063 924 l 1063 786 z "},"ऌ":{"ha":889,"x_min":-49,"x_max":938,"o":"m 818 786 l 818 38 q 693 47 743 47 q 613 -24 613 47 q 694 -92 613 -92 q 819 -79 722 -92 l 819 -229 q 692 -242 754 -242 q 513 -186 575 -242 q 451 -24 451 -131 q 653 194 451 178 l 653 518 q 590 529 626 529 q 515 463 515 529 l 515 303 l 351 303 l 351 463 q 337 512 351 494 q 282 529 322 529 q 228 512 242 529 q 214 461 214 494 l 214 247 q 235 176 214 201 q 301 151 257 151 q 374 154 346 151 l 374 4 q 313 0 332 0 q 113 60 176 0 q 50 242 50 119 l 50 467 q 108 625 50 569 q 278 681 167 681 q 431 608 389 681 q 576 679 479 679 q 653 669 611 679 l 653 786 l -49 786 l -49 924 l 938 924 l 938 786 l 818 786 z "},"ऍ":{"ha":607,"x_min":-49,"x_max":656,"o":"m 418 1229 l 581 1229 l 581 1224 q 309 1010 581 1010 q 38 1224 38 1010 l 38 1229 l 200 1229 q 225 1170 200 1188 q 308 1153 250 1153 q 392 1170 367 1153 q 418 1229 418 1188 m 339 -7 q 133 52 197 -7 q 68 232 68 111 l 68 786 l -49 786 l -49 924 l 656 924 l 656 786 l 549 786 l 549 558 q 502 403 549 454 q 342 351 456 351 q 313 354 332 351 l 313 506 l 329 506 q 374 519 363 506 q 385 568 385 532 l 385 786 l 232 786 l 232 238 q 257 167 232 190 q 355 144 282 144 q 515 169 428 144 l 515 21 q 339 -7 438 -7 z "},"ऎ":{"ha":607,"x_min":-49,"x_max":656,"o":"m 547 924 l 656 924 l 656 786 l 549 786 l 549 558 q 502 403 549 454 q 342 351 456 351 q 313 354 332 351 l 313 506 l 329 506 q 374 519 363 506 q 385 568 385 532 l 385 786 l 232 786 l 232 238 q 257 167 232 190 q 355 144 282 144 q 515 169 428 144 l 515 21 q 339 -7 438 -7 q 133 52 197 -7 q 68 232 68 111 l 68 786 l -49 786 l -49 924 l 385 924 q 363 994 385 971 q 279 1017 340 1017 q 78 1067 140 1017 q 17 1243 17 1118 l 181 1243 q 203 1173 181 1196 q 288 1150 225 1150 q 485 1096 424 1150 q 547 924 547 1042 z "},"ए":{"ha":607,"x_min":-49,"x_max":656,"o":"m 340 -7 q 133 52 199 -7 q 68 235 68 111 l 68 786 l -49 786 l -49 924 l 656 924 l 656 786 l 549 786 l 549 558 q 502 403 549 454 q 342 351 456 351 q 313 354 332 351 l 313 506 l 329 506 q 374 519 363 506 q 385 568 385 532 l 385 786 l 232 786 l 232 240 q 257 167 232 190 q 357 144 282 144 q 517 169 432 144 l 517 21 q 340 -7 439 -7 z "},"ऐ":{"ha":607,"x_min":-49,"x_max":656,"o":"m 656 924 l 656 786 l 549 786 l 549 558 q 502 403 549 454 q 342 351 456 351 q 313 354 332 351 l 313 506 l 329 506 q 374 519 363 506 q 385 568 385 532 l 385 786 l 232 786 l 232 238 q 257 167 232 190 q 355 144 282 144 q 515 169 428 144 l 515 21 q 339 -7 438 -7 q 133 52 197 -7 q 68 232 68 111 l 68 786 l -49 786 l -49 924 l 376 924 l 149 1243 l 331 1243 l 544 924 l 656 924 z "},"ऑ":{"ha":1142,"x_min":65,"x_max":1190,"o":"m 1190 924 l 1190 786 l 1071 786 l 1071 0 l 907 0 l 907 786 l 765 786 l 765 0 l 601 0 l 601 296 l 485 296 l 485 272 q 214 50 482 50 q 65 68 124 50 l 65 218 q 203 199 136 199 q 297 219 271 199 q 324 279 322 239 l 324 349 q 304 408 324 389 q 238 428 285 428 l 156 428 l 156 579 l 238 579 q 304 598 285 579 q 324 656 324 617 l 324 701 q 298 761 324 742 q 210 781 272 781 q 83 763 147 781 l 83 913 q 214 931 138 931 q 485 707 485 931 l 485 656 q 421 504 485 540 q 471 438 456 483 l 601 438 l 601 924 l 1190 924 m 1117 1228 l 1117 1221 q 845 1008 1117 1008 q 574 1221 574 1008 l 574 1228 l 736 1228 q 761 1167 736 1185 q 844 1150 786 1150 q 927 1168 901 1150 q 953 1228 953 1186 l 1117 1228 z "},"ऒ":{"ha":1142,"x_min":65,"x_max":1190,"o":"m 1069 924 l 1190 924 l 1190 786 l 1071 786 l 1071 0 l 907 0 l 907 786 l 765 786 l 765 0 l 601 0 l 601 296 l 485 296 l 485 272 q 214 50 482 50 q 65 68 124 50 l 65 218 q 203 199 136 199 q 297 219 271 199 q 324 279 322 239 l 324 349 q 304 408 324 389 q 238 428 285 428 l 156 428 l 156 579 l 238 579 q 304 598 285 579 q 324 656 324 617 l 324 701 q 298 761 324 742 q 210 781 272 781 q 83 763 147 781 l 83 913 q 214 931 138 931 q 485 707 485 931 l 485 656 q 421 504 485 540 q 471 438 456 483 l 601 438 l 601 924 l 907 924 q 885 994 907 971 q 801 1017 863 1017 q 602 1067 664 1017 q 540 1243 540 1118 l 703 1243 q 725 1173 703 1196 q 810 1150 747 1150 q 1008 1096 946 1150 q 1069 924 1069 1042 z "},"ओ":{"ha":1142,"x_min":65,"x_max":1190,"o":"m 1190 924 l 1190 786 l 1071 786 l 1071 0 l 907 0 l 907 786 l 765 786 l 765 0 l 601 0 l 601 296 l 485 296 l 485 272 q 214 50 482 50 q 65 68 124 50 l 65 218 q 203 199 136 199 q 297 219 271 199 q 324 279 322 239 l 324 349 q 304 408 324 389 q 238 428 285 428 l 156 428 l 156 579 l 238 579 q 304 598 285 579 q 324 656 324 617 l 324 701 q 298 761 324 742 q 210 781 272 781 q 83 763 147 781 l 83 913 q 214 931 138 931 q 485 707 485 931 l 485 656 q 421 504 485 540 q 471 438 456 483 l 601 438 l 601 924 l 903 924 l 817 1049 q 715 1106 779 1106 q 679 1104 692 1106 l 679 1239 q 754 1243 707 1243 q 935 1129 863 1243 l 1071 924 l 1190 924 z "},"औ":{"ha":1142,"x_min":65,"x_max":1190,"o":"m 1190 924 l 1190 786 l 1071 786 l 1071 0 l 907 0 l 907 786 l 765 786 l 765 0 l 601 0 l 601 296 l 485 296 l 485 272 q 214 50 482 50 q 65 68 124 50 l 65 218 q 203 199 136 199 q 297 219 271 199 q 324 279 322 239 l 324 349 q 304 408 324 389 q 238 428 285 428 l 156 428 l 156 579 l 238 579 q 304 598 285 579 q 324 656 324 617 l 324 701 q 298 761 324 742 q 210 781 272 781 q 83 763 147 781 l 83 913 q 214 931 138 931 q 485 707 485 931 l 485 656 q 421 504 485 540 q 471 438 456 483 l 601 438 l 601 924 l 736 924 l 643 1049 q 540 1106 596 1106 q 504 1104 518 1106 l 504 1239 q 576 1243 531 1243 q 665 1214 622 1243 q 757 1118 708 1185 l 897 924 l 922 924 l 882 1044 q 858 1091 869 1078 q 828 1104 846 1104 q 803 1103 810 1104 l 803 1239 q 847 1243 824 1243 q 1004 1114 965 1243 l 1064 924 l 1190 924 z "},"क":{"ha":858,"x_min":-49,"x_max":906,"o":"m 258 701 q 299 697 279 701 l 299 557 q 265 560 293 560 q 221 542 238 560 q 204 490 204 525 l 204 283 q 221 231 204 249 q 281 214 238 214 q 349 226 324 214 l 349 786 l -49 786 l -49 924 l 906 924 l 906 786 l 508 786 l 508 693 q 597 701 550 701 q 807 496 807 701 l 807 292 q 761 139 807 190 q 608 88 715 88 q 578 90 600 88 l 578 243 l 597 242 q 640 258 629 243 q 651 307 651 272 l 651 490 q 635 542 651 525 q 576 560 618 560 q 508 551 533 560 l 508 0 l 347 0 l 347 90 q 258 78 322 78 q 99 126 150 78 q 49 276 49 175 l 49 496 q 258 701 49 701 z "},"ख":{"ha":1076,"x_min":-49,"x_max":1124,"o":"m 342 711 q 326 786 342 753 l -49 786 l -49 924 l 1124 924 l 1124 786 l 1004 786 l 1004 0 l 843 0 l 843 158 q 761 149 819 149 q 597 199 644 149 q 550 354 550 249 l 550 481 q 594 640 550 588 q 754 692 639 692 q 843 683 793 692 l 843 786 l 483 786 q 493 711 493 760 l 493 543 q 442 381 493 435 q 279 326 390 326 q 208 333 246 326 l 208 264 q 368 142 208 142 q 542 172 465 142 l 542 18 q 354 -7 457 -7 q 128 65 204 -7 q 51 261 51 136 l 51 622 l 208 622 l 208 476 q 274 472 238 472 q 342 544 342 472 l 342 711 m 774 549 q 697 482 697 549 l 697 354 q 714 304 697 321 q 774 288 731 288 q 843 296 818 288 l 843 540 q 774 549 801 549 z "},"ग":{"ha":681,"x_min":-49,"x_max":728,"o":"m 22 404 q 67 401 50 401 q 144 472 144 401 l 144 786 l -49 786 l -49 924 l 728 924 l 728 786 l 610 786 l 610 0 l 446 0 l 446 786 l 308 786 l 308 458 q 251 298 308 353 q 90 243 193 243 q 22 247 26 243 l 22 404 z "},"घ":{"ha":696,"x_min":-49,"x_max":744,"o":"m 461 786 l 246 786 q 232 711 232 763 l 232 647 q 247 599 232 615 q 303 581 263 582 l 361 581 l 361 429 l 297 429 q 240 413 256 429 q 224 364 224 396 l 224 318 q 253 249 224 269 q 349 229 283 229 q 461 244 415 229 l 461 786 m 68 711 q 78 786 68 760 l -49 786 l -49 924 l 744 924 l 744 786 l 626 786 l 626 0 l 461 0 l 461 97 q 322 82 397 82 q 128 140 196 82 q 60 299 60 197 l 60 369 q 128 508 60 476 q 68 642 68 544 l 68 711 z "},"ङ":{"ha":726,"x_min":-49,"x_max":776,"o":"m 628 365 q 583 365 628 365 q 538 456 538 365 q 628 547 538 547 q 719 456 719 547 q 628 365 719 365 m 549 228 l 549 204 q 269 -14 549 -14 q 72 10 179 -14 l 72 158 q 251 136 174 136 q 357 150 329 136 q 385 204 385 164 l 385 225 q 369 271 385 256 q 313 286 354 286 l 281 286 q 112 331 168 286 q 56 474 56 376 l 56 511 q 110 656 56 611 q 281 700 165 700 l 343 700 l 343 786 l -49 786 l -49 924 l 776 924 l 776 786 l 507 786 l 507 558 l 281 558 q 219 503 219 558 l 219 482 q 233 440 219 454 q 281 425 246 425 l 313 425 q 492 377 435 425 q 549 228 549 329 z "},"च":{"ha":668,"x_min":-49,"x_max":717,"o":"m 101 447 q 111 531 101 499 l 18 531 l 18 678 l 376 678 l 376 538 l 281 538 q 267 447 267 511 l 267 299 q 354 222 267 222 q 433 235 397 222 l 433 786 l -49 786 l -49 924 l 717 924 l 717 786 l 597 786 l 597 0 l 433 0 l 433 90 q 326 78 389 78 q 156 131 211 78 q 101 294 101 185 l 101 447 z "},"छ":{"ha":751,"x_min":-49,"x_max":800,"o":"m 529 464 q 508 535 529 514 q 446 557 488 557 q 367 544 404 557 l 367 681 q 454 693 403 693 l 454 786 l 244 786 q 229 711 229 763 l 229 526 q 244 478 229 494 q 300 461 260 461 l 397 461 l 397 317 l 306 317 q 242 303 260 317 q 224 249 224 289 l 224 233 q 252 169 224 185 q 375 153 281 153 q 499 174 469 153 q 529 249 529 196 l 529 464 m 65 711 q 81 786 65 753 l -49 786 l -49 924 l 800 924 l 800 786 l 607 786 l 607 668 q 689 492 689 633 l 689 240 q 619 60 689 115 q 378 6 550 6 q 132 57 206 6 q 58 225 58 108 l 58 261 q 126 389 58 356 q 65 521 65 421 l 65 711 z "},"ज":{"ha":808,"x_min":-49,"x_max":856,"o":"m 285 453 q 269 528 285 500 l 128 528 l 128 678 l 574 678 l 574 786 l -49 786 l -49 924 l 856 924 l 856 786 l 738 786 l 738 0 l 574 0 l 574 538 l 436 538 q 449 463 449 511 l 449 290 q 382 121 449 178 q 190 64 315 64 q 65 79 126 64 l 65 228 q 183 214 122 214 q 285 296 285 214 l 285 453 z "},"झ":{"ha":881,"x_min":-49,"x_max":929,"o":"m 283 450 l 646 450 l 646 786 l 519 786 l 519 558 l 285 558 q 237 546 250 558 q 224 507 224 533 l 224 503 q 237 463 224 475 q 283 450 250 450 m 297 311 l 285 311 q 116 356 172 311 q 60 499 60 401 l 60 511 q 115 656 60 611 q 285 700 169 700 l 354 700 l 354 786 l -49 786 l -49 924 l 929 924 l 929 786 l 810 786 l 810 0 l 646 0 l 646 321 l 511 321 q 535 243 535 294 l 535 200 q 482 48 535 93 q 322 3 429 3 q 219 13 253 3 l 219 -104 l 58 -104 l 58 231 l 219 231 l 219 153 q 294 146 244 146 q 374 211 374 146 l 374 243 q 357 294 374 276 q 297 311 340 311 z "},"ञ":{"ha":828,"x_min":-49,"x_max":876,"o":"m 304 299 l 304 478 q 281 542 304 521 q 200 564 258 564 q 85 547 142 564 l 85 694 q 203 714 140 714 q 468 489 468 714 l 468 457 l 593 457 l 593 786 l -49 786 l -49 924 l 876 924 l 876 786 l 757 786 l 757 0 l 593 0 l 593 315 l 468 315 l 468 285 q 406 119 468 176 q 203 63 343 63 q 82 82 146 63 l 82 228 q 200 211 149 211 q 304 299 304 211 z "},"ट":{"ha":569,"x_min":-49,"x_max":618,"o":"m 221 449 l 221 235 q 251 164 221 185 q 355 143 282 143 q 514 160 428 143 l 514 13 q 338 -7 417 -7 q 129 54 201 -7 q 57 232 57 115 l 57 461 q 300 686 57 686 l 329 686 l 329 786 l -49 786 l -49 924 l 618 924 l 618 786 l 493 786 l 493 538 l 318 538 q 221 449 221 538 z "},"ठ":{"ha":586,"x_min":-49,"x_max":633,"o":"m 371 204 l 371 497 q 293 567 371 567 q 215 497 215 567 l 215 204 q 293 133 215 133 q 371 204 371 133 m 529 501 l 529 207 q 293 -7 529 -7 q 57 207 57 -7 l 57 501 q 211 699 57 668 l 211 786 l -49 786 l -49 924 l 633 924 l 633 786 l 375 786 l 375 699 q 529 501 529 668 z "},"ड":{"ha":589,"x_min":-49,"x_max":638,"o":"m 549 225 l 549 204 q 269 -14 549 -14 q 74 10 178 -14 l 74 160 q 252 136 176 136 q 356 151 328 136 q 385 207 385 165 l 385 219 q 369 267 385 250 q 313 283 354 283 l 281 283 q 112 328 168 283 q 56 471 56 372 l 56 511 q 110 656 56 611 q 281 700 165 700 l 343 700 l 343 786 l -49 786 l -49 924 l 638 924 l 638 786 l 507 786 l 507 558 l 281 558 q 219 503 219 558 l 219 478 q 233 435 219 450 q 281 421 246 421 l 313 421 q 492 374 435 421 q 549 225 549 326 z "},"ढ":{"ha":593,"x_min":-49,"x_max":642,"o":"m 288 694 l 349 694 l 349 786 l -49 786 l -49 924 l 642 924 l 642 786 l 510 786 l 510 546 l 288 546 q 232 531 246 546 q 218 482 218 515 l 218 224 q 235 163 218 183 q 303 143 253 143 q 371 162 353 143 q 389 221 389 181 l 389 242 q 326 300 389 300 l 286 294 l 286 440 q 350 446 313 446 q 496 399 446 446 q 546 246 546 351 l 546 213 q 488 47 546 101 q 303 -7 429 -7 q 56 218 56 -7 l 56 488 q 110 645 56 596 q 288 694 165 694 z "},"ण":{"ha":888,"x_min":-49,"x_max":938,"o":"m 358 786 l 219 786 l 219 364 q 234 314 219 331 q 290 297 249 297 q 344 314 331 297 q 358 364 358 331 l 358 786 m 522 363 q 289 150 522 150 q 56 363 56 150 l 56 786 l -49 786 l -49 924 l 938 924 l 938 786 l 818 786 l 818 0 l 654 0 l 654 786 l 522 786 l 522 363 z "},"त":{"ha":632,"x_min":-49,"x_max":681,"o":"m 56 468 q 114 632 56 572 q 289 692 172 692 q 397 681 364 692 l 397 786 l -49 786 l -49 924 l 681 924 l 681 786 l 561 786 l 561 0 l 397 0 l 397 531 q 311 540 339 540 q 219 463 219 540 l 219 217 q 238 165 219 179 q 303 153 257 151 l 303 -3 l 265 -3 q 103 47 150 -3 q 56 201 56 97 l 56 468 z "},"थ":{"ha":811,"x_min":53,"x_max":860,"o":"m 576 924 l 860 924 l 860 786 l 740 786 l 740 0 l 576 0 l 576 125 q 403 107 500 107 q 145 183 238 107 q 53 397 53 258 l 53 568 l 221 568 q 313 590 286 568 q 339 665 339 611 l 339 718 q 328 768 339 753 q 285 783 318 783 q 240 767 251 783 q 229 715 229 750 l 235 665 l 78 665 q 72 717 72 690 q 281 931 72 931 q 438 878 389 931 q 488 719 488 825 l 488 639 q 428 478 488 532 q 243 425 369 425 l 221 425 l 221 403 q 264 292 221 325 q 408 258 307 258 q 576 275 508 258 l 576 924 z "},"द":{"ha":586,"x_min":-49,"x_max":636,"o":"m 47 297 l 47 483 q 104 642 47 594 q 285 690 161 690 l 347 690 l 347 786 l -49 786 l -49 924 l 636 924 l 636 786 l 511 786 l 511 542 l 285 542 q 226 526 242 542 q 211 478 211 511 l 211 303 q 292 235 211 235 q 363 244 326 235 l 363 371 l 526 371 l 526 -3 l 363 -3 l 363 100 q 268 90 324 90 q 47 297 47 90 z "},"ध":{"ha":696,"x_min":-49,"x_max":746,"o":"m 68 711 q 83 786 68 753 l -49 786 l -49 924 l 347 924 l 347 786 l 253 786 q 232 711 232 763 l 232 649 q 247 600 232 617 q 303 583 263 583 l 361 583 l 361 432 l 297 432 q 240 415 256 432 q 224 365 224 397 l 224 317 q 346 229 224 229 q 461 244 408 229 l 461 924 l 746 924 l 746 786 l 626 786 l 626 0 l 461 0 l 461 97 q 324 82 406 82 q 128 138 196 82 q 60 297 60 194 l 60 371 q 128 510 60 479 q 68 643 68 546 l 68 711 z "},"न":{"ha":831,"x_min":-49,"x_max":879,"o":"m 268 526 q 217 510 231 526 q 204 463 204 494 l 204 288 q 217 239 204 256 q 268 222 231 222 q 319 239 306 222 q 332 288 332 256 l 332 438 q 319 526 332 493 l 268 526 m 596 526 l 475 526 q 486 443 486 499 l 486 286 q 435 129 486 182 q 268 76 383 76 q 101 129 153 76 q 49 286 49 182 l 49 468 q 268 678 49 678 l 596 678 l 596 786 l -49 786 l -49 924 l 879 924 l 879 786 l 760 786 l 760 0 l 596 0 l 596 526 z "},"ऩ":{"ha":838,"x_min":-49,"x_max":888,"o":"m 58 -149 q 12 -149 58 -149 q -33 -58 -33 -149 q 58 33 -33 33 q 149 -58 149 33 q 58 -149 149 -149 m 276 526 q 226 510 239 526 q 213 463 213 494 l 213 288 q 226 239 213 256 q 276 222 239 222 q 326 239 313 222 q 339 288 339 256 l 339 438 q 328 526 339 497 l 276 526 m 603 526 l 483 526 q 494 443 494 471 l 494 286 q 443 129 494 182 q 276 76 392 76 q 56 286 56 76 l 56 468 q 276 678 56 678 l 603 678 l 603 786 l -49 786 l -49 924 l 888 924 l 888 786 l 768 786 l 768 0 l 603 0 l 603 526 z "},"प":{"ha":610,"x_min":-49,"x_max":660,"o":"m 375 786 l 222 786 l 222 378 q 303 310 222 310 q 375 322 350 310 l 375 786 m 375 0 l 375 178 q 276 164 351 164 q 110 216 161 164 q 58 371 58 268 l 58 786 l -49 786 l -49 924 l 660 924 l 660 786 l 540 786 l 540 0 l 375 0 z "},"फ":{"ha":878,"x_min":-49,"x_max":926,"o":"m 364 786 l 224 786 l 224 360 q 303 292 224 292 q 364 300 339 292 l 364 786 m 592 544 q 528 533 558 544 l 528 0 l 364 0 l 364 156 q 278 146 311 146 q 110 198 163 146 q 58 354 58 250 l 58 786 l -49 786 l -49 924 l 926 924 l 926 786 l 528 786 l 528 683 q 613 696 564 696 q 829 483 829 696 l 829 288 q 619 83 829 83 q 596 85 603 83 l 596 238 q 651 251 638 236 q 665 303 665 265 l 665 479 q 592 544 665 544 z "},"ब":{"ha":633,"x_min":-49,"x_max":682,"o":"m -49 924 l 682 924 l 682 786 l 563 786 l 563 0 l 407 0 l 407 93 q 301 81 369 81 q 112 131 175 81 q 49 299 49 181 l 49 485 q 109 653 49 603 q 294 703 169 703 q 407 686 363 703 l 407 786 l -49 786 l -49 924 m 407 550 q 301 567 357 567 q 219 533 244 567 l 407 361 l 407 550 m 204 306 q 311 217 204 217 q 407 226 349 217 l 407 240 l 204 431 l 204 306 z "},"भ":{"ha":875,"x_min":54,"x_max":925,"o":"m 349 588 l 349 714 q 336 763 349 747 q 285 779 324 779 q 233 763 246 779 q 221 714 221 747 l 226 661 l 63 661 q 57 718 57 694 q 285 931 57 931 q 513 718 513 931 l 513 588 l 640 588 l 640 924 l 925 924 l 925 786 l 806 786 l 806 0 l 640 0 l 640 449 l 506 449 l 506 278 q 280 78 506 78 q 54 278 54 78 l 54 390 q 281 588 54 588 l 349 588 m 349 282 l 349 449 l 281 449 q 226 433 240 449 q 213 385 213 417 l 213 282 q 226 234 213 250 q 281 218 240 218 q 335 234 321 218 q 349 282 349 250 z "},"म":{"ha":844,"x_min":-49,"x_max":894,"o":"m 614 0 l 614 474 l 489 474 l 489 278 q 263 79 489 79 q 38 278 38 79 l 38 415 q 264 613 38 613 l 332 613 l 332 786 l -49 786 l -49 924 l 894 924 l 894 786 l 775 786 l 775 0 l 614 0 m 489 613 l 614 613 l 614 786 l 489 786 l 489 613 m 332 283 l 332 474 l 264 474 q 210 458 224 474 q 196 410 196 442 l 196 283 q 210 235 196 250 q 264 219 224 219 q 318 235 304 219 q 332 283 332 251 z "},"य":{"ha":721,"x_min":-49,"x_max":769,"o":"m 215 711 q 206 786 215 760 l -49 786 l -49 924 l 769 924 l 769 786 l 650 786 l 650 0 l 486 0 l 486 132 q 360 119 431 119 q 135 183 219 119 q 51 369 51 247 l 51 546 l 83 546 q 188 565 160 546 q 215 636 215 583 l 215 711 m 375 711 l 375 606 q 213 438 375 444 l 213 390 q 368 272 213 272 q 486 283 433 272 l 486 786 l 365 786 q 375 711 375 756 z "},"र":{"ha":600,"x_min":-49,"x_max":647,"o":"m 372 711 q 358 786 372 756 l -49 786 l -49 924 l 647 924 l 647 786 l 526 786 q 536 711 536 760 l 536 553 q 322 342 536 342 q 228 354 272 342 l 228 233 q 364 142 228 142 q 544 174 458 142 l 544 22 q 333 -7 463 -7 q 134 56 204 -7 q 64 229 64 119 l 64 626 l 228 626 l 228 497 q 300 488 261 488 q 372 554 372 488 l 372 711 z "},"ऱ":{"ha":608,"x_min":-57,"x_max":657,"o":"m 382 711 q 368 786 382 756 l -49 786 l -49 924 l 657 924 l 657 786 l 536 786 q 546 711 546 760 l 546 553 q 332 342 546 342 q 238 354 281 342 l 238 233 q 374 142 238 142 q 554 174 468 142 l 554 22 q 343 -7 472 -7 q 144 56 214 -7 q 74 229 74 119 l 74 626 l 238 626 l 238 497 q 311 488 271 488 q 382 554 382 488 l 382 711 m 33 -210 q -12 -210 33 -210 q -57 -119 -57 -210 q 33 -28 -57 -28 q 122 -119 122 -28 q 33 -210 122 -210 z "},"ल":{"ha":893,"x_min":-49,"x_max":943,"o":"m 56 242 l 56 467 q 114 625 56 569 q 283 681 172 681 q 436 608 394 681 q 582 679 485 679 q 658 669 629 679 l 658 786 l -49 786 l -49 924 l 943 924 l 943 786 l 822 786 l 822 0 l 658 0 l 658 518 q 596 529 640 529 q 521 463 521 529 l 521 293 l 357 293 l 357 463 q 342 512 357 494 q 288 529 328 529 q 233 512 247 529 q 219 461 219 494 l 219 247 q 242 176 219 200 q 320 151 265 151 q 411 156 375 151 l 411 6 q 322 0 367 0 q 119 60 183 0 q 56 242 56 119 z "},"ळ":{"ha":854,"x_min":-49,"x_max":903,"o":"m 508 471 l 508 208 q 524 156 508 174 q 581 138 539 138 q 636 155 622 138 q 650 208 650 172 l 650 471 q 635 524 650 506 q 579 542 621 542 q 523 524 538 542 q 508 471 508 506 m 210 471 l 210 208 q 224 156 210 174 q 281 138 239 138 q 338 156 322 138 q 353 208 353 174 l 353 471 q 338 524 353 506 q 281 542 322 542 q 224 524 239 542 q 210 471 210 506 m 799 472 l 799 206 q 748 47 799 101 q 590 -7 697 -7 q 431 58 483 -7 q 275 -7 378 -7 q 56 206 56 -7 l 56 476 q 275 685 56 685 q 431 618 381 685 q 504 669 460 658 l 504 786 l -49 786 l -49 924 l 903 924 l 903 786 l 668 786 l 668 675 q 799 472 799 640 z "},"ऴ":{"ha":854,"x_min":-49,"x_max":903,"o":"m 521 -166 q 521 -211 521 -166 q 431 -257 521 -257 q 340 -166 340 -257 q 431 -75 340 -75 q 521 -166 521 -75 m 508 471 l 508 208 q 524 156 508 174 q 581 138 539 138 q 636 155 622 138 q 650 208 650 172 l 650 471 q 635 524 650 506 q 579 542 621 542 q 523 524 538 542 q 508 471 508 506 m 210 471 l 210 208 q 224 156 210 174 q 281 138 239 138 q 338 156 322 138 q 353 208 353 174 l 353 471 q 338 524 353 506 q 281 542 322 542 q 224 524 239 542 q 210 471 210 506 m 799 472 l 799 206 q 748 47 799 101 q 590 -7 697 -7 q 431 58 483 -7 q 275 -7 378 -7 q 56 206 56 -7 l 56 476 q 275 685 56 685 q 431 618 381 685 q 504 669 460 658 l 504 786 l -49 786 l -49 924 l 903 924 l 903 786 l 668 786 l 668 675 q 799 472 799 640 z "},"व":{"ha":613,"x_min":-49,"x_max":661,"o":"m 303 563 q 214 490 214 563 l 214 293 q 303 219 214 219 q 385 231 357 219 l 385 553 q 303 563 343 563 m 378 786 l -49 786 l -49 924 l 661 924 l 661 786 l 542 786 l 542 0 l 378 0 l 378 92 q 275 79 333 79 q 105 132 157 79 q 53 289 53 185 l 53 492 q 275 703 53 703 q 378 690 319 703 l 378 786 z "},"श":{"ha":874,"x_min":65,"x_max":922,"o":"m 538 717 l 538 536 q 318 331 538 331 q 229 343 254 331 l 229 253 q 354 149 229 149 q 521 182 435 149 l 521 29 q 331 0 433 0 q 132 69 199 0 q 65 247 65 138 l 65 560 l 229 560 l 229 486 q 303 475 263 475 q 358 492 343 475 q 374 542 374 510 l 374 711 q 358 762 374 744 q 301 779 343 779 q 229 708 229 779 q 235 656 229 683 l 71 656 q 65 717 65 686 q 301 931 65 931 q 538 717 538 931 m 639 924 l 922 924 l 922 786 l 803 786 l 803 0 l 639 0 l 639 924 z "},"ष":{"ha":639,"x_min":-51,"x_max":688,"o":"m -51 924 l 688 924 l 688 786 l 568 786 l 568 0 l 404 0 l 404 175 q 279 158 342 158 q 56 367 56 158 l 56 786 l -51 786 l -51 924 m 404 786 l 219 786 l 219 692 l 404 526 l 404 786 m 219 372 q 308 304 219 304 q 404 321 351 304 l 404 406 l 219 571 l 219 372 z "},"स":{"ha":875,"x_min":-49,"x_max":924,"o":"m 351 711 q 339 786 351 751 l -49 786 l -49 924 l 924 924 l 924 786 l 804 786 l 804 0 l 640 0 l 640 374 l 461 374 q 301 321 411 321 q 224 329 257 321 l 224 233 q 360 142 224 142 q 528 174 442 142 l 528 22 q 322 -7 444 -7 q 130 56 200 -7 q 60 229 60 119 l 60 626 l 224 626 l 224 474 q 289 465 257 465 q 351 533 351 465 l 351 711 m 640 515 l 640 786 l 503 786 q 513 711 513 760 l 513 515 l 640 515 z "},"ह":{"ha":611,"x_min":-49,"x_max":660,"o":"m 57 208 l 57 247 q 121 382 57 342 q 57 504 58 417 l 57 528 q 112 663 57 621 q 282 704 167 704 l 363 704 l 363 786 l -49 786 l -49 924 l 660 924 l 660 786 l 526 786 l 526 563 l 282 563 q 221 515 221 563 l 221 501 q 282 454 221 454 l 374 454 q 517 410 474 454 q 561 271 561 365 l 561 229 l 415 229 l 415 257 q 403 305 415 292 q 354 318 392 318 l 294 318 q 221 253 221 318 l 221 218 q 354 133 221 133 q 540 160 453 133 l 540 18 q 329 -10 451 -10 q 132 47 207 -10 q 57 208 57 103 z "},"़":{"ha":0,"x_min":-374,"x_max":-193,"o":"m -193 -159 q -193 -205 -193 -159 q -283 -250 -193 -250 q -374 -159 -374 -250 q -283 -68 -374 -68 q -193 -159 -193 -68 z "},"ऽ":{"ha":585,"x_min":44,"x_max":544,"o":"m 544 267 l 544 221 q 306 -7 544 -7 l 286 -7 q 44 221 44 -7 l 44 301 l 208 301 l 208 215 q 290 146 208 146 l 299 146 q 381 215 381 146 l 381 271 q 369 330 381 308 q 325 372 358 351 l 147 490 q 44 681 44 558 l 44 717 q 97 872 44 819 q 268 924 149 924 l 511 924 l 511 771 l 279 771 q 222 755 236 771 q 208 708 208 739 l 208 688 q 221 634 208 654 q 265 592 233 614 l 438 478 q 524 388 503 435 q 544 267 544 342 z "},"ा":{"ha":306,"x_min":-49,"x_max":354,"o":"m 71 786 l -49 786 l -49 924 l 354 924 l 354 786 l 235 786 l 235 0 l 71 0 l 71 786 z "},"ि":{"ha":306,"x_min":-49,"x_max":808,"o":"m 74 924 l 74 956 q 165 1174 74 1104 q 418 1244 256 1244 q 616 1228 518 1244 q 761 1194 714 1211 l 808 1178 l 808 1032 q 431 1093 619 1093 q 281 1060 324 1093 q 238 951 238 1028 l 238 924 l 354 924 l 354 786 l 235 786 l 235 0 l 71 0 l 71 786 l -49 786 l -49 924 l 74 924 z "},"ी":{"ha":306,"x_min":-232,"x_max":354,"o":"m 71 924 l 71 1036 q 1 1100 71 1100 q -69 1036 -69 1100 l -69 1001 l -232 1001 l -232 1038 q -171 1195 -232 1143 q 1 1247 -110 1247 q 235 1038 235 1247 l 235 924 l 354 924 l 354 786 l 235 786 l 235 0 l 71 0 l 71 786 l -49 786 l -49 924 l 71 924 z "},"ु":{"ha":0,"x_min":-629,"x_max":31,"o":"m -256 -217 l -181 -217 q -128 -204 -143 -217 q -114 -162 -114 -192 q -129 -119 -114 -132 q -179 -107 -144 -107 q -301 -119 -239 -107 l -301 8 q -158 22 -250 22 q -18 -20 -67 22 q 31 -160 31 -62 q -12 -301 31 -257 q -150 -344 -54 -344 l -275 -344 q -394 -321 -343 -344 q -497 -231 -444 -297 l -629 -69 l -444 -69 l -376 -150 q -319 -204 -342 -192 q -256 -217 -296 -217 z "},"ू":{"ha":0,"x_min":-378,"x_max":272,"o":"m -68 -344 q -92 -347 -74 -344 q -175 -354 -135 -354 q -327 -311 -276 -354 q -378 -172 -378 -268 q -335 -32 -378 -75 q -196 11 -292 11 l -122 11 q 4 -15 -49 11 q 108 -110 57 -40 l 272 -326 l 94 -326 l -12 -189 q -72 -129 -49 -143 q -142 -115 -96 -115 l -167 -115 q -218 -128 -204 -115 q -232 -170 -232 -140 q -217 -212 -232 -200 q -162 -225 -201 -225 q -68 -215 -122 -225 l -68 -344 z "},"ृ":{"ha":0,"x_min":-446,"x_max":-69,"o":"m -71 -149 q -191 -136 -139 -136 q -264 -151 -243 -136 q -285 -205 -285 -165 q -264 -259 -285 -244 q -208 -274 -243 -274 q -69 -261 -154 -274 l -69 -410 q -207 -424 -133 -424 q -446 -205 -446 -424 q -207 14 -446 14 q -71 0 -154 14 l -71 -149 z "},"ॄ":{"ha":0,"x_min":-443,"x_max":-65,"o":"m -278 -425 l -278 -431 q -261 -472 -278 -462 q -180 -481 -244 -481 q -65 -474 -115 -481 l -65 -621 q -212 -631 -124 -631 q -443 -426 -443 -631 q -404 -306 -443 -349 q -443 -172 -443 -261 q -214 13 -443 13 q -72 4 -144 13 l -72 -136 q -198 -128 -150 -128 q -262 -139 -246 -128 q -279 -182 -279 -150 l -279 -186 q -264 -228 -279 -218 q -215 -237 -249 -237 l -108 -237 l -108 -371 l -211 -371 q -262 -382 -247 -371 q -278 -425 -278 -393 z "},"ॅ":{"ha":0,"x_min":-424,"x_max":119,"o":"m -43 1231 l 119 1231 l 119 1225 q -152 1011 119 1011 q -424 1225 -424 1011 l -424 1231 l -261 1231 q -236 1172 -261 1189 q -153 1154 -211 1154 q -69 1172 -94 1154 q -43 1231 -43 1189 z "},"ॆ":{"ha":0,"x_min":-601,"x_max":-71,"o":"m -232 924 q -254 994 -232 971 q -339 1017 -276 1017 q -540 1067 -478 1017 q -601 1243 -601 1118 l -437 1243 q -415 1173 -437 1196 q -331 1150 -393 1150 q -133 1097 -194 1150 q -71 924 -71 1043 l -232 924 z "},"े":{"ha":0,"x_min":-461,"x_max":-71,"o":"m -461 1239 q -387 1243 -435 1243 q -206 1129 -281 1243 l -71 924 l -237 924 l -324 1049 q -425 1106 -364 1106 q -461 1104 -449 1106 l -461 1239 z "},"ै":{"ha":0,"x_min":-629,"x_max":-71,"o":"m -287 1243 q -129 1114 -169 1243 l -71 924 l -211 924 l -253 1044 q -276 1091 -264 1078 q -306 1104 -287 1104 q -332 1103 -325 1104 l -332 1239 q -287 1243 -310 1243 m -629 1239 q -558 1243 -603 1243 q -469 1214 -512 1243 q -376 1118 -426 1185 l -237 924 l -397 924 l -492 1049 q -593 1106 -536 1106 q -629 1104 -617 1106 l -629 1239 z "},"ॉ":{"ha":306,"x_min":-112,"x_max":429,"o":"m 267 1228 l 429 1228 l 429 1221 q 158 1008 429 1008 q -112 1221 -112 1008 l -112 1228 l 50 1228 q 75 1167 50 1185 q 158 1150 100 1150 q 241 1168 215 1150 q 267 1228 267 1186 m 71 786 l -49 786 l -49 924 l 354 924 l 354 786 l 235 786 l 235 0 l 71 0 l 71 786 z "},"ॊ":{"ha":306,"x_min":-296,"x_max":354,"o":"m 71 786 l -49 786 l -49 924 l 71 924 q 49 994 71 971 q -35 1017 26 1017 q -234 1067 -172 1017 q -296 1243 -296 1118 l -133 1243 q -111 1173 -133 1196 q -26 1150 -89 1150 q 172 1096 110 1150 q 233 924 233 1042 l 354 924 l 354 786 l 235 786 l 235 0 l 71 0 l 71 786 z "},"ो":{"ha":306,"x_min":-157,"x_max":354,"o":"m 354 924 l 354 786 l 235 786 l 235 0 l 71 0 l 71 786 l -49 786 l -49 924 l 67 924 l -19 1049 q -121 1106 -57 1106 q -157 1104 -144 1106 l -157 1239 q -82 1243 -129 1243 q 99 1129 26 1243 l 235 924 l 354 924 z "},"ौ":{"ha":306,"x_min":-332,"x_max":354,"o":"m 354 924 l 354 786 l 235 786 l 235 0 l 71 0 l 71 786 l -161 786 l -161 924 l -100 924 l -193 1049 q -296 1106 -240 1106 q -332 1104 -318 1106 l -332 1239 q -258 1243 -304 1243 q -79 1118 -171 1243 l 61 924 l 86 924 l 46 1044 q 22 1091 33 1078 q -8 1104 10 1104 q -33 1103 -26 1104 l -33 1239 q 11 1243 -12 1243 q 168 1114 129 1243 l 228 924 l 354 924 z "},"्":{"ha":0,"x_min":-224,"x_max":96,"o":"m 96 -310 l -75 -310 l -224 -81 l -75 -81 l 96 -310 z "},"ॐ":{"ha":1126,"x_min":61,"x_max":1054,"o":"m 596 406 l 596 717 q 825 931 596 931 q 1054 719 1054 931 l 1054 244 q 985 56 1054 118 q 768 -7 915 -7 q 636 7 697 -7 l 636 157 q 770 144 699 144 q 869 170 842 144 q 896 256 896 196 l 896 711 q 881 762 896 744 q 825 779 867 779 q 769 762 783 779 q 754 711 754 744 l 754 338 q 741 281 754 297 q 686 264 728 264 l 479 264 l 479 217 q 208 -7 476 -7 q 61 11 118 -7 l 61 161 q 199 142 131 142 q 292 162 267 142 q 318 222 318 182 l 318 311 q 299 370 318 350 q 233 390 281 390 l 150 390 l 150 542 l 233 542 q 299 560 281 542 q 318 618 318 579 l 318 701 q 292 761 318 742 q 205 781 267 781 q 79 763 143 781 l 79 913 q 210 931 131 931 q 479 707 479 931 l 479 618 q 417 467 479 503 q 464 406 447 449 l 596 406 m 806 1167 l 806 1161 q 533 947 806 947 q 261 1161 261 947 l 261 1167 l 425 1167 q 450 1106 425 1124 q 533 1089 475 1089 q 617 1107 592 1089 q 642 1167 642 1125 l 806 1167 m 619 1253 q 619 1211 619 1253 q 534 1168 619 1168 q 449 1253 449 1168 q 534 1339 449 1339 q 619 1253 619 1339 z "},"॑":{"ha":0,"x_min":-235,"x_max":-71,"o":"m -235 1343 l -71 1343 l -71 992 l -235 992 l -235 1343 z "},"॒":{"ha":0,"x_min":-658,"x_max":-60,"o":"m -60 -251 l -658 -251 l -658 -112 l -60 -112 l -60 -251 z "},"॓":{"ha":468,"x_min":51,"x_max":396,"o":"m 51 1343 l 225 1343 l 396 992 l 222 992 l 51 1343 z "},"॔":{"ha":463,"x_min":51,"x_max":396,"o":"m 222 1343 l 396 1343 l 225 992 l 51 992 l 222 1343 z "},"क़":{"ha":857,"x_min":-47,"x_max":907,"o":"m 180 -150 q 134 -150 180 -150 q 89 -60 89 -150 q 180 31 89 31 q 271 -60 271 31 q 180 -150 271 -150 m 260 701 q 300 697 281 701 l 300 557 q 267 560 294 560 q 222 542 239 560 q 206 490 206 525 l 206 283 q 222 231 206 249 q 282 214 239 214 q 350 226 325 214 l 350 786 l -47 786 l -47 924 l 907 924 l 907 786 l 510 786 l 510 693 q 599 701 551 701 q 808 496 808 701 l 808 292 q 763 139 808 190 q 610 88 717 88 q 579 90 601 88 l 579 243 l 599 242 q 642 258 631 243 q 653 307 653 272 l 653 490 q 636 542 653 525 q 577 560 619 560 q 510 551 535 560 l 510 0 l 349 0 l 349 90 q 260 78 324 78 q 101 126 151 78 q 50 276 50 175 l 50 496 q 260 701 50 701 z "},"ख़":{"ha":1079,"x_min":-49,"x_max":1129,"o":"m 347 711 q 332 786 347 753 l -49 786 l -49 924 l 1129 924 l 1129 786 l 1008 786 l 1008 0 l 849 0 l 849 158 q 767 149 819 149 q 602 199 650 149 q 554 354 554 249 l 554 481 q 599 640 554 588 q 758 692 644 692 q 849 683 799 692 l 849 786 l 489 786 q 499 711 499 760 l 499 543 q 447 381 499 435 q 285 326 396 326 q 214 333 251 326 l 214 264 q 374 142 214 142 q 547 172 471 142 l 547 18 q 360 -7 463 -7 q 133 65 210 -7 q 57 261 57 136 l 57 622 l 214 622 l 214 476 q 272 472 243 472 q 347 544 347 472 l 347 711 m 779 549 q 703 482 703 549 l 703 354 q 719 304 703 321 q 780 288 736 288 q 849 296 824 288 l 849 540 q 779 549 807 549 m -25 -97 q -25 -51 -25 -97 q 65 -6 -25 -6 q 154 -97 154 -6 q 65 -187 154 -187 q -25 -97 -25 -187 z "},"ग़":{"ha":689,"x_min":-40,"x_max":736,"o":"m 31 404 q 75 401 58 401 q 153 472 153 401 l 153 786 l -40 786 l -40 924 l 736 924 l 736 786 l 618 786 l 618 0 l 454 0 l 454 786 l 317 786 l 317 458 q 259 298 317 353 q 99 243 201 243 q 31 247 35 243 l 31 404 m 78 59 q 78 105 78 59 q 168 150 78 150 q 258 59 258 150 q 168 -32 258 -32 q 78 59 78 -32 z "},"ज़":{"ha":808,"x_min":-49,"x_max":856,"o":"m 285 453 q 269 528 285 500 l 128 528 l 128 678 l 574 678 l 574 786 l -49 786 l -49 924 l 856 924 l 856 786 l 738 786 l 738 0 l 574 0 l 574 538 l 436 538 q 449 463 449 511 l 449 290 q 382 121 449 178 q 190 64 315 64 q 65 79 126 64 l 65 228 q 183 214 122 214 q 285 296 285 214 l 285 453 m 78 -174 q 33 -174 78 -174 q -12 -83 -12 -174 q 78 8 -12 8 q 169 -83 169 8 q 78 -174 169 -174 z "},"ड़":{"ha":590,"x_min":-49,"x_max":638,"o":"m 549 225 l 549 204 q 269 -14 549 -14 q 74 10 178 -14 l 74 160 q 252 136 176 136 q 356 151 328 136 q 385 207 385 165 l 385 219 q 369 267 385 250 q 313 283 354 283 l 281 283 q 112 328 168 283 q 56 471 56 372 l 56 511 q 110 656 56 611 q 281 700 165 700 l 343 700 l 343 786 l -49 786 l -49 924 l 638 924 l 638 786 l 507 786 l 507 558 l 281 558 q 219 503 219 558 l 219 478 q 233 435 219 450 q 281 421 246 421 l 313 421 q 492 374 435 421 q 549 225 549 326 m 306 -265 q 260 -265 306 -265 q 215 -175 215 -265 q 306 -85 215 -85 q 396 -175 396 -85 q 306 -265 396 -265 z "},"ढ़":{"ha":593,"x_min":-49,"x_max":642,"o":"m 396 -176 q 396 -221 396 -176 q 306 -267 396 -267 q 215 -176 215 -267 q 306 -85 215 -85 q 396 -176 396 -85 m 331 300 q 286 289 306 300 l 286 435 q 353 446 313 446 q 498 399 450 446 q 546 246 546 353 l 546 213 q 488 47 546 101 q 303 -7 429 -7 q 56 218 56 -7 l 56 488 q 110 645 56 596 q 288 694 165 694 l 349 694 l 349 786 l -49 786 l -49 924 l 642 924 l 642 786 l 510 786 l 510 546 l 288 546 q 232 531 246 546 q 218 482 218 515 l 218 224 q 235 163 218 183 q 303 143 253 143 q 371 162 353 143 q 389 221 389 181 l 389 240 q 331 300 389 300 z "},"फ़":{"ha":890,"x_min":-50,"x_max":939,"o":"m 376 786 l 236 786 l 236 360 q 315 292 236 292 q 376 300 351 292 l 376 786 m 604 544 q 540 533 571 544 l 540 0 l 376 0 l 376 156 q 290 146 322 146 q 123 198 175 146 q 71 354 71 250 l 71 786 l -50 786 l -50 924 l 939 924 l 939 786 l 540 786 l 540 683 q 625 696 576 696 q 842 483 842 696 l 842 288 q 633 83 842 83 q 608 85 615 83 l 608 238 q 664 251 650 236 q 678 303 678 265 l 678 479 q 604 544 678 544 m 127 -111 q 82 -111 127 -111 q 36 -20 36 -111 q 127 71 36 71 q 218 -20 218 71 q 127 -111 218 -111 z "},"य़":{"ha":729,"x_min":-49,"x_max":778,"o":"m 224 711 q 214 786 224 760 l -49 786 l -49 924 l 778 924 l 778 786 l 658 786 l 658 0 l 494 0 l 494 132 q 368 119 439 119 q 144 183 228 119 q 60 369 60 247 l 60 546 l 92 546 q 196 565 168 546 q 224 636 224 583 l 224 711 m 383 711 l 383 606 q 221 438 383 444 l 221 390 q 376 272 221 272 q 494 283 442 272 l 494 786 l 375 786 q 383 711 383 756 m 89 -85 q 1 6 1 -85 q 89 97 1 97 q 181 6 181 97 q 89 -85 181 -85 z "},"ॠ":{"ha":1039,"x_min":-49,"x_max":1088,"o":"m 1088 786 l 593 786 l 593 603 q 736 594 668 594 q 826 671 826 594 l 826 688 l 985 688 l 985 263 l 901 263 q 853 245 867 263 q 840 193 840 228 q 906 126 840 126 l 961 126 l 961 -11 l 903 -11 q 856 -24 871 -11 q 840 -76 840 -36 q 858 -128 840 -115 q 926 -142 876 -142 q 1022 -133 976 -142 l 1022 -274 q 907 -281 976 -281 q 678 -96 678 -281 q 728 50 678 0 q 681 186 681 94 q 833 367 681 354 l 833 467 q 728 443 797 443 q 593 451 660 443 l 593 0 l 439 0 l 439 74 q 450 274 439 211 l 447 274 q 350 135 424 222 l 244 19 l 40 19 l 40 24 l 429 439 l 429 497 q 397 525 429 513 q 309 538 365 538 q 226 515 253 538 q 200 443 200 492 l 200 357 l 42 357 l 42 454 q 297 689 42 689 q 386 681 350 689 q 429 667 422 674 l 429 786 l -49 786 l -49 924 l 1088 924 l 1088 786 z "},"ॡ":{"ha":893,"x_min":-49,"x_max":943,"o":"m 822 200 l 690 200 q 640 189 656 200 q 624 144 624 178 q 639 100 624 110 q 688 90 654 90 l 786 90 l 786 -50 l 692 -50 q 640 -62 656 -50 q 625 -108 625 -74 q 642 -151 625 -142 q 722 -161 658 -161 q 829 -156 786 -161 l 829 -303 q 692 -310 788 -310 q 461 -107 461 -310 q 501 19 461 -28 q 460 151 460 64 q 658 339 460 328 l 658 499 q 642 519 658 510 q 594 529 625 529 q 521 463 521 529 l 521 365 l 357 365 l 357 463 q 342 512 357 494 q 288 529 328 529 q 233 512 247 529 q 219 461 219 494 l 219 247 q 242 176 219 200 q 331 151 265 151 l 358 151 l 358 0 l 322 0 q 119 60 183 0 q 56 242 56 119 l 56 467 q 114 625 56 569 q 283 681 172 681 q 436 608 394 681 q 581 679 485 679 q 658 665 644 679 l 658 786 l -49 786 l -49 924 l 943 924 l 943 786 l 822 786 l 822 200 z "},"।":{"ha":432,"x_min":197,"x_max":361,"o":"m 197 0 l 197 924 l 361 924 l 361 0 l 197 0 z "},"॥":{"ha":615,"x_min":86,"x_max":544,"o":"m 381 0 l 381 924 l 544 924 l 544 0 l 381 0 m 86 0 l 86 924 l 250 924 l 250 0 l 86 0 z "},"०":{"ha":642,"x_min":58,"x_max":583,"o":"m 407 721 q 388 786 407 764 q 321 808 369 808 q 253 787 272 808 q 235 721 235 765 l 235 233 q 253 167 235 190 q 321 144 272 144 q 388 167 369 144 q 407 233 407 189 l 407 721 m 58 728 q 123 903 58 839 q 321 968 188 968 q 519 903 454 968 q 583 728 583 839 l 583 226 q 519 51 583 115 q 321 -14 454 -14 q 123 51 188 -14 q 58 226 58 115 l 58 728 z "},"१":{"ha":428,"x_min":19,"x_max":356,"o":"m 356 954 l 356 0 l 178 0 l 178 746 l 19 629 l 19 824 l 196 954 l 356 954 z "},"२":{"ha":597,"x_min":51,"x_max":544,"o":"m 258 961 q 544 738 544 961 l 544 657 q 439 444 543 519 l 319 349 q 247 277 263 303 q 232 200 232 251 l 232 157 l 536 157 l 536 0 l 51 0 l 51 219 q 83 353 51 300 q 176 450 115 406 l 307 557 q 353 609 342 582 q 365 685 365 636 l 365 718 q 342 777 365 757 q 237 797 319 797 q 69 763 154 797 l 69 932 q 258 961 157 961 z "},"३":{"ha":574,"x_min":35,"x_max":515,"o":"m 222 963 q 440 903 368 963 q 511 738 511 844 l 511 642 q 415 486 511 514 q 515 342 515 468 l 515 217 q 444 51 515 110 q 238 -8 372 -8 q 35 21 103 -8 l 35 188 q 228 153 119 153 q 338 235 338 153 l 338 318 q 317 378 338 360 q 250 397 297 397 l 144 397 l 144 561 l 247 561 q 315 583 294 561 q 335 647 335 604 l 335 719 q 228 800 335 800 q 56 776 121 800 l 56 943 q 222 963 121 963 z "},"४":{"ha":619,"x_min":14,"x_max":613,"o":"m 613 321 l 613 167 l 521 167 l 521 0 l 354 0 l 354 167 l 14 167 l 14 329 l 289 954 l 521 954 l 521 321 l 613 321 m 361 321 l 361 774 l 167 321 l 361 321 z "},"५":{"ha":604,"x_min":63,"x_max":551,"o":"m 69 954 l 522 954 l 522 789 l 244 789 l 244 589 q 331 592 274 592 q 494 538 436 592 q 551 381 551 483 l 551 215 q 481 51 551 110 q 283 -8 411 -8 q 63 24 154 -8 l 63 189 q 258 153 174 153 q 374 233 374 153 l 374 356 q 353 417 374 399 q 297 435 332 435 q 69 421 261 435 l 69 954 z "},"६":{"ha":632,"x_min":58,"x_max":583,"o":"m 407 388 q 324 467 407 467 q 235 450 264 467 l 235 229 q 253 164 235 186 q 321 142 272 142 q 388 164 369 142 q 407 229 407 186 l 407 388 m 58 713 q 128 892 58 824 q 349 961 197 961 q 540 933 467 961 l 540 765 q 349 797 463 797 q 235 693 235 797 l 235 601 q 358 618 281 618 q 525 562 467 618 q 583 404 583 506 l 583 226 q 519 51 583 115 q 321 -14 454 -14 q 123 51 188 -14 q 58 226 58 115 l 58 713 z "},"७":{"ha":513,"x_min":7,"x_max":489,"o":"m 7 954 l 489 954 l 489 813 l 376 471 q 324 142 324 306 l 324 0 l 144 0 l 144 156 q 200 497 144 338 l 292 790 l 7 790 l 7 954 z "},"८":{"ha":651,"x_min":58,"x_max":593,"o":"m 593 733 l 593 638 q 519 475 593 524 q 593 314 593 426 l 593 221 q 526 49 593 111 q 325 -14 460 -14 q 124 49 190 -14 q 58 221 58 111 l 58 314 q 132 475 58 426 q 60 638 60 525 l 60 733 q 125 906 60 843 q 325 968 190 968 q 526 906 460 968 q 593 733 593 843 m 233 731 l 233 632 q 326 544 233 544 q 418 632 418 544 l 418 731 q 326 815 418 815 q 233 731 233 815 m 419 224 l 419 318 q 326 407 419 407 q 232 318 232 407 l 232 224 q 326 139 232 139 q 419 224 419 139 z "},"९":{"ha":632,"x_min":49,"x_max":574,"o":"m 397 724 q 378 790 397 767 q 311 813 360 813 q 244 790 263 813 q 225 724 225 768 l 225 558 q 307 475 225 475 q 397 493 365 475 l 397 724 m 49 728 q 113 903 49 839 q 311 968 178 968 q 509 903 444 968 q 574 728 574 839 l 574 221 q 501 53 574 114 q 289 -7 428 -7 q 82 22 150 -7 l 82 189 q 282 154 167 154 q 397 239 397 154 l 397 343 q 256 322 353 322 q 103 379 158 322 q 49 539 49 436 l 49 728 z "},"॰":{"ha":583,"x_min":63,"x_max":522,"o":"m 226 528 q 217 516 226 528 q 208 453 208 504 q 226 378 208 401 q 292 354 244 354 q 358 378 339 354 q 376 453 376 403 q 358 528 376 504 q 292 553 339 553 q 226 528 244 553 m 63 454 q 118 625 63 563 q 292 688 174 688 q 466 625 410 688 q 522 454 522 563 q 466 283 522 346 q 292 221 410 221 q 63 454 63 221 z "},"ॲ":{"ha":826,"x_min":56,"x_max":947,"o":"m 785 1231 l 947 1231 l 947 1225 q 676 1011 947 1011 q 404 1225 404 1011 l 404 1231 l 567 1231 q 592 1172 567 1189 q 675 1154 617 1154 q 759 1172 733 1154 q 785 1231 785 1189 m 592 438 l 592 924 l 875 924 l 875 786 l 756 786 l 756 0 l 592 0 l 592 296 l 475 296 l 475 272 q 204 50 472 50 q 56 68 114 50 l 56 218 q 194 199 126 199 q 287 219 261 199 q 314 279 313 239 l 314 349 q 294 408 314 389 q 228 428 275 428 l 146 428 l 146 579 l 228 579 q 294 598 275 579 q 314 656 314 617 l 314 701 q 289 761 314 742 q 201 781 264 781 q 74 763 138 781 l 74 913 q 204 931 128 931 q 475 707 475 931 l 475 656 q 411 504 475 540 q 461 438 446 483 l 592 438 z "},"ॽ":{"ha":631,"x_min":67,"x_max":567,"o":"m 67 626 l 67 765 q 128 927 67 869 q 317 985 190 985 q 505 927 443 985 q 567 765 567 869 l 567 482 q 523 325 567 376 q 374 265 479 274 l 374 0 l 219 0 l 219 410 l 317 410 q 385 432 367 411 q 403 493 403 453 l 403 760 q 317 832 403 832 q 231 760 231 832 l 231 626 l 67 626 z "},"​":{"ha":0,"x_min":0,"x_max":0,"o":""},"‌":{"ha":0,"x_min":-32,"x_max":33,"o":"m 33 -319 l -32 -319 l -32 1126 l 33 1126 l 33 -319 z "},"‍":{"ha":0,"x_min":-176,"x_max":179,"o":"m 33 -319 l -32 -319 l -32 882 l -128 781 l -174 826 l -44 956 l -176 1088 l -131 1133 l 1 1001 l 135 1133 l 179 1089 l 46 956 l 179 824 l 133 778 l 33 882 l 33 -319 z "},"–":{"ha":779,"x_min":57,"x_max":703,"o":"m 57 533 l 703 533 l 703 382 l 57 382 l 57 533 z "},"—":{"ha":1108,"x_min":57,"x_max":1040,"o":"m 57 535 l 1040 535 l 1040 382 l 57 382 l 57 535 z "},"‘":{"ha":267,"x_min":36,"x_max":231,"o":"m 110 685 q 36 754 36 685 q 74 879 36 803 q 151 1010 113 956 l 231 1010 l 172 685 l 110 685 z "},"’":{"ha":267,"x_min":36,"x_max":231,"o":"m 156 1010 q 231 940 231 1010 q 193 818 231 893 q 115 685 156 743 l 36 685 l 94 1010 l 156 1010 z "},"‚":{"ha":267,"x_min":36,"x_max":231,"o":"m 156 178 q 231 107 231 178 q 115 -149 231 25 l 36 -149 l 94 178 l 156 178 z "},"“":{"ha":472,"x_min":36,"x_max":436,"o":"m 110 685 q 36 754 36 685 q 74 879 36 803 q 151 1010 113 956 l 222 1010 l 165 685 l 110 685 m 324 685 q 250 754 250 685 q 288 879 250 803 q 365 1010 326 956 l 436 1010 l 379 685 l 324 685 z "},"”":{"ha":472,"x_min":36,"x_max":436,"o":"m 149 1010 q 222 940 222 1010 q 185 817 222 893 q 108 685 147 742 l 36 685 l 94 1010 l 149 1010 m 363 1010 q 436 940 436 1010 q 399 817 436 893 q 322 685 361 742 l 250 685 l 308 1010 l 363 1010 z "},"„":{"ha":472,"x_min":36,"x_max":436,"o":"m 149 178 q 222 107 222 178 q 108 -149 222 22 l 36 -149 l 94 178 l 149 178 m 363 178 q 436 107 436 178 q 322 -149 436 22 l 250 -149 l 308 178 l 363 178 z "},"†":{"ha":526,"x_min":39,"x_max":493,"o":"m 183 1135 l 347 1135 q 335 911 347 1029 q 493 924 407 924 l 493 786 q 335 797 415 786 q 347 543 347 679 l 347 -42 l 183 -42 l 183 543 q 196 797 183 678 q 39 786 126 786 l 39 924 q 196 911 108 924 q 183 1135 183 1029 z "},"‡":{"ha":528,"x_min":38,"x_max":492,"o":"m 183 1135 l 346 1135 q 335 911 346 1042 q 492 924 404 924 l 492 786 q 335 797 415 786 q 335 296 340 556 q 492 308 404 308 l 492 171 q 335 182 415 171 q 346 -42 346 106 l 183 -42 q 194 182 183 90 q 38 171 125 171 l 38 308 q 194 296 125 308 q 194 797 189 554 q 38 786 125 786 l 38 924 q 194 911 107 924 q 183 1135 183 1029 z "},"•":{"ha":357,"x_min":49,"x_max":304,"o":"m 176 336 q 113 336 176 336 q 49 464 49 336 q 176 592 49 592 q 304 464 304 592 q 176 336 304 336 z "},"…":{"ha":954,"x_min":56,"x_max":865,"o":"m 460 -6 q 415 -6 460 -6 q 369 85 369 -6 q 460 176 369 176 q 551 85 551 176 q 460 -6 551 -6 m 147 -6 q 101 -6 147 -6 q 56 85 56 -6 q 147 176 56 176 q 238 85 238 176 q 147 -6 238 -6 m 774 -6 q 729 -6 774 -6 q 683 85 683 -6 q 774 176 683 176 q 865 85 865 176 q 774 -6 865 -6 z "},"‰":{"ha":1358,"x_min":49,"x_max":1314,"o":"m 1127 -10 q 1034 -10 1127 -10 q 940 217 940 -10 q 1127 444 940 444 q 1314 217 1314 444 q 1127 -10 1314 -10 m 1126 104 q 1157 104 1126 104 q 1189 217 1189 104 q 1126 331 1189 331 q 1063 217 1063 331 q 1126 104 1063 104 m 703 -10 q 610 -10 703 -10 q 517 217 517 -10 q 703 444 517 444 q 890 217 890 444 q 703 -10 890 -10 m 640 217 q 640 161 640 217 q 703 104 640 104 q 765 217 765 104 q 703 331 765 331 q 640 217 640 331 m 235 510 q 142 510 235 510 q 49 737 49 510 q 235 964 49 964 q 422 737 422 964 q 235 510 422 510 m 234 624 q 266 624 234 624 q 297 737 297 624 q 234 850 297 850 q 171 737 171 850 q 234 624 171 624 m 624 954 l 743 954 l 317 0 l 196 0 l 624 954 z "},"‹":{"ha":640,"x_min":142,"x_max":488,"o":"m 310 701 l 488 701 l 318 447 l 488 193 l 310 193 l 142 447 l 310 701 z "},"›":{"ha":603,"x_min":142,"x_max":488,"o":"m 142 701 l 319 701 l 488 447 l 319 193 l 142 193 l 311 447 l 142 701 z "},"⁄":{"ha":436,"x_min":-104,"x_max":542,"o":"m 426 954 l 542 954 l 10 0 l -104 0 l 426 954 z "},"⁴":{"ha":439,"x_min":28,"x_max":432,"o":"m 258 617 l 258 929 l 133 617 l 258 617 m 371 1025 l 371 617 l 432 617 l 432 515 l 371 515 l 371 400 l 258 400 l 258 515 l 28 515 l 28 622 l 194 1025 l 371 1025 z "},"€":{"ha":629,"x_min":25,"x_max":564,"o":"m 275 328 l 275 232 q 386 153 275 153 q 564 174 497 153 l 564 14 q 388 -7 489 -7 q 97 215 97 -7 l 97 328 l 25 328 l 25 446 l 97 446 l 97 518 l 25 518 l 25 635 l 97 635 l 97 738 q 170 902 97 843 q 389 961 243 961 q 560 940 485 961 l 560 778 q 406 801 485 801 q 301 781 328 801 q 275 721 275 761 l 275 635 l 438 635 l 438 518 l 275 518 l 275 446 l 438 446 l 438 328 l 275 328 z "},"₹":{"ha":672,"x_min":64,"x_max":622,"o":"m 514 575 l 514 556 q 458 397 514 447 q 275 347 401 347 l 249 347 l 526 0 l 333 0 l 65 346 l 65 483 l 269 483 q 337 502 319 483 q 354 561 354 521 l 354 575 l 65 575 l 65 696 l 354 696 l 354 718 q 279 786 354 786 l 64 786 l 64 924 l 621 924 l 621 786 l 486 786 q 514 713 514 760 l 514 696 l 622 696 l 622 575 l 514 575 z "},"ℓ":{"ha":675,"x_min":26,"x_max":621,"o":"m 26 342 l 138 396 l 138 792 q 195 974 138 908 q 372 1039 253 1039 q 556 969 492 1039 q 621 768 621 899 q 311 294 621 483 l 311 210 q 378 147 311 147 q 461 165 425 147 l 461 10 q 344 -11 419 -11 q 185 42 233 -11 q 138 194 138 94 l 138 207 q 26 160 29 163 l 26 342 m 311 792 l 311 506 q 447 769 447 624 q 376 876 447 876 q 311 792 311 876 z "},"™":{"ha":864,"x_min":124,"x_max":793,"o":"m 793 993 l 793 629 l 711 629 l 711 832 l 731 981 l 644 629 l 574 629 l 489 969 l 507 832 l 507 629 l 425 629 l 425 993 l 557 993 l 600 789 l 610 726 l 618 789 l 661 993 l 793 993 m 124 924 l 124 993 l 394 993 l 394 924 l 306 924 l 306 629 l 217 629 l 217 924 l 124 924 z "},"Ω":{"ha":785,"x_min":67,"x_max":719,"o":"m 118 728 q 188 903 118 838 q 393 968 258 968 q 599 903 528 968 q 669 728 669 838 l 669 258 q 635 153 669 182 l 719 153 l 719 0 l 436 0 l 436 149 q 493 235 493 161 l 493 719 q 394 807 493 807 q 294 719 294 807 l 294 235 q 351 149 294 161 l 351 0 l 67 0 l 67 153 l 151 153 q 118 258 118 182 l 118 728 z "},"℮":{"ha":949,"x_min":88,"x_max":869,"o":"m 663 646 q 491 697 606 697 q 314 639 376 697 l 314 453 l 663 453 l 663 646 m 496 -14 q 199 99 310 -14 q 88 386 88 211 q 199 676 88 561 q 485 792 310 792 q 765 690 661 792 q 869 417 869 589 q 868 363 869 385 l 314 363 l 314 142 q 500 85 386 85 q 769 224 685 85 l 851 171 q 496 -14 742 -14 z "},"∂":{"ha":629,"x_min":65,"x_max":568,"o":"m 317 503 q 235 426 235 503 l 235 222 q 317 144 235 144 q 399 219 399 144 l 399 483 q 317 503 379 503 m 568 429 l 568 217 q 504 51 568 111 q 316 -8 440 -8 q 128 51 192 -8 q 65 215 65 110 l 65 432 q 265 638 65 638 q 376 588 342 638 q 156 954 329 760 l 358 954 q 505 721 442 860 q 568 429 568 582 z "},"∆":{"ha":667,"x_min":71,"x_max":626,"o":"m 444 954 l 626 0 l 71 0 l 253 954 l 444 954 m 349 731 l 250 157 l 446 157 l 349 731 z "},"∏":{"ha":696,"x_min":72,"x_max":624,"o":"m 72 954 l 624 954 l 624 0 l 446 0 l 446 797 l 250 797 l 250 0 l 72 0 l 72 954 z "},"∑":{"ha":574,"x_min":35,"x_max":536,"o":"m 35 954 l 536 954 l 536 804 l 226 804 l 382 478 l 226 150 l 536 150 l 536 0 l 35 0 l 35 144 l 196 478 l 35 810 l 35 954 z "},"−":{"ha":667,"x_min":57,"x_max":608,"o":"m 57 533 l 608 533 l 608 382 l 57 382 l 57 533 z "},"∕":{"ha":436,"x_min":-56,"x_max":492,"o":"m 371 954 l 492 954 l 65 0 l -56 0 l 371 954 z "},"∙":{"ha":303,"x_min":50,"x_max":250,"o":"m 150 381 q 100 381 150 381 q 50 476 50 381 q 150 572 50 572 q 250 476 250 572 q 150 381 250 381 z "},"√":{"ha":647,"x_min":35,"x_max":633,"o":"m 35 356 l 35 507 l 251 507 l 321 167 l 465 954 l 633 954 l 443 0 l 199 0 l 124 356 l 35 356 z "},"∞":{"ha":976,"x_min":49,"x_max":929,"o":"m 711 703 q 929 468 929 703 q 711 233 929 233 q 488 361 586 233 q 268 235 389 235 q 98 295 147 235 q 49 467 49 356 q 98 641 49 579 q 268 703 147 703 q 488 575 389 703 q 711 703 589 703 m 275 378 q 410 468 342 378 q 275 558 339 558 q 216 537 231 558 q 201 467 201 515 q 217 399 201 419 q 275 378 232 378 m 700 378 q 762 397 749 378 q 775 466 775 417 q 759 537 775 515 q 700 558 743 558 q 565 468 633 558 q 700 378 633 378 z "},"∫":{"ha":401,"x_min":15,"x_max":358,"o":"m 97 950 q 166 1122 97 1065 q 358 1174 235 1179 l 358 1021 q 295 1006 314 1021 q 276 956 276 992 l 276 4 q 208 -167 276 -110 q 15 -219 139 -224 l 15 -65 q 78 -51 60 -65 q 97 0 97 -36 l 97 950 z "},"≈":{"ha":803,"x_min":42,"x_max":758,"o":"m 758 654 q 718 532 758 576 q 486 503 646 453 l 311 565 q 228 572 261 588 q 204 500 194 557 l 47 500 q 42 572 42 535 q 82 694 42 650 q 314 722 153 772 l 489 660 q 572 653 539 638 q 596 725 606 669 l 751 725 q 758 654 758 694 m 758 367 q 718 244 758 289 q 486 215 646 165 l 311 278 q 228 285 261 300 q 204 213 194 269 l 47 213 q 42 285 42 247 q 82 407 42 363 q 314 435 153 485 l 489 372 q 572 366 539 350 q 596 438 606 382 l 751 438 q 758 367 758 407 z "},"≠":{"ha":658,"x_min":50,"x_max":601,"o":"m 601 518 l 422 518 l 376 397 l 601 397 l 601 246 l 318 246 l 264 107 l 119 107 l 172 246 l 50 246 l 50 397 l 231 397 l 278 518 l 50 518 l 50 671 l 336 671 l 390 813 l 536 813 l 482 671 l 601 671 l 601 518 z "},"≤":{"ha":647,"x_min":46,"x_max":597,"o":"m 597 839 l 597 681 l 214 556 l 597 431 l 597 272 l 46 476 l 46 635 l 597 839 m 46 83 l 46 235 l 597 235 l 597 83 l 46 83 z "},"≥":{"ha":647,"x_min":49,"x_max":601,"o":"m 49 839 l 601 635 l 601 476 l 49 272 l 49 431 l 433 556 l 49 681 l 49 839 m 49 83 l 49 235 l 601 235 l 601 83 l 49 83 z "},"◊":{"ha":619,"x_min":29,"x_max":590,"o":"m 414 406 l 310 663 l 206 406 l 310 147 l 414 406 m 208 811 l 411 811 l 590 406 l 411 0 l 208 0 l 29 406 l 208 811 z "},"◌":{"ha":917,"x_min":61,"x_max":856,"o":"m 374 733 q 366 742 374 733 q 357 778 357 750 q 374 822 357 806 q 418 839 392 839 q 462 822 444 839 q 479 778 479 806 q 462 733 479 750 q 418 717 444 717 q 374 733 392 717 m 594 696 q 581 696 594 696 q 550 714 568 696 q 532 758 532 732 q 549 801 532 783 q 594 819 567 819 q 638 802 621 819 q 654 758 654 785 q 637 714 654 732 q 594 696 619 696 m 681 619 q 673 627 681 619 q 664 663 664 636 q 681 707 664 689 q 725 725 699 725 q 769 708 751 725 q 786 663 786 690 q 769 619 786 636 q 725 601 751 601 q 681 619 699 601 m 750 455 q 742 464 750 455 q 733 499 733 472 q 750 542 733 525 q 794 560 767 560 q 838 542 821 560 q 856 499 856 525 q 838 455 856 472 q 794 438 821 438 q 750 455 767 438 m 738 269 q 728 277 738 269 q 719 313 719 286 q 738 357 719 339 q 781 375 756 375 q 824 357 807 375 q 842 313 842 339 q 824 269 842 286 q 781 251 807 251 q 738 269 756 251 m 635 133 q 627 141 635 133 q 618 176 618 150 q 635 220 618 203 q 679 238 653 238 q 724 220 706 238 q 742 176 742 203 q 724 133 742 150 q 679 115 706 115 q 635 133 653 115 m 467 58 q 458 67 467 58 q 450 103 450 75 q 467 147 450 131 q 511 164 483 164 q 556 147 539 164 q 574 103 574 129 q 556 59 574 76 q 511 42 539 42 q 467 58 483 42 m 336 61 q 323 61 336 61 q 292 79 310 61 q 274 124 274 97 q 292 168 274 150 q 336 186 310 186 q 380 168 363 186 q 397 124 397 150 q 380 79 397 97 q 336 61 363 61 m 150 185 q 142 194 150 185 q 133 229 133 203 q 151 273 133 256 q 194 290 168 290 q 238 273 221 290 q 256 229 256 256 q 238 185 256 203 q 194 168 221 168 q 150 185 167 168 m 78 347 q 70 356 78 347 q 61 390 61 364 q 78 435 61 417 q 122 453 96 453 q 166 435 149 453 q 183 391 183 418 q 166 347 183 364 q 122 331 149 331 q 78 347 96 331 m 97 522 q 88 530 97 522 q 79 565 79 539 q 97 609 79 592 q 142 626 115 626 q 186 609 168 626 q 204 565 204 592 q 186 522 204 539 q 142 504 168 504 q 97 522 115 504 m 254 656 q 241 656 254 656 q 210 673 228 656 q 193 717 193 690 q 210 762 193 744 q 254 779 228 779 q 298 762 281 779 q 315 717 315 744 q 298 673 315 690 q 254 656 281 656 z "},"":{"ha":486,"x_min":174,"x_max":311,"o":"m 267 -85 q 311 -126 311 -85 q 236 -286 311 -183 l 174 -286 l 210 -85 l 267 -85 z "},"ﬁ":{"ha":671,"x_min":18,"x_max":600,"o":"m 600 811 l 600 0 l 422 0 l 422 671 l 276 671 l 276 0 l 97 0 l 97 671 l 18 671 l 18 811 l 97 811 l 97 829 q 379 1051 97 1051 q 560 1032 465 1051 l 560 893 q 411 911 490 911 q 304 892 332 911 q 276 831 276 874 l 276 811 l 600 811 z "},"ﬂ":{"ha":671,"x_min":18,"x_max":600,"o":"m 600 1026 l 600 0 l 425 0 l 425 911 q 368 913 411 913 q 275 831 275 913 l 275 811 l 367 811 l 367 671 l 276 671 l 276 0 l 97 0 l 97 671 l 18 671 l 18 811 l 97 811 l 97 829 q 368 1051 97 1051 q 549 1026 460 1051 l 600 1026 z "}}}
